<?xml version="1.0" encoding="utf-8" standalone="no"?>
<!DOCTYPE svg PUBLIC "-//W3C//DTD SVG 1.1//EN"
  "http://www.w3.org/Graphics/SVG/1.1/DTD/svg11.dtd">
<!-- Created with matplotlib (https://matplotlib.org/) -->
<svg height="263.63625pt" version="1.1" viewBox="0 0 556.365625 263.63625" width="556.365625pt" xmlns="http://www.w3.org/2000/svg" xmlns:xlink="http://www.w3.org/1999/xlink">
 <metadata>
  <rdf:RDF xmlns:cc="http://creativecommons.org/ns#" xmlns:dc="http://purl.org/dc/elements/1.1/" xmlns:rdf="http://www.w3.org/1999/02/22-rdf-syntax-ns#">
   <cc:Work>
    <dc:type rdf:resource="http://purl.org/dc/dcmitype/StillImage"/>
    <dc:date>2020-09-17T12:42:50.080728</dc:date>
    <dc:format>image/svg+xml</dc:format>
    <dc:creator>
     <cc:Agent>
      <dc:title>Matplotlib v3.3.0, https://matplotlib.org/</dc:title>
     </cc:Agent>
    </dc:creator>
   </cc:Work>
  </rdf:RDF>
 </metadata>
 <defs>
  <style type="text/css">*{stroke-linecap:butt;stroke-linejoin:round;}</style>
 </defs>
 <g id="figure_1">
  <g id="patch_1">
   <path d="M 0 263.63625 
L 556.365625 263.63625 
L 556.365625 0 
L 0 0 
z
" style="fill:none;"/>
  </g>
  <g id="axes_1">
   <g id="patch_2">
    <path d="M 46.965625 239.758125 
L 549.165625 239.758125 
L 549.165625 22.318125 
L 46.965625 22.318125 
z
" style="fill:#ffffff;"/>
   </g>
   <g id="PolyCollection_1">
    <path clip-path="url(#pf21fe6fe39)" d="M 97.613229 217.519943 
L 92.699839 217.519943 
L 92.514967 215.648042 
L 92.330083 213.776142 
L 92.139483 211.904241 
L 91.936045 210.03234 
L 91.711726 208.160439 
L 91.458072 206.288538 
L 91.166684 204.416637 
L 90.829582 202.544737 
L 90.439441 200.672836 
L 89.989719 198.800935 
L 89.474697 196.929034 
L 88.889514 195.057133 
L 88.230224 193.185232 
L 87.493959 191.313332 
L 86.679213 189.441431 
L 85.786265 187.56953 
L 84.817705 185.697629 
L 83.779023 183.825728 
L 82.679148 181.953827 
L 81.530839 180.081927 
L 80.350793 178.210026 
L 79.159363 176.338125 
L 77.979794 174.466224 
L 76.836972 172.594323 
L 75.755746 170.722423 
L 74.758953 168.850522 
L 73.865401 166.978621 
L 73.088046 165.10672 
L 72.432676 163.234819 
L 71.897312 161.362918 
L 71.472495 159.491018 
L 71.142484 157.619117 
L 70.887276 155.747216 
L 70.685223 153.875315 
L 70.51595 152.003414 
L 70.363181 150.131513 
L 70.217137 148.259613 
L 70.076147 146.387712 
L 69.947246 144.515811 
L 69.845613 142.64391 
L 69.792898 140.772009 
L 69.814565 138.900108 
L 69.936597 137.028208 
L 70.18195 135.156307 
L 70.567259 133.284406 
L 71.100253 131.412505 
L 71.778274 129.540604 
L 72.588143 127.668704 
L 73.507408 125.796803 
L 74.506818 123.924902 
L 75.553635 122.053001 
L 76.615306 120.1811 
L 77.662928 118.309199 
L 78.674019 116.437299 
L 79.634211 114.565398 
L 80.537703 112.693497 
L 81.386485 110.821596 
L 82.188586 108.949695 
L 82.955698 107.077794 
L 83.700595 105.205894 
L 84.434773 103.333993 
L 85.166627 101.462092 
L 85.900343 99.590191 
L 86.63558 97.71829 
L 87.367838 95.846389 
L 88.089356 93.974489 
L 88.790317 92.102588 
L 89.460143 90.230687 
L 90.088691 88.358786 
L 90.667236 86.486885 
L 91.189153 84.614985 
L 91.650302 82.743084 
L 92.049138 80.871183 
L 92.386589 78.999282 
L 92.665771 77.127381 
L 92.891592 75.25548 
L 93.070302 73.38358 
L 93.209013 71.511679 
L 93.315245 69.639778 
L 93.396491 67.767877 
L 93.459837 65.895976 
L 93.511652 64.024075 
L 93.557333 62.152175 
L 93.601142 60.280274 
L 93.646126 58.408373 
L 93.694116 56.536472 
L 93.745832 54.664571 
L 93.80105 52.79267 
L 93.85885 50.92077 
L 93.917904 49.048869 
L 93.976777 47.176968 
L 94.034212 45.305067 
L 94.08935 43.433166 
L 94.141876 41.561265 
L 94.192051 39.689365 
L 94.240648 37.817464 
L 94.288792 35.945563 
L 94.337743 34.073662 
L 94.388658 32.201761 
L 95.92441 32.201761 
L 95.92441 32.201761 
L 95.975325 34.073662 
L 96.024276 35.945563 
L 96.07242 37.817464 
L 96.121017 39.689365 
L 96.171193 41.561265 
L 96.223718 43.433166 
L 96.278856 45.305067 
L 96.336291 47.176968 
L 96.395164 49.048869 
L 96.454218 50.92077 
L 96.512018 52.79267 
L 96.567236 54.664571 
L 96.618952 56.536472 
L 96.666943 58.408373 
L 96.711926 60.280274 
L 96.755735 62.152175 
L 96.801416 64.024075 
L 96.853231 65.895976 
L 96.916578 67.767877 
L 96.997823 69.639778 
L 97.104055 71.511679 
L 97.242766 73.38358 
L 97.421476 75.25548 
L 97.647297 77.127381 
L 97.926479 78.999282 
L 98.26393 80.871183 
L 98.662766 82.743084 
L 99.123916 84.614985 
L 99.645832 86.486885 
L 100.224377 88.358786 
L 100.852925 90.230687 
L 101.522751 92.102588 
L 102.223713 93.974489 
L 102.945231 95.846389 
L 103.677488 97.71829 
L 104.412725 99.590191 
L 105.146441 101.462092 
L 105.878295 103.333993 
L 106.612473 105.205894 
L 107.35737 107.077794 
L 108.124482 108.949695 
L 108.926584 110.821596 
L 109.775365 112.693497 
L 110.678857 114.565398 
L 111.63905 116.437299 
L 112.65014 118.309199 
L 113.697762 120.1811 
L 114.759433 122.053001 
L 115.806251 123.924902 
L 116.80566 125.796803 
L 117.724926 127.668704 
L 118.534794 129.540604 
L 119.212815 131.412505 
L 119.745809 133.284406 
L 120.131119 135.156307 
L 120.376471 137.028208 
L 120.498503 138.900108 
L 120.52017 140.772009 
L 120.467455 142.64391 
L 120.365823 144.515811 
L 120.236921 146.387712 
L 120.095932 148.259613 
L 119.949888 150.131513 
L 119.797118 152.003414 
L 119.627845 153.875315 
L 119.425793 155.747216 
L 119.170584 157.619117 
L 118.840573 159.491018 
L 118.415756 161.362918 
L 117.880392 163.234819 
L 117.225022 165.10672 
L 116.447668 166.978621 
L 115.554115 168.850522 
L 114.557322 170.722423 
L 113.476096 172.594323 
L 112.333274 174.466224 
L 111.153705 176.338125 
L 109.962275 178.210026 
L 108.782229 180.081927 
L 107.63392 181.953827 
L 106.534045 183.825728 
L 105.495363 185.697629 
L 104.526803 187.56953 
L 103.633855 189.441431 
L 102.819109 191.313332 
L 102.082844 193.185232 
L 101.423554 195.057133 
L 100.838371 196.929034 
L 100.32335 198.800935 
L 99.873627 200.672836 
L 99.483486 202.544737 
L 99.146384 204.416637 
L 98.854996 206.288538 
L 98.601342 208.160439 
L 98.377023 210.03234 
L 98.173585 211.904241 
L 97.982985 213.776142 
L 97.798101 215.648042 
L 97.613229 217.519943 
z
" style="fill:#1f77b4;fill-opacity:0.3;"/>
   </g>
   <g id="PolyCollection_2">
    <path clip-path="url(#pf21fe6fe39)" d="M 200.190116 229.874489 
L 193.032043 229.874489 
L 192.906479 228.876142 
L 192.784825 227.877794 
L 192.666735 226.879447 
L 192.551674 225.8811 
L 192.43891 224.882753 
L 192.327513 223.884406 
L 192.216362 222.886059 
L 192.104149 221.887712 
L 191.989389 220.889365 
L 191.870434 219.891018 
L 191.745489 218.89267 
L 191.612629 217.894323 
L 191.46983 216.895976 
L 191.314985 215.897629 
L 191.145945 214.899282 
L 190.960542 213.900935 
L 190.756634 212.902588 
L 190.532137 211.904241 
L 190.285066 210.905894 
L 190.013578 209.907546 
L 189.716012 208.909199 
L 189.39093 207.910852 
L 189.037153 206.912505 
L 188.653797 205.914158 
L 188.240309 204.915811 
L 187.796486 203.917464 
L 187.3225 202.919117 
L 186.81891 201.92077 
L 186.286669 200.922423 
L 185.727121 199.924075 
L 185.141995 198.925728 
L 184.533386 197.927381 
L 183.903735 196.929034 
L 183.255797 195.930687 
L 182.592611 194.93234 
L 181.91746 193.933993 
L 181.233829 192.935646 
L 180.545371 191.937299 
L 179.855855 190.938951 
L 179.169132 189.940604 
L 178.489094 188.942257 
L 177.819636 187.94391 
L 177.164618 186.945563 
L 176.527843 185.947216 
L 175.913015 184.948869 
L 175.323722 183.950522 
L 174.763407 182.952175 
L 174.235343 181.953827 
L 173.742608 180.95548 
L 173.288067 179.957133 
L 172.874339 178.958786 
L 172.503779 177.960439 
L 172.178444 176.962092 
L 171.900073 175.963745 
L 171.670052 174.965398 
L 171.489389 173.967051 
L 171.358689 172.968704 
L 171.27813 171.970356 
L 171.247443 170.972009 
L 171.2659 169.973662 
L 171.332309 168.975315 
L 171.445016 167.976968 
L 171.601916 166.978621 
L 171.800484 165.980274 
L 172.037802 164.981927 
L 172.310608 163.98358 
L 172.615355 162.985232 
L 172.948276 161.986885 
L 173.305458 160.988538 
L 173.682922 159.990191 
L 174.07671 158.991844 
L 174.482971 157.993497 
L 174.898043 156.99515 
L 175.318533 155.996803 
L 175.741393 154.998456 
L 176.16398 154.000108 
L 176.584109 153.001761 
L 177.000089 152.003414 
L 177.410746 151.005067 
L 177.815427 150.00672 
L 178.213995 149.008373 
L 178.606794 148.010026 
L 178.994615 147.011679 
L 179.378638 146.013332 
L 179.760368 145.014985 
L 180.141554 144.016637 
L 180.524112 143.01829 
L 180.910039 142.019943 
L 181.301321 141.021596 
L 181.699856 140.023249 
L 182.107369 139.024902 
L 182.525342 138.026555 
L 182.954953 137.028208 
L 183.397023 136.029861 
L 183.851983 135.031513 
L 184.319843 134.033166 
L 184.800192 133.034819 
L 185.292192 132.036472 
L 185.794606 131.038125 
L 207.427553 131.038125 
L 207.427553 131.038125 
L 207.929967 132.036472 
L 208.421967 133.034819 
L 208.902316 134.033166 
L 209.370176 135.031513 
L 209.825136 136.029861 
L 210.267206 137.028208 
L 210.696817 138.026555 
L 211.11479 139.024902 
L 211.522303 140.023249 
L 211.920838 141.021596 
L 212.31212 142.019943 
L 212.698047 143.01829 
L 213.080605 144.016637 
L 213.461791 145.014985 
L 213.843521 146.013332 
L 214.227544 147.011679 
L 214.615366 148.010026 
L 215.008164 149.008373 
L 215.406732 150.00672 
L 215.811414 151.005067 
L 216.22207 152.003414 
L 216.63805 153.001761 
L 217.058179 154.000108 
L 217.480766 154.998456 
L 217.903626 155.996803 
L 218.324116 156.99515 
L 218.739188 157.993497 
L 219.145449 158.991844 
L 219.539237 159.990191 
L 219.916701 160.988538 
L 220.273883 161.986885 
L 220.606804 162.985232 
L 220.911551 163.98358 
L 221.184357 164.981927 
L 221.421675 165.980274 
L 221.620243 166.978621 
L 221.777144 167.976968 
L 221.88985 168.975315 
L 221.956259 169.973662 
L 221.974716 170.972009 
L 221.944029 171.970356 
L 221.86347 172.968704 
L 221.73277 173.967051 
L 221.552107 174.965398 
L 221.322086 175.963745 
L 221.043715 176.962092 
L 220.718381 177.960439 
L 220.34782 178.958786 
L 219.934092 179.957133 
L 219.479551 180.95548 
L 218.986816 181.953827 
L 218.458752 182.952175 
L 217.898437 183.950522 
L 217.309144 184.948869 
L 216.694317 185.947216 
L 216.057541 186.945563 
L 215.402524 187.94391 
L 214.733065 188.942257 
L 214.053027 189.940604 
L 213.366304 190.938951 
L 212.676788 191.937299 
L 211.98833 192.935646 
L 211.3047 193.933993 
L 210.629548 194.93234 
L 209.966362 195.930687 
L 209.318424 196.929034 
L 208.688773 197.927381 
L 208.080164 198.925728 
L 207.495038 199.924075 
L 206.93549 200.922423 
L 206.403249 201.92077 
L 205.899659 202.919117 
L 205.425673 203.917464 
L 204.98185 204.915811 
L 204.568362 205.914158 
L 204.185006 206.912505 
L 203.831229 207.910852 
L 203.506147 208.909199 
L 203.208581 209.907546 
L 202.937094 210.905894 
L 202.690022 211.904241 
L 202.465525 212.902588 
L 202.261617 213.900935 
L 202.076214 214.899282 
L 201.907174 215.897629 
L 201.752329 216.895976 
L 201.60953 217.894323 
L 201.47667 218.89267 
L 201.351725 219.891018 
L 201.23277 220.889365 
L 201.11801 221.887712 
L 201.005797 222.886059 
L 200.894647 223.884406 
L 200.78325 224.882753 
L 200.670485 225.8811 
L 200.555424 226.879447 
L 200.437335 227.877794 
L 200.31568 228.876142 
L 200.190116 229.874489 
z
" style="fill:#1f77b4;fill-opacity:0.3;"/>
   </g>
   <g id="PolyCollection_3">
    <path clip-path="url(#pf21fe6fe39)" d="M 304.443513 177.36767 
L 291.687737 177.36767 
L 291.494795 176.743704 
L 291.310235 176.119737 
L 291.133988 175.49577 
L 290.965796 174.871803 
L 290.805225 174.247836 
L 290.651672 173.623869 
L 290.504384 172.999902 
L 290.362472 172.375935 
L 290.224935 171.751968 
L 290.090687 171.128001 
L 289.958575 170.504034 
L 289.827414 169.880067 
L 289.696003 169.2561 
L 289.56316 168.632133 
L 289.427736 168.008166 
L 289.288646 167.384199 
L 289.144876 166.760232 
L 288.995506 166.136265 
L 288.839719 165.512299 
L 288.676803 164.888332 
L 288.50616 164.264365 
L 288.3273 163.640398 
L 288.139837 163.016431 
L 287.94348 162.392464 
L 287.73802 161.768497 
L 287.523318 161.14453 
L 287.299283 160.520563 
L 287.065862 159.896596 
L 286.823015 159.272629 
L 286.570703 158.648662 
L 286.308869 158.024695 
L 286.037424 157.400728 
L 285.756238 156.776761 
L 285.465129 156.152794 
L 285.163862 155.528827 
L 284.852151 154.904861 
L 284.529659 154.280894 
L 284.196016 153.656927 
L 283.850828 153.03296 
L 283.493702 152.408993 
L 283.124269 151.785026 
L 282.742216 151.161059 
L 282.347313 150.537092 
L 281.939456 149.913125 
L 281.518699 149.289158 
L 281.085293 148.665191 
L 280.639725 148.041224 
L 280.182753 147.417257 
L 279.71544 146.79329 
L 279.239182 146.169323 
L 278.755729 145.545356 
L 278.267208 144.921389 
L 277.776123 144.297423 
L 277.285361 143.673456 
L 276.79818 143.049489 
L 276.31819 142.425522 
L 275.84932 141.801555 
L 275.395777 141.177588 
L 274.961999 140.553621 
L 274.552589 139.929654 
L 274.172249 139.305687 
L 273.825701 138.68172 
L 273.517609 138.057753 
L 273.252486 137.433786 
L 273.034614 136.809819 
L 272.867953 136.185852 
L 272.756055 135.561885 
L 272.701989 134.937918 
L 272.708267 134.313951 
L 272.776782 133.689985 
L 272.908759 133.066018 
L 273.104716 132.442051 
L 273.364441 131.818084 
L 273.686986 131.194117 
L 274.070674 130.57015 
L 274.513123 129.946183 
L 275.011282 129.322216 
L 275.561491 128.698249 
L 276.159536 128.074282 
L 276.800737 127.450315 
L 277.480024 126.826348 
L 278.192033 126.202381 
L 278.931201 125.578414 
L 279.691863 124.954447 
L 280.468349 124.33048 
L 281.255071 123.706513 
L 282.046618 123.082546 
L 282.837826 122.45858 
L 283.62385 121.834613 
L 284.400223 121.210646 
L 285.162903 120.586679 
L 285.908301 119.962712 
L 286.63331 119.338745 
L 287.335308 118.714778 
L 288.012162 118.090811 
L 288.66221 117.466844 
L 289.284242 116.842877 
L 289.877474 116.21891 
L 290.441503 115.594943 
L 305.689747 115.594943 
L 305.689747 115.594943 
L 306.253776 116.21891 
L 306.847008 116.842877 
L 307.46904 117.466844 
L 308.119088 118.090811 
L 308.795942 118.714778 
L 309.49794 119.338745 
L 310.222949 119.962712 
L 310.968347 120.586679 
L 311.731027 121.210646 
L 312.5074 121.834613 
L 313.293424 122.45858 
L 314.084632 123.082546 
L 314.876179 123.706513 
L 315.662901 124.33048 
L 316.439387 124.954447 
L 317.200049 125.578414 
L 317.939217 126.202381 
L 318.651226 126.826348 
L 319.330513 127.450315 
L 319.971714 128.074282 
L 320.569759 128.698249 
L 321.119968 129.322216 
L 321.618127 129.946183 
L 322.060576 130.57015 
L 322.444264 131.194117 
L 322.766809 131.818084 
L 323.026534 132.442051 
L 323.222491 133.066018 
L 323.354468 133.689985 
L 323.422983 134.313951 
L 323.429261 134.937918 
L 323.375195 135.561885 
L 323.263297 136.185852 
L 323.096636 136.809819 
L 322.878764 137.433786 
L 322.613641 138.057753 
L 322.305549 138.68172 
L 321.959001 139.305687 
L 321.578661 139.929654 
L 321.169251 140.553621 
L 320.735473 141.177588 
L 320.28193 141.801555 
L 319.81306 142.425522 
L 319.33307 143.049489 
L 318.845889 143.673456 
L 318.355127 144.297423 
L 317.864042 144.921389 
L 317.375521 145.545356 
L 316.892068 146.169323 
L 316.41581 146.79329 
L 315.948497 147.417257 
L 315.491525 148.041224 
L 315.045957 148.665191 
L 314.612551 149.289158 
L 314.191794 149.913125 
L 313.783937 150.537092 
L 313.389034 151.161059 
L 313.006981 151.785026 
L 312.637548 152.408993 
L 312.280422 153.03296 
L 311.935234 153.656927 
L 311.601591 154.280894 
L 311.279099 154.904861 
L 310.967388 155.528827 
L 310.666121 156.152794 
L 310.375012 156.776761 
L 310.093826 157.400728 
L 309.822381 158.024695 
L 309.560547 158.648662 
L 309.308235 159.272629 
L 309.065388 159.896596 
L 308.831967 160.520563 
L 308.607932 161.14453 
L 308.39323 161.768497 
L 308.18777 162.392464 
L 307.991413 163.016431 
L 307.80395 163.640398 
L 307.62509 164.264365 
L 307.454447 164.888332 
L 307.291531 165.512299 
L 307.135744 166.136265 
L 306.986374 166.760232 
L 306.842604 167.384199 
L 306.703514 168.008166 
L 306.56809 168.632133 
L 306.435247 169.2561 
L 306.303836 169.880067 
L 306.172675 170.504034 
L 306.040563 171.128001 
L 305.906315 171.751968 
L 305.768778 172.375935 
L 305.626866 172.999902 
L 305.479578 173.623869 
L 305.326025 174.247836 
L 305.165454 174.871803 
L 304.997262 175.49577 
L 304.821015 176.119737 
L 304.636455 176.743704 
L 304.443513 177.36767 
z
" style="fill:#1f77b4;fill-opacity:0.3;"/>
   </g>
   <g id="PolyCollection_4">
    <path clip-path="url(#pf21fe6fe39)" d="M 418.731328 209.798352 
L 380.309013 209.798352 
L 379.611818 209.299179 
L 378.942498 208.800005 
L 378.30495 208.300832 
L 377.702867 207.801658 
L 377.139702 207.302485 
L 376.618622 206.803311 
L 376.142474 206.304137 
L 375.71375 205.804964 
L 375.334559 205.30579 
L 375.006606 204.806617 
L 374.731175 204.307443 
L 374.509118 203.80827 
L 374.340852 203.309096 
L 374.226361 202.809923 
L 374.165204 202.310749 
L 374.156534 201.811575 
L 374.199114 201.312402 
L 374.291348 200.813228 
L 374.431308 200.314055 
L 374.616772 199.814881 
L 374.845264 199.315708 
L 375.114092 198.816534 
L 375.420394 198.317361 
L 375.761179 197.818187 
L 376.133376 197.319013 
L 376.533872 196.81984 
L 376.959557 196.320666 
L 377.407361 195.821493 
L 377.874294 195.322319 
L 378.357471 194.823146 
L 378.854149 194.323972 
L 379.361743 193.824799 
L 379.877849 193.325625 
L 380.400258 192.826451 
L 380.926962 192.327278 
L 381.456159 191.828104 
L 381.986254 191.328931 
L 382.51585 190.829757 
L 383.043744 190.330584 
L 383.568906 189.83141 
L 384.090475 189.332237 
L 384.607729 188.833063 
L 385.120073 188.333889 
L 385.627015 187.834716 
L 386.128145 187.335542 
L 386.623114 186.836369 
L 387.111613 186.337195 
L 387.593352 185.838022 
L 388.068045 185.338848 
L 388.535392 184.839675 
L 388.995066 184.340501 
L 389.446703 183.841327 
L 389.889893 183.342154 
L 390.324174 182.84298 
L 390.749031 182.343807 
L 391.163895 181.844633 
L 391.568148 181.34546 
L 391.961127 180.846286 
L 392.342131 180.347113 
L 392.710435 179.847939 
L 393.065293 179.348765 
L 393.405961 178.849592 
L 393.731702 178.350418 
L 394.041806 177.851245 
L 394.335603 177.352071 
L 394.612473 176.852898 
L 394.871869 176.353724 
L 395.113323 175.854551 
L 395.336461 175.355377 
L 395.541015 174.856204 
L 395.726831 174.35703 
L 395.893879 173.857856 
L 396.042259 173.358683 
L 396.172204 172.859509 
L 396.284084 172.360336 
L 396.378405 171.861162 
L 396.455811 171.361989 
L 396.517075 170.862815 
L 396.563096 170.363642 
L 396.59489 169.864468 
L 396.613585 169.365294 
L 396.620402 168.866121 
L 396.616647 168.366947 
L 396.603696 167.867774 
L 396.582978 167.3686 
L 396.555961 166.869427 
L 396.524132 166.370253 
L 396.488979 165.87108 
L 396.451976 165.371906 
L 396.414564 164.872732 
L 396.378132 164.373559 
L 396.344003 163.874385 
L 396.313416 163.375212 
L 396.287514 162.876038 
L 396.267328 162.376865 
L 396.253769 161.877691 
L 396.247619 161.378518 
L 396.249522 160.879344 
L 396.25998 160.38017 
L 402.780361 160.38017 
L 402.780361 160.38017 
L 402.790819 160.879344 
L 402.792721 161.378518 
L 402.786572 161.877691 
L 402.773013 162.376865 
L 402.752827 162.876038 
L 402.726925 163.375212 
L 402.696338 163.874385 
L 402.662208 164.373559 
L 402.625777 164.872732 
L 402.588365 165.371906 
L 402.551362 165.87108 
L 402.516209 166.370253 
L 402.48438 166.869427 
L 402.457363 167.3686 
L 402.436645 167.867774 
L 402.423694 168.366947 
L 402.419939 168.866121 
L 402.426756 169.365294 
L 402.44545 169.864468 
L 402.477245 170.363642 
L 402.523266 170.862815 
L 402.58453 171.361989 
L 402.661935 171.861162 
L 402.756257 172.360336 
L 402.868137 172.859509 
L 402.998082 173.358683 
L 403.146462 173.857856 
L 403.31351 174.35703 
L 403.499326 174.856204 
L 403.70388 175.355377 
L 403.927018 175.854551 
L 404.168472 176.353724 
L 404.427868 176.852898 
L 404.704738 177.352071 
L 404.998534 177.851245 
L 405.308639 178.350418 
L 405.63438 178.849592 
L 405.975048 179.348765 
L 406.329906 179.847939 
L 406.698209 180.347113 
L 407.079214 180.846286 
L 407.472193 181.34546 
L 407.876446 181.844633 
L 408.29131 182.343807 
L 408.716167 182.84298 
L 409.150448 183.342154 
L 409.593638 183.841327 
L 410.045275 184.340501 
L 410.504949 184.839675 
L 410.972296 185.338848 
L 411.446989 185.838022 
L 411.928728 186.337195 
L 412.417227 186.836369 
L 412.912196 187.335542 
L 413.413326 187.834716 
L 413.920268 188.333889 
L 414.432612 188.833063 
L 414.949866 189.332237 
L 415.471434 189.83141 
L 415.996597 190.330584 
L 416.52449 190.829757 
L 417.054087 191.328931 
L 417.584182 191.828104 
L 418.113379 192.327278 
L 418.640083 192.826451 
L 419.162492 193.325625 
L 419.678598 193.824799 
L 420.186192 194.323972 
L 420.68287 194.823146 
L 421.166047 195.322319 
L 421.63298 195.821493 
L 422.080784 196.320666 
L 422.506469 196.81984 
L 422.906965 197.319013 
L 423.279162 197.818187 
L 423.619947 198.317361 
L 423.926249 198.816534 
L 424.195077 199.315708 
L 424.423569 199.814881 
L 424.609033 200.314055 
L 424.748993 200.813228 
L 424.841227 201.312402 
L 424.883807 201.811575 
L 424.875137 202.310749 
L 424.81398 202.809923 
L 424.699489 203.309096 
L 424.531223 203.80827 
L 424.309166 204.307443 
L 424.033735 204.806617 
L 423.705782 205.30579 
L 423.326591 205.804964 
L 422.897867 206.304137 
L 422.421719 206.803311 
L 421.900639 207.302485 
L 421.337474 207.801658 
L 420.735391 208.300832 
L 420.097842 208.800005 
L 419.428523 209.299179 
L 418.731328 209.798352 
z
" style="fill:#1f77b4;fill-opacity:0.3;"/>
   </g>
   <g id="PolyCollection_5">
    <path clip-path="url(#pf21fe6fe39)" d="M 515.657086 178.911989 
L 486.292345 178.911989 
L 485.605043 177.57046 
L 484.922225 176.228931 
L 484.246613 174.887402 
L 483.580908 173.545873 
L 482.92777 172.204344 
L 482.289793 170.862815 
L 481.669489 169.521286 
L 481.06927 168.179757 
L 480.491434 166.838228 
L 479.938151 165.496699 
L 479.411458 164.15517 
L 478.913242 162.813642 
L 478.445246 161.472113 
L 478.009057 160.130584 
L 477.606106 158.789055 
L 477.237672 157.447526 
L 476.904877 156.105997 
L 476.608693 154.764468 
L 476.349941 153.422939 
L 476.129293 152.08141 
L 475.947276 150.739881 
L 475.804275 149.398352 
L 475.700532 148.056823 
L 475.636147 146.715294 
L 475.61108 145.373765 
L 475.625149 144.032237 
L 475.678031 142.690708 
L 475.76926 141.349179 
L 475.898228 140.00765 
L 476.06418 138.666121 
L 476.266219 137.324592 
L 476.503304 135.983063 
L 476.774253 134.641534 
L 477.077747 133.300005 
L 477.412333 131.958476 
L 477.776435 130.616947 
L 478.168357 129.275418 
L 478.586299 127.933889 
L 479.028365 126.592361 
L 479.49258 125.250832 
L 479.976903 123.909303 
L 480.479243 122.567774 
L 480.99748 121.226245 
L 481.529474 119.884716 
L 482.073091 118.543187 
L 482.626211 117.201658 
L 483.18675 115.860129 
L 483.752669 114.5186 
L 484.321989 113.177071 
L 484.8928 111.835542 
L 485.46327 110.494013 
L 486.031653 109.152485 
L 486.596288 107.810956 
L 487.155607 106.469427 
L 487.70813 105.127898 
L 488.252468 103.786369 
L 488.787318 102.44484 
L 489.311456 101.103311 
L 489.823741 99.761782 
L 490.323102 98.420253 
L 490.808539 97.078724 
L 491.279117 95.737195 
L 491.733962 94.395666 
L 492.172262 93.054137 
L 492.593265 91.712608 
L 492.996281 90.37108 
L 493.380682 89.029551 
L 493.745908 87.688022 
L 494.091473 86.346493 
L 494.41697 85.004964 
L 494.72208 83.663435 
L 495.006579 82.321906 
L 495.270347 80.980377 
L 495.513376 79.638848 
L 495.735781 78.297319 
L 495.937801 76.95579 
L 496.119812 75.614261 
L 496.282324 74.272732 
L 496.425988 72.931204 
L 496.551594 71.589675 
L 496.66007 70.248146 
L 496.752473 68.906617 
L 496.829984 67.565088 
L 496.893898 66.223559 
L 496.945609 64.88203 
L 496.986593 63.540501 
L 497.018396 62.198972 
L 497.042608 60.857443 
L 497.060845 59.515914 
L 497.07473 58.174385 
L 497.085866 56.832856 
L 497.095815 55.491327 
L 497.106079 54.149799 
L 497.118075 52.80827 
L 497.133118 51.466741 
L 497.152404 50.125212 
L 497.176994 48.783683 
L 497.207799 47.442154 
L 497.245574 46.100625 
L 504.703858 46.100625 
L 504.703858 46.100625 
L 504.741633 47.442154 
L 504.772438 48.783683 
L 504.797028 50.125212 
L 504.816314 51.466741 
L 504.831357 52.80827 
L 504.843353 54.149799 
L 504.853617 55.491327 
L 504.863566 56.832856 
L 504.874702 58.174385 
L 504.888587 59.515914 
L 504.906824 60.857443 
L 504.931036 62.198972 
L 504.962838 63.540501 
L 505.003823 64.88203 
L 505.055533 66.223559 
L 505.119447 67.565088 
L 505.196959 68.906617 
L 505.289362 70.248146 
L 505.397837 71.589675 
L 505.523444 72.931204 
L 505.667108 74.272732 
L 505.82962 75.614261 
L 506.011631 76.95579 
L 506.213651 78.297319 
L 506.436056 79.638848 
L 506.679085 80.980377 
L 506.942853 82.321906 
L 507.227352 83.663435 
L 507.532462 85.004964 
L 507.857959 86.346493 
L 508.203524 87.688022 
L 508.56875 89.029551 
L 508.953151 90.37108 
L 509.356166 91.712608 
L 509.77717 93.054137 
L 510.21547 94.395666 
L 510.670315 95.737195 
L 511.140893 97.078724 
L 511.626329 98.420253 
L 512.125691 99.761782 
L 512.637976 101.103311 
L 513.162114 102.44484 
L 513.696963 103.786369 
L 514.241302 105.127898 
L 514.793825 106.469427 
L 515.353144 107.810956 
L 515.917779 109.152485 
L 516.486162 110.494013 
L 517.056632 111.835542 
L 517.627443 113.177071 
L 518.196763 114.5186 
L 518.762682 115.860129 
L 519.32322 117.201658 
L 519.876341 118.543187 
L 520.419957 119.884716 
L 520.951952 121.226245 
L 521.470188 122.567774 
L 521.972529 123.909303 
L 522.456852 125.250832 
L 522.921067 126.592361 
L 523.363133 127.933889 
L 523.781074 129.275418 
L 524.172997 130.616947 
L 524.537098 131.958476 
L 524.871685 133.300005 
L 525.175179 134.641534 
L 525.446128 135.983063 
L 525.683213 137.324592 
L 525.885252 138.666121 
L 526.051204 140.00765 
L 526.180171 141.349179 
L 526.271401 142.690708 
L 526.324283 144.032237 
L 526.338352 145.373765 
L 526.313285 146.715294 
L 526.2489 148.056823 
L 526.145157 149.398352 
L 526.002156 150.739881 
L 525.820139 152.08141 
L 525.599491 153.422939 
L 525.340739 154.764468 
L 525.044555 156.105997 
L 524.71176 157.447526 
L 524.343326 158.789055 
L 523.940375 160.130584 
L 523.504186 161.472113 
L 523.036189 162.813642 
L 522.537974 164.15517 
L 522.01128 165.496699 
L 521.457998 166.838228 
L 520.880162 168.179757 
L 520.279943 169.521286 
L 519.659638 170.862815 
L 519.021662 172.204344 
L 518.368524 173.545873 
L 517.702819 174.887402 
L 517.027207 176.228931 
L 516.344388 177.57046 
L 515.657086 178.911989 
z
" style="fill:#1f77b4;fill-opacity:0.3;"/>
   </g>
   <g id="matplotlib.axis_1">
    <g id="xtick_1">
     <g id="line2d_1">
      <defs>
       <path d="M 0 0 
L 0 3.5 
" id="m9852020778" style="stroke:#000000;stroke-width:0.8;"/>
      </defs>
      <g>
       <use style="stroke:#000000;stroke-width:0.8;" x="95.156534" xlink:href="#m9852020778" y="239.758125"/>
      </g>
     </g>
     <g id="text_1">
      <!-- Downtown Toronto -->
      <g transform="translate(48.669034 254.356563)scale(0.1 -0.1)">
       <defs>
        <path d="M 19.671875 64.796875 
L 19.671875 8.109375 
L 31.59375 8.109375 
Q 46.6875 8.109375 53.6875 14.9375 
Q 60.6875 21.78125 60.6875 36.53125 
Q 60.6875 51.171875 53.6875 57.984375 
Q 46.6875 64.796875 31.59375 64.796875 
z
M 9.8125 72.90625 
L 30.078125 72.90625 
Q 51.265625 72.90625 61.171875 64.09375 
Q 71.09375 55.28125 71.09375 36.53125 
Q 71.09375 17.671875 61.125 8.828125 
Q 51.171875 0 30.078125 0 
L 9.8125 0 
z
" id="DejaVuSans-68"/>
        <path d="M 30.609375 48.390625 
Q 23.390625 48.390625 19.1875 42.75 
Q 14.984375 37.109375 14.984375 27.296875 
Q 14.984375 17.484375 19.15625 11.84375 
Q 23.34375 6.203125 30.609375 6.203125 
Q 37.796875 6.203125 41.984375 11.859375 
Q 46.1875 17.53125 46.1875 27.296875 
Q 46.1875 37.015625 41.984375 42.703125 
Q 37.796875 48.390625 30.609375 48.390625 
z
M 30.609375 56 
Q 42.328125 56 49.015625 48.375 
Q 55.71875 40.765625 55.71875 27.296875 
Q 55.71875 13.875 49.015625 6.21875 
Q 42.328125 -1.421875 30.609375 -1.421875 
Q 18.84375 -1.421875 12.171875 6.21875 
Q 5.515625 13.875 5.515625 27.296875 
Q 5.515625 40.765625 12.171875 48.375 
Q 18.84375 56 30.609375 56 
z
" id="DejaVuSans-111"/>
        <path d="M 4.203125 54.6875 
L 13.1875 54.6875 
L 24.421875 12.015625 
L 35.59375 54.6875 
L 46.1875 54.6875 
L 57.421875 12.015625 
L 68.609375 54.6875 
L 77.59375 54.6875 
L 63.28125 0 
L 52.6875 0 
L 40.921875 44.828125 
L 29.109375 0 
L 18.5 0 
z
" id="DejaVuSans-119"/>
        <path d="M 54.890625 33.015625 
L 54.890625 0 
L 45.90625 0 
L 45.90625 32.71875 
Q 45.90625 40.484375 42.875 44.328125 
Q 39.84375 48.1875 33.796875 48.1875 
Q 26.515625 48.1875 22.3125 43.546875 
Q 18.109375 38.921875 18.109375 30.90625 
L 18.109375 0 
L 9.078125 0 
L 9.078125 54.6875 
L 18.109375 54.6875 
L 18.109375 46.1875 
Q 21.34375 51.125 25.703125 53.5625 
Q 30.078125 56 35.796875 56 
Q 45.21875 56 50.046875 50.171875 
Q 54.890625 44.34375 54.890625 33.015625 
z
" id="DejaVuSans-110"/>
        <path d="M 18.3125 70.21875 
L 18.3125 54.6875 
L 36.8125 54.6875 
L 36.8125 47.703125 
L 18.3125 47.703125 
L 18.3125 18.015625 
Q 18.3125 11.328125 20.140625 9.421875 
Q 21.96875 7.515625 27.59375 7.515625 
L 36.8125 7.515625 
L 36.8125 0 
L 27.59375 0 
Q 17.1875 0 13.234375 3.875 
Q 9.28125 7.765625 9.28125 18.015625 
L 9.28125 47.703125 
L 2.6875 47.703125 
L 2.6875 54.6875 
L 9.28125 54.6875 
L 9.28125 70.21875 
z
" id="DejaVuSans-116"/>
        <path id="DejaVuSans-32"/>
        <path d="M -0.296875 72.90625 
L 61.375 72.90625 
L 61.375 64.59375 
L 35.5 64.59375 
L 35.5 0 
L 25.59375 0 
L 25.59375 64.59375 
L -0.296875 64.59375 
z
" id="DejaVuSans-84"/>
        <path d="M 41.109375 46.296875 
Q 39.59375 47.171875 37.8125 47.578125 
Q 36.03125 48 33.890625 48 
Q 26.265625 48 22.1875 43.046875 
Q 18.109375 38.09375 18.109375 28.8125 
L 18.109375 0 
L 9.078125 0 
L 9.078125 54.6875 
L 18.109375 54.6875 
L 18.109375 46.1875 
Q 20.953125 51.171875 25.484375 53.578125 
Q 30.03125 56 36.53125 56 
Q 37.453125 56 38.578125 55.875 
Q 39.703125 55.765625 41.0625 55.515625 
z
" id="DejaVuSans-114"/>
       </defs>
       <use xlink:href="#DejaVuSans-68"/>
       <use x="77.001953" xlink:href="#DejaVuSans-111"/>
       <use x="138.183594" xlink:href="#DejaVuSans-119"/>
       <use x="219.970703" xlink:href="#DejaVuSans-110"/>
       <use x="283.349609" xlink:href="#DejaVuSans-116"/>
       <use x="322.558594" xlink:href="#DejaVuSans-111"/>
       <use x="383.740234" xlink:href="#DejaVuSans-119"/>
       <use x="465.527344" xlink:href="#DejaVuSans-110"/>
       <use x="528.90625" xlink:href="#DejaVuSans-32"/>
       <use x="560.693359" xlink:href="#DejaVuSans-84"/>
       <use x="604.777344" xlink:href="#DejaVuSans-111"/>
       <use x="665.958984" xlink:href="#DejaVuSans-114"/>
       <use x="704.822266" xlink:href="#DejaVuSans-111"/>
       <use x="766.003906" xlink:href="#DejaVuSans-110"/>
       <use x="829.382812" xlink:href="#DejaVuSans-116"/>
       <use x="868.591797" xlink:href="#DejaVuSans-111"/>
      </g>
     </g>
    </g>
    <g id="xtick_2">
     <g id="line2d_2">
      <g>
       <use style="stroke:#000000;stroke-width:0.8;" x="196.61108" xlink:href="#m9852020778" y="239.758125"/>
      </g>
     </g>
     <g id="text_2">
      <!-- Garden District -->
      <g transform="translate(158.738423 254.356563)scale(0.1 -0.1)">
       <defs>
        <path d="M 59.515625 10.40625 
L 59.515625 29.984375 
L 43.40625 29.984375 
L 43.40625 38.09375 
L 69.28125 38.09375 
L 69.28125 6.78125 
Q 63.578125 2.734375 56.6875 0.65625 
Q 49.8125 -1.421875 42 -1.421875 
Q 24.90625 -1.421875 15.25 8.5625 
Q 5.609375 18.5625 5.609375 36.375 
Q 5.609375 54.25 15.25 64.234375 
Q 24.90625 74.21875 42 74.21875 
Q 49.125 74.21875 55.546875 72.453125 
Q 61.96875 70.703125 67.390625 67.28125 
L 67.390625 56.78125 
Q 61.921875 61.421875 55.765625 63.765625 
Q 49.609375 66.109375 42.828125 66.109375 
Q 29.4375 66.109375 22.71875 58.640625 
Q 16.015625 51.171875 16.015625 36.375 
Q 16.015625 21.625 22.71875 14.15625 
Q 29.4375 6.6875 42.828125 6.6875 
Q 48.046875 6.6875 52.140625 7.59375 
Q 56.25 8.5 59.515625 10.40625 
z
" id="DejaVuSans-71"/>
        <path d="M 34.28125 27.484375 
Q 23.390625 27.484375 19.1875 25 
Q 14.984375 22.515625 14.984375 16.5 
Q 14.984375 11.71875 18.140625 8.90625 
Q 21.296875 6.109375 26.703125 6.109375 
Q 34.1875 6.109375 38.703125 11.40625 
Q 43.21875 16.703125 43.21875 25.484375 
L 43.21875 27.484375 
z
M 52.203125 31.203125 
L 52.203125 0 
L 43.21875 0 
L 43.21875 8.296875 
Q 40.140625 3.328125 35.546875 0.953125 
Q 30.953125 -1.421875 24.3125 -1.421875 
Q 15.921875 -1.421875 10.953125 3.296875 
Q 6 8.015625 6 15.921875 
Q 6 25.140625 12.171875 29.828125 
Q 18.359375 34.515625 30.609375 34.515625 
L 43.21875 34.515625 
L 43.21875 35.40625 
Q 43.21875 41.609375 39.140625 45 
Q 35.0625 48.390625 27.6875 48.390625 
Q 23 48.390625 18.546875 47.265625 
Q 14.109375 46.140625 10.015625 43.890625 
L 10.015625 52.203125 
Q 14.9375 54.109375 19.578125 55.046875 
Q 24.21875 56 28.609375 56 
Q 40.484375 56 46.34375 49.84375 
Q 52.203125 43.703125 52.203125 31.203125 
z
" id="DejaVuSans-97"/>
        <path d="M 45.40625 46.390625 
L 45.40625 75.984375 
L 54.390625 75.984375 
L 54.390625 0 
L 45.40625 0 
L 45.40625 8.203125 
Q 42.578125 3.328125 38.25 0.953125 
Q 33.9375 -1.421875 27.875 -1.421875 
Q 17.96875 -1.421875 11.734375 6.484375 
Q 5.515625 14.40625 5.515625 27.296875 
Q 5.515625 40.1875 11.734375 48.09375 
Q 17.96875 56 27.875 56 
Q 33.9375 56 38.25 53.625 
Q 42.578125 51.265625 45.40625 46.390625 
z
M 14.796875 27.296875 
Q 14.796875 17.390625 18.875 11.75 
Q 22.953125 6.109375 30.078125 6.109375 
Q 37.203125 6.109375 41.296875 11.75 
Q 45.40625 17.390625 45.40625 27.296875 
Q 45.40625 37.203125 41.296875 42.84375 
Q 37.203125 48.484375 30.078125 48.484375 
Q 22.953125 48.484375 18.875 42.84375 
Q 14.796875 37.203125 14.796875 27.296875 
z
" id="DejaVuSans-100"/>
        <path d="M 56.203125 29.59375 
L 56.203125 25.203125 
L 14.890625 25.203125 
Q 15.484375 15.921875 20.484375 11.0625 
Q 25.484375 6.203125 34.421875 6.203125 
Q 39.59375 6.203125 44.453125 7.46875 
Q 49.3125 8.734375 54.109375 11.28125 
L 54.109375 2.78125 
Q 49.265625 0.734375 44.1875 -0.34375 
Q 39.109375 -1.421875 33.890625 -1.421875 
Q 20.796875 -1.421875 13.15625 6.1875 
Q 5.515625 13.8125 5.515625 26.8125 
Q 5.515625 40.234375 12.765625 48.109375 
Q 20.015625 56 32.328125 56 
Q 43.359375 56 49.78125 48.890625 
Q 56.203125 41.796875 56.203125 29.59375 
z
M 47.21875 32.234375 
Q 47.125 39.59375 43.09375 43.984375 
Q 39.0625 48.390625 32.421875 48.390625 
Q 24.90625 48.390625 20.390625 44.140625 
Q 15.875 39.890625 15.1875 32.171875 
z
" id="DejaVuSans-101"/>
        <path d="M 9.421875 54.6875 
L 18.40625 54.6875 
L 18.40625 0 
L 9.421875 0 
z
M 9.421875 75.984375 
L 18.40625 75.984375 
L 18.40625 64.59375 
L 9.421875 64.59375 
z
" id="DejaVuSans-105"/>
        <path d="M 44.28125 53.078125 
L 44.28125 44.578125 
Q 40.484375 46.53125 36.375 47.5 
Q 32.28125 48.484375 27.875 48.484375 
Q 21.1875 48.484375 17.84375 46.4375 
Q 14.5 44.390625 14.5 40.28125 
Q 14.5 37.15625 16.890625 35.375 
Q 19.28125 33.59375 26.515625 31.984375 
L 29.59375 31.296875 
Q 39.15625 29.25 43.1875 25.515625 
Q 47.21875 21.78125 47.21875 15.09375 
Q 47.21875 7.46875 41.1875 3.015625 
Q 35.15625 -1.421875 24.609375 -1.421875 
Q 20.21875 -1.421875 15.453125 -0.5625 
Q 10.6875 0.296875 5.421875 2 
L 5.421875 11.28125 
Q 10.40625 8.6875 15.234375 7.390625 
Q 20.0625 6.109375 24.8125 6.109375 
Q 31.15625 6.109375 34.5625 8.28125 
Q 37.984375 10.453125 37.984375 14.40625 
Q 37.984375 18.0625 35.515625 20.015625 
Q 33.0625 21.96875 24.703125 23.78125 
L 21.578125 24.515625 
Q 13.234375 26.265625 9.515625 29.90625 
Q 5.8125 33.546875 5.8125 39.890625 
Q 5.8125 47.609375 11.28125 51.796875 
Q 16.75 56 26.8125 56 
Q 31.78125 56 36.171875 55.265625 
Q 40.578125 54.546875 44.28125 53.078125 
z
" id="DejaVuSans-115"/>
        <path d="M 48.78125 52.59375 
L 48.78125 44.1875 
Q 44.96875 46.296875 41.140625 47.34375 
Q 37.3125 48.390625 33.40625 48.390625 
Q 24.65625 48.390625 19.8125 42.84375 
Q 14.984375 37.3125 14.984375 27.296875 
Q 14.984375 17.28125 19.8125 11.734375 
Q 24.65625 6.203125 33.40625 6.203125 
Q 37.3125 6.203125 41.140625 7.25 
Q 44.96875 8.296875 48.78125 10.40625 
L 48.78125 2.09375 
Q 45.015625 0.34375 40.984375 -0.53125 
Q 36.96875 -1.421875 32.421875 -1.421875 
Q 20.0625 -1.421875 12.78125 6.34375 
Q 5.515625 14.109375 5.515625 27.296875 
Q 5.515625 40.671875 12.859375 48.328125 
Q 20.21875 56 33.015625 56 
Q 37.15625 56 41.109375 55.140625 
Q 45.0625 54.296875 48.78125 52.59375 
z
" id="DejaVuSans-99"/>
       </defs>
       <use xlink:href="#DejaVuSans-71"/>
       <use x="77.490234" xlink:href="#DejaVuSans-97"/>
       <use x="138.769531" xlink:href="#DejaVuSans-114"/>
       <use x="178.132812" xlink:href="#DejaVuSans-100"/>
       <use x="241.609375" xlink:href="#DejaVuSans-101"/>
       <use x="303.132812" xlink:href="#DejaVuSans-110"/>
       <use x="366.511719" xlink:href="#DejaVuSans-32"/>
       <use x="398.298828" xlink:href="#DejaVuSans-68"/>
       <use x="475.300781" xlink:href="#DejaVuSans-105"/>
       <use x="503.083984" xlink:href="#DejaVuSans-115"/>
       <use x="555.183594" xlink:href="#DejaVuSans-116"/>
       <use x="594.392578" xlink:href="#DejaVuSans-114"/>
       <use x="635.505859" xlink:href="#DejaVuSans-105"/>
       <use x="663.289062" xlink:href="#DejaVuSans-99"/>
       <use x="718.269531" xlink:href="#DejaVuSans-116"/>
      </g>
     </g>
    </g>
    <g id="xtick_3">
     <g id="line2d_3">
      <g>
       <use style="stroke:#000000;stroke-width:0.8;" x="298.065625" xlink:href="#m9852020778" y="239.758125"/>
      </g>
     </g>
     <g id="text_3">
      <!-- Niagara -->
      <g transform="translate(278.514063 254.356563)scale(0.1 -0.1)">
       <defs>
        <path d="M 9.8125 72.90625 
L 23.09375 72.90625 
L 55.421875 11.921875 
L 55.421875 72.90625 
L 64.984375 72.90625 
L 64.984375 0 
L 51.703125 0 
L 19.390625 60.984375 
L 19.390625 0 
L 9.8125 0 
z
" id="DejaVuSans-78"/>
        <path d="M 45.40625 27.984375 
Q 45.40625 37.75 41.375 43.109375 
Q 37.359375 48.484375 30.078125 48.484375 
Q 22.859375 48.484375 18.828125 43.109375 
Q 14.796875 37.75 14.796875 27.984375 
Q 14.796875 18.265625 18.828125 12.890625 
Q 22.859375 7.515625 30.078125 7.515625 
Q 37.359375 7.515625 41.375 12.890625 
Q 45.40625 18.265625 45.40625 27.984375 
z
M 54.390625 6.78125 
Q 54.390625 -7.171875 48.1875 -13.984375 
Q 42 -20.796875 29.203125 -20.796875 
Q 24.46875 -20.796875 20.265625 -20.09375 
Q 16.0625 -19.390625 12.109375 -17.921875 
L 12.109375 -9.1875 
Q 16.0625 -11.328125 19.921875 -12.34375 
Q 23.78125 -13.375 27.78125 -13.375 
Q 36.625 -13.375 41.015625 -8.765625 
Q 45.40625 -4.15625 45.40625 5.171875 
L 45.40625 9.625 
Q 42.625 4.78125 38.28125 2.390625 
Q 33.9375 0 27.875 0 
Q 17.828125 0 11.671875 7.65625 
Q 5.515625 15.328125 5.515625 27.984375 
Q 5.515625 40.671875 11.671875 48.328125 
Q 17.828125 56 27.875 56 
Q 33.9375 56 38.28125 53.609375 
Q 42.625 51.21875 45.40625 46.390625 
L 45.40625 54.6875 
L 54.390625 54.6875 
z
" id="DejaVuSans-103"/>
       </defs>
       <use xlink:href="#DejaVuSans-78"/>
       <use x="74.804688" xlink:href="#DejaVuSans-105"/>
       <use x="102.587891" xlink:href="#DejaVuSans-97"/>
       <use x="163.867188" xlink:href="#DejaVuSans-103"/>
       <use x="227.34375" xlink:href="#DejaVuSans-97"/>
       <use x="288.623047" xlink:href="#DejaVuSans-114"/>
       <use x="329.736328" xlink:href="#DejaVuSans-97"/>
      </g>
     </g>
    </g>
    <g id="xtick_4">
     <g id="line2d_4">
      <g>
       <use style="stroke:#000000;stroke-width:0.8;" x="399.52017" xlink:href="#m9852020778" y="239.758125"/>
      </g>
     </g>
     <g id="text_4">
      <!-- Palmerston/Little Italy -->
      <g transform="translate(344.799858 254.356563)scale(0.1 -0.1)">
       <defs>
        <path d="M 19.671875 64.796875 
L 19.671875 37.40625 
L 32.078125 37.40625 
Q 38.96875 37.40625 42.71875 40.96875 
Q 46.484375 44.53125 46.484375 51.125 
Q 46.484375 57.671875 42.71875 61.234375 
Q 38.96875 64.796875 32.078125 64.796875 
z
M 9.8125 72.90625 
L 32.078125 72.90625 
Q 44.34375 72.90625 50.609375 67.359375 
Q 56.890625 61.8125 56.890625 51.125 
Q 56.890625 40.328125 50.609375 34.8125 
Q 44.34375 29.296875 32.078125 29.296875 
L 19.671875 29.296875 
L 19.671875 0 
L 9.8125 0 
z
" id="DejaVuSans-80"/>
        <path d="M 9.421875 75.984375 
L 18.40625 75.984375 
L 18.40625 0 
L 9.421875 0 
z
" id="DejaVuSans-108"/>
        <path d="M 52 44.1875 
Q 55.375 50.25 60.0625 53.125 
Q 64.75 56 71.09375 56 
Q 79.640625 56 84.28125 50.015625 
Q 88.921875 44.046875 88.921875 33.015625 
L 88.921875 0 
L 79.890625 0 
L 79.890625 32.71875 
Q 79.890625 40.578125 77.09375 44.375 
Q 74.3125 48.1875 68.609375 48.1875 
Q 61.625 48.1875 57.5625 43.546875 
Q 53.515625 38.921875 53.515625 30.90625 
L 53.515625 0 
L 44.484375 0 
L 44.484375 32.71875 
Q 44.484375 40.625 41.703125 44.40625 
Q 38.921875 48.1875 33.109375 48.1875 
Q 26.21875 48.1875 22.15625 43.53125 
Q 18.109375 38.875 18.109375 30.90625 
L 18.109375 0 
L 9.078125 0 
L 9.078125 54.6875 
L 18.109375 54.6875 
L 18.109375 46.1875 
Q 21.1875 51.21875 25.484375 53.609375 
Q 29.78125 56 35.6875 56 
Q 41.65625 56 45.828125 52.96875 
Q 50 49.953125 52 44.1875 
z
" id="DejaVuSans-109"/>
        <path d="M 25.390625 72.90625 
L 33.6875 72.90625 
L 8.296875 -9.28125 
L 0 -9.28125 
z
" id="DejaVuSans-47"/>
        <path d="M 9.8125 72.90625 
L 19.671875 72.90625 
L 19.671875 8.296875 
L 55.171875 8.296875 
L 55.171875 0 
L 9.8125 0 
z
" id="DejaVuSans-76"/>
        <path d="M 9.8125 72.90625 
L 19.671875 72.90625 
L 19.671875 0 
L 9.8125 0 
z
" id="DejaVuSans-73"/>
        <path d="M 32.171875 -5.078125 
Q 28.375 -14.84375 24.75 -17.8125 
Q 21.140625 -20.796875 15.09375 -20.796875 
L 7.90625 -20.796875 
L 7.90625 -13.28125 
L 13.1875 -13.28125 
Q 16.890625 -13.28125 18.9375 -11.515625 
Q 21 -9.765625 23.484375 -3.21875 
L 25.09375 0.875 
L 2.984375 54.6875 
L 12.5 54.6875 
L 29.59375 11.921875 
L 46.6875 54.6875 
L 56.203125 54.6875 
z
" id="DejaVuSans-121"/>
       </defs>
       <use xlink:href="#DejaVuSans-80"/>
       <use x="55.802734" xlink:href="#DejaVuSans-97"/>
       <use x="117.082031" xlink:href="#DejaVuSans-108"/>
       <use x="144.865234" xlink:href="#DejaVuSans-109"/>
       <use x="242.277344" xlink:href="#DejaVuSans-101"/>
       <use x="303.800781" xlink:href="#DejaVuSans-114"/>
       <use x="344.914062" xlink:href="#DejaVuSans-115"/>
       <use x="397.013672" xlink:href="#DejaVuSans-116"/>
       <use x="436.222656" xlink:href="#DejaVuSans-111"/>
       <use x="497.404297" xlink:href="#DejaVuSans-110"/>
       <use x="560.783203" xlink:href="#DejaVuSans-47"/>
       <use x="594.474609" xlink:href="#DejaVuSans-76"/>
       <use x="650.1875" xlink:href="#DejaVuSans-105"/>
       <use x="677.970703" xlink:href="#DejaVuSans-116"/>
       <use x="717.179688" xlink:href="#DejaVuSans-116"/>
       <use x="756.388672" xlink:href="#DejaVuSans-108"/>
       <use x="784.171875" xlink:href="#DejaVuSans-101"/>
       <use x="845.695312" xlink:href="#DejaVuSans-32"/>
       <use x="877.482422" xlink:href="#DejaVuSans-73"/>
       <use x="906.974609" xlink:href="#DejaVuSans-116"/>
       <use x="946.183594" xlink:href="#DejaVuSans-97"/>
       <use x="1007.462891" xlink:href="#DejaVuSans-108"/>
       <use x="1035.246094" xlink:href="#DejaVuSans-121"/>
      </g>
     </g>
    </g>
    <g id="xtick_5">
     <g id="line2d_5">
      <g>
       <use style="stroke:#000000;stroke-width:0.8;" x="500.974716" xlink:href="#m9852020778" y="239.758125"/>
      </g>
     </g>
     <g id="text_5">
      <!-- Harbourfront -->
      <g transform="translate(468.74581 254.356563)scale(0.1 -0.1)">
       <defs>
        <path d="M 9.8125 72.90625 
L 19.671875 72.90625 
L 19.671875 43.015625 
L 55.515625 43.015625 
L 55.515625 72.90625 
L 65.375 72.90625 
L 65.375 0 
L 55.515625 0 
L 55.515625 34.71875 
L 19.671875 34.71875 
L 19.671875 0 
L 9.8125 0 
z
" id="DejaVuSans-72"/>
        <path d="M 48.6875 27.296875 
Q 48.6875 37.203125 44.609375 42.84375 
Q 40.53125 48.484375 33.40625 48.484375 
Q 26.265625 48.484375 22.1875 42.84375 
Q 18.109375 37.203125 18.109375 27.296875 
Q 18.109375 17.390625 22.1875 11.75 
Q 26.265625 6.109375 33.40625 6.109375 
Q 40.53125 6.109375 44.609375 11.75 
Q 48.6875 17.390625 48.6875 27.296875 
z
M 18.109375 46.390625 
Q 20.953125 51.265625 25.265625 53.625 
Q 29.59375 56 35.59375 56 
Q 45.5625 56 51.78125 48.09375 
Q 58.015625 40.1875 58.015625 27.296875 
Q 58.015625 14.40625 51.78125 6.484375 
Q 45.5625 -1.421875 35.59375 -1.421875 
Q 29.59375 -1.421875 25.265625 0.953125 
Q 20.953125 3.328125 18.109375 8.203125 
L 18.109375 0 
L 9.078125 0 
L 9.078125 75.984375 
L 18.109375 75.984375 
z
" id="DejaVuSans-98"/>
        <path d="M 8.5 21.578125 
L 8.5 54.6875 
L 17.484375 54.6875 
L 17.484375 21.921875 
Q 17.484375 14.15625 20.5 10.265625 
Q 23.53125 6.390625 29.59375 6.390625 
Q 36.859375 6.390625 41.078125 11.03125 
Q 45.3125 15.671875 45.3125 23.6875 
L 45.3125 54.6875 
L 54.296875 54.6875 
L 54.296875 0 
L 45.3125 0 
L 45.3125 8.40625 
Q 42.046875 3.421875 37.71875 1 
Q 33.40625 -1.421875 27.6875 -1.421875 
Q 18.265625 -1.421875 13.375 4.4375 
Q 8.5 10.296875 8.5 21.578125 
z
M 31.109375 56 
z
" id="DejaVuSans-117"/>
        <path d="M 37.109375 75.984375 
L 37.109375 68.5 
L 28.515625 68.5 
Q 23.6875 68.5 21.796875 66.546875 
Q 19.921875 64.59375 19.921875 59.515625 
L 19.921875 54.6875 
L 34.71875 54.6875 
L 34.71875 47.703125 
L 19.921875 47.703125 
L 19.921875 0 
L 10.890625 0 
L 10.890625 47.703125 
L 2.296875 47.703125 
L 2.296875 54.6875 
L 10.890625 54.6875 
L 10.890625 58.5 
Q 10.890625 67.625 15.140625 71.796875 
Q 19.390625 75.984375 28.609375 75.984375 
z
" id="DejaVuSans-102"/>
       </defs>
       <use xlink:href="#DejaVuSans-72"/>
       <use x="75.195312" xlink:href="#DejaVuSans-97"/>
       <use x="136.474609" xlink:href="#DejaVuSans-114"/>
       <use x="177.587891" xlink:href="#DejaVuSans-98"/>
       <use x="241.064453" xlink:href="#DejaVuSans-111"/>
       <use x="302.246094" xlink:href="#DejaVuSans-117"/>
       <use x="365.625" xlink:href="#DejaVuSans-114"/>
       <use x="406.738281" xlink:href="#DejaVuSans-102"/>
       <use x="441.943359" xlink:href="#DejaVuSans-114"/>
       <use x="480.806641" xlink:href="#DejaVuSans-111"/>
       <use x="541.988281" xlink:href="#DejaVuSans-110"/>
       <use x="605.367188" xlink:href="#DejaVuSans-116"/>
      </g>
     </g>
    </g>
   </g>
   <g id="matplotlib.axis_2">
    <g id="ytick_1">
     <g id="line2d_6">
      <defs>
       <path d="M 0 0 
L -3.5 0 
" id="meb733ca5df" style="stroke:#000000;stroke-width:0.8;"/>
      </defs>
      <g>
       <use style="stroke:#000000;stroke-width:0.8;" x="46.965625" xlink:href="#meb733ca5df" y="215.975625"/>
      </g>
     </g>
     <g id="text_6">
      <!-- 20 -->
      <g transform="translate(27.240625 219.774844)scale(0.1 -0.1)">
       <defs>
        <path d="M 19.1875 8.296875 
L 53.609375 8.296875 
L 53.609375 0 
L 7.328125 0 
L 7.328125 8.296875 
Q 12.9375 14.109375 22.625 23.890625 
Q 32.328125 33.6875 34.8125 36.53125 
Q 39.546875 41.84375 41.421875 45.53125 
Q 43.3125 49.21875 43.3125 52.78125 
Q 43.3125 58.59375 39.234375 62.25 
Q 35.15625 65.921875 28.609375 65.921875 
Q 23.96875 65.921875 18.8125 64.3125 
Q 13.671875 62.703125 7.8125 59.421875 
L 7.8125 69.390625 
Q 13.765625 71.78125 18.9375 73 
Q 24.125 74.21875 28.421875 74.21875 
Q 39.75 74.21875 46.484375 68.546875 
Q 53.21875 62.890625 53.21875 53.421875 
Q 53.21875 48.921875 51.53125 44.890625 
Q 49.859375 40.875 45.40625 35.40625 
Q 44.1875 33.984375 37.640625 27.21875 
Q 31.109375 20.453125 19.1875 8.296875 
z
" id="DejaVuSans-50"/>
        <path d="M 31.78125 66.40625 
Q 24.171875 66.40625 20.328125 58.90625 
Q 16.5 51.421875 16.5 36.375 
Q 16.5 21.390625 20.328125 13.890625 
Q 24.171875 6.390625 31.78125 6.390625 
Q 39.453125 6.390625 43.28125 13.890625 
Q 47.125 21.390625 47.125 36.375 
Q 47.125 51.421875 43.28125 58.90625 
Q 39.453125 66.40625 31.78125 66.40625 
z
M 31.78125 74.21875 
Q 44.046875 74.21875 50.515625 64.515625 
Q 56.984375 54.828125 56.984375 36.375 
Q 56.984375 17.96875 50.515625 8.265625 
Q 44.046875 -1.421875 31.78125 -1.421875 
Q 19.53125 -1.421875 13.0625 8.265625 
Q 6.59375 17.96875 6.59375 36.375 
Q 6.59375 54.828125 13.0625 64.515625 
Q 19.53125 74.21875 31.78125 74.21875 
z
" id="DejaVuSans-48"/>
       </defs>
       <use xlink:href="#DejaVuSans-50"/>
       <use x="63.623047" xlink:href="#DejaVuSans-48"/>
      </g>
     </g>
    </g>
    <g id="ytick_2">
     <g id="line2d_7">
      <g>
       <use style="stroke:#000000;stroke-width:0.8;" x="46.965625" xlink:href="#meb733ca5df" y="185.089261"/>
      </g>
     </g>
     <g id="text_7">
      <!-- 40 -->
      <g transform="translate(27.240625 188.88848)scale(0.1 -0.1)">
       <defs>
        <path d="M 37.796875 64.3125 
L 12.890625 25.390625 
L 37.796875 25.390625 
z
M 35.203125 72.90625 
L 47.609375 72.90625 
L 47.609375 25.390625 
L 58.015625 25.390625 
L 58.015625 17.1875 
L 47.609375 17.1875 
L 47.609375 0 
L 37.796875 0 
L 37.796875 17.1875 
L 4.890625 17.1875 
L 4.890625 26.703125 
z
" id="DejaVuSans-52"/>
       </defs>
       <use xlink:href="#DejaVuSans-52"/>
       <use x="63.623047" xlink:href="#DejaVuSans-48"/>
      </g>
     </g>
    </g>
    <g id="ytick_3">
     <g id="line2d_8">
      <g>
       <use style="stroke:#000000;stroke-width:0.8;" x="46.965625" xlink:href="#meb733ca5df" y="154.202898"/>
      </g>
     </g>
     <g id="text_8">
      <!-- 60 -->
      <g transform="translate(27.240625 158.002116)scale(0.1 -0.1)">
       <defs>
        <path d="M 33.015625 40.375 
Q 26.375 40.375 22.484375 35.828125 
Q 18.609375 31.296875 18.609375 23.390625 
Q 18.609375 15.53125 22.484375 10.953125 
Q 26.375 6.390625 33.015625 6.390625 
Q 39.65625 6.390625 43.53125 10.953125 
Q 47.40625 15.53125 47.40625 23.390625 
Q 47.40625 31.296875 43.53125 35.828125 
Q 39.65625 40.375 33.015625 40.375 
z
M 52.59375 71.296875 
L 52.59375 62.3125 
Q 48.875 64.0625 45.09375 64.984375 
Q 41.3125 65.921875 37.59375 65.921875 
Q 27.828125 65.921875 22.671875 59.328125 
Q 17.53125 52.734375 16.796875 39.40625 
Q 19.671875 43.65625 24.015625 45.921875 
Q 28.375 48.1875 33.59375 48.1875 
Q 44.578125 48.1875 50.953125 41.515625 
Q 57.328125 34.859375 57.328125 23.390625 
Q 57.328125 12.15625 50.6875 5.359375 
Q 44.046875 -1.421875 33.015625 -1.421875 
Q 20.359375 -1.421875 13.671875 8.265625 
Q 6.984375 17.96875 6.984375 36.375 
Q 6.984375 53.65625 15.1875 63.9375 
Q 23.390625 74.21875 37.203125 74.21875 
Q 40.921875 74.21875 44.703125 73.484375 
Q 48.484375 72.75 52.59375 71.296875 
z
" id="DejaVuSans-54"/>
       </defs>
       <use xlink:href="#DejaVuSans-54"/>
       <use x="63.623047" xlink:href="#DejaVuSans-48"/>
      </g>
     </g>
    </g>
    <g id="ytick_4">
     <g id="line2d_9">
      <g>
       <use style="stroke:#000000;stroke-width:0.8;" x="46.965625" xlink:href="#meb733ca5df" y="123.316534"/>
      </g>
     </g>
     <g id="text_9">
      <!-- 80 -->
      <g transform="translate(27.240625 127.115753)scale(0.1 -0.1)">
       <defs>
        <path d="M 31.78125 34.625 
Q 24.75 34.625 20.71875 30.859375 
Q 16.703125 27.09375 16.703125 20.515625 
Q 16.703125 13.921875 20.71875 10.15625 
Q 24.75 6.390625 31.78125 6.390625 
Q 38.8125 6.390625 42.859375 10.171875 
Q 46.921875 13.96875 46.921875 20.515625 
Q 46.921875 27.09375 42.890625 30.859375 
Q 38.875 34.625 31.78125 34.625 
z
M 21.921875 38.8125 
Q 15.578125 40.375 12.03125 44.71875 
Q 8.5 49.078125 8.5 55.328125 
Q 8.5 64.0625 14.71875 69.140625 
Q 20.953125 74.21875 31.78125 74.21875 
Q 42.671875 74.21875 48.875 69.140625 
Q 55.078125 64.0625 55.078125 55.328125 
Q 55.078125 49.078125 51.53125 44.71875 
Q 48 40.375 41.703125 38.8125 
Q 48.828125 37.15625 52.796875 32.3125 
Q 56.78125 27.484375 56.78125 20.515625 
Q 56.78125 9.90625 50.3125 4.234375 
Q 43.84375 -1.421875 31.78125 -1.421875 
Q 19.734375 -1.421875 13.25 4.234375 
Q 6.78125 9.90625 6.78125 20.515625 
Q 6.78125 27.484375 10.78125 32.3125 
Q 14.796875 37.15625 21.921875 38.8125 
z
M 18.3125 54.390625 
Q 18.3125 48.734375 21.84375 45.5625 
Q 25.390625 42.390625 31.78125 42.390625 
Q 38.140625 42.390625 41.71875 45.5625 
Q 45.3125 48.734375 45.3125 54.390625 
Q 45.3125 60.0625 41.71875 63.234375 
Q 38.140625 66.40625 31.78125 66.40625 
Q 25.390625 66.40625 21.84375 63.234375 
Q 18.3125 60.0625 18.3125 54.390625 
z
" id="DejaVuSans-56"/>
       </defs>
       <use xlink:href="#DejaVuSans-56"/>
       <use x="63.623047" xlink:href="#DejaVuSans-48"/>
      </g>
     </g>
    </g>
    <g id="ytick_5">
     <g id="line2d_10">
      <g>
       <use style="stroke:#000000;stroke-width:0.8;" x="46.965625" xlink:href="#meb733ca5df" y="92.43017"/>
      </g>
     </g>
     <g id="text_10">
      <!-- 100 -->
      <g transform="translate(20.878125 96.229389)scale(0.1 -0.1)">
       <defs>
        <path d="M 12.40625 8.296875 
L 28.515625 8.296875 
L 28.515625 63.921875 
L 10.984375 60.40625 
L 10.984375 69.390625 
L 28.421875 72.90625 
L 38.28125 72.90625 
L 38.28125 8.296875 
L 54.390625 8.296875 
L 54.390625 0 
L 12.40625 0 
z
" id="DejaVuSans-49"/>
       </defs>
       <use xlink:href="#DejaVuSans-49"/>
       <use x="63.623047" xlink:href="#DejaVuSans-48"/>
       <use x="127.246094" xlink:href="#DejaVuSans-48"/>
      </g>
     </g>
    </g>
    <g id="ytick_6">
     <g id="line2d_11">
      <g>
       <use style="stroke:#000000;stroke-width:0.8;" x="46.965625" xlink:href="#meb733ca5df" y="61.543807"/>
      </g>
     </g>
     <g id="text_11">
      <!-- 120 -->
      <g transform="translate(20.878125 65.343026)scale(0.1 -0.1)">
       <use xlink:href="#DejaVuSans-49"/>
       <use x="63.623047" xlink:href="#DejaVuSans-50"/>
       <use x="127.246094" xlink:href="#DejaVuSans-48"/>
      </g>
     </g>
    </g>
    <g id="ytick_7">
     <g id="line2d_12">
      <g>
       <use style="stroke:#000000;stroke-width:0.8;" x="46.965625" xlink:href="#meb733ca5df" y="30.657443"/>
      </g>
     </g>
     <g id="text_12">
      <!-- 140 -->
      <g transform="translate(20.878125 34.456662)scale(0.1 -0.1)">
       <use xlink:href="#DejaVuSans-49"/>
       <use x="63.623047" xlink:href="#DejaVuSans-52"/>
       <use x="127.246094" xlink:href="#DejaVuSans-48"/>
      </g>
     </g>
    </g>
    <g id="text_13">
     <!-- Price rate -->
     <g transform="translate(14.798437 154.981094)rotate(-90)scale(0.1 -0.1)">
      <use xlink:href="#DejaVuSans-80"/>
      <use x="58.552734" xlink:href="#DejaVuSans-114"/>
      <use x="99.666016" xlink:href="#DejaVuSans-105"/>
      <use x="127.449219" xlink:href="#DejaVuSans-99"/>
      <use x="182.429688" xlink:href="#DejaVuSans-101"/>
      <use x="243.953125" xlink:href="#DejaVuSans-32"/>
      <use x="275.740234" xlink:href="#DejaVuSans-114"/>
      <use x="316.853516" xlink:href="#DejaVuSans-97"/>
      <use x="378.132812" xlink:href="#DejaVuSans-116"/>
      <use x="417.341797" xlink:href="#DejaVuSans-101"/>
     </g>
    </g>
   </g>
   <g id="LineCollection_1">
    <path clip-path="url(#pf21fe6fe39)" d="M 82.474716 32.201761 
L 107.838352 32.201761 
" style="fill:none;stroke:#1f77b4;stroke-width:1.5;"/>
    <path clip-path="url(#pf21fe6fe39)" d="M 183.929261 131.038125 
L 209.292898 131.038125 
" style="fill:none;stroke:#1f77b4;stroke-width:1.5;"/>
    <path clip-path="url(#pf21fe6fe39)" d="M 285.383807 115.594943 
L 310.747443 115.594943 
" style="fill:none;stroke:#1f77b4;stroke-width:1.5;"/>
    <path clip-path="url(#pf21fe6fe39)" d="M 386.838352 160.38017 
L 412.201989 160.38017 
" style="fill:none;stroke:#1f77b4;stroke-width:1.5;"/>
    <path clip-path="url(#pf21fe6fe39)" d="M 488.292898 46.100625 
L 513.656534 46.100625 
" style="fill:none;stroke:#1f77b4;stroke-width:1.5;"/>
   </g>
   <g id="LineCollection_2">
    <path clip-path="url(#pf21fe6fe39)" d="M 82.474716 217.519943 
L 107.838352 217.519943 
" style="fill:none;stroke:#1f77b4;stroke-width:1.5;"/>
    <path clip-path="url(#pf21fe6fe39)" d="M 183.929261 229.874489 
L 209.292898 229.874489 
" style="fill:none;stroke:#1f77b4;stroke-width:1.5;"/>
    <path clip-path="url(#pf21fe6fe39)" d="M 285.383807 177.36767 
L 310.747443 177.36767 
" style="fill:none;stroke:#1f77b4;stroke-width:1.5;"/>
    <path clip-path="url(#pf21fe6fe39)" d="M 386.838352 209.798352 
L 412.201989 209.798352 
" style="fill:none;stroke:#1f77b4;stroke-width:1.5;"/>
    <path clip-path="url(#pf21fe6fe39)" d="M 488.292898 178.911989 
L 513.656534 178.911989 
" style="fill:none;stroke:#1f77b4;stroke-width:1.5;"/>
   </g>
   <g id="LineCollection_3">
    <path clip-path="url(#pf21fe6fe39)" d="M 95.156534 217.519943 
L 95.156534 32.201761 
" style="fill:none;stroke:#1f77b4;stroke-width:1.5;"/>
    <path clip-path="url(#pf21fe6fe39)" d="M 196.61108 229.874489 
L 196.61108 131.038125 
" style="fill:none;stroke:#1f77b4;stroke-width:1.5;"/>
    <path clip-path="url(#pf21fe6fe39)" d="M 298.065625 177.36767 
L 298.065625 115.594943 
" style="fill:none;stroke:#1f77b4;stroke-width:1.5;"/>
    <path clip-path="url(#pf21fe6fe39)" d="M 399.52017 209.798352 
L 399.52017 160.38017 
" style="fill:none;stroke:#1f77b4;stroke-width:1.5;"/>
    <path clip-path="url(#pf21fe6fe39)" d="M 500.974716 178.911989 
L 500.974716 46.100625 
" style="fill:none;stroke:#1f77b4;stroke-width:1.5;"/>
   </g>
   <g id="patch_3">
    <path d="M 46.965625 239.758125 
L 46.965625 22.318125 
" style="fill:none;stroke:#000000;stroke-linecap:square;stroke-linejoin:miter;stroke-width:0.8;"/>
   </g>
   <g id="patch_4">
    <path d="M 549.165625 239.758125 
L 549.165625 22.318125 
" style="fill:none;stroke:#000000;stroke-linecap:square;stroke-linejoin:miter;stroke-width:0.8;"/>
   </g>
   <g id="patch_5">
    <path d="M 46.965625 239.758125 
L 549.165625 239.758125 
" style="fill:none;stroke:#000000;stroke-linecap:square;stroke-linejoin:miter;stroke-width:0.8;"/>
   </g>
   <g id="patch_6">
    <path d="M 46.965625 22.318125 
L 549.165625 22.318125 
" style="fill:none;stroke:#000000;stroke-linecap:square;stroke-linejoin:miter;stroke-width:0.8;"/>
   </g>
   <g id="text_14">
    <!-- Density and distribution of prices for each neighborhood -->
    <g transform="translate(128.295625 16.318125)scale(0.12 -0.12)">
     <defs>
      <path d="M 18.109375 8.203125 
L 18.109375 -20.796875 
L 9.078125 -20.796875 
L 9.078125 54.6875 
L 18.109375 54.6875 
L 18.109375 46.390625 
Q 20.953125 51.265625 25.265625 53.625 
Q 29.59375 56 35.59375 56 
Q 45.5625 56 51.78125 48.09375 
Q 58.015625 40.1875 58.015625 27.296875 
Q 58.015625 14.40625 51.78125 6.484375 
Q 45.5625 -1.421875 35.59375 -1.421875 
Q 29.59375 -1.421875 25.265625 0.953125 
Q 20.953125 3.328125 18.109375 8.203125 
z
M 48.6875 27.296875 
Q 48.6875 37.203125 44.609375 42.84375 
Q 40.53125 48.484375 33.40625 48.484375 
Q 26.265625 48.484375 22.1875 42.84375 
Q 18.109375 37.203125 18.109375 27.296875 
Q 18.109375 17.390625 22.1875 11.75 
Q 26.265625 6.109375 33.40625 6.109375 
Q 40.53125 6.109375 44.609375 11.75 
Q 48.6875 17.390625 48.6875 27.296875 
z
" id="DejaVuSans-112"/>
      <path d="M 54.890625 33.015625 
L 54.890625 0 
L 45.90625 0 
L 45.90625 32.71875 
Q 45.90625 40.484375 42.875 44.328125 
Q 39.84375 48.1875 33.796875 48.1875 
Q 26.515625 48.1875 22.3125 43.546875 
Q 18.109375 38.921875 18.109375 30.90625 
L 18.109375 0 
L 9.078125 0 
L 9.078125 75.984375 
L 18.109375 75.984375 
L 18.109375 46.1875 
Q 21.34375 51.125 25.703125 53.5625 
Q 30.078125 56 35.796875 56 
Q 45.21875 56 50.046875 50.171875 
Q 54.890625 44.34375 54.890625 33.015625 
z
" id="DejaVuSans-104"/>
     </defs>
     <use xlink:href="#DejaVuSans-68"/>
     <use x="77.001953" xlink:href="#DejaVuSans-101"/>
     <use x="138.525391" xlink:href="#DejaVuSans-110"/>
     <use x="201.904297" xlink:href="#DejaVuSans-115"/>
     <use x="254.003906" xlink:href="#DejaVuSans-105"/>
     <use x="281.787109" xlink:href="#DejaVuSans-116"/>
     <use x="320.996094" xlink:href="#DejaVuSans-121"/>
     <use x="380.175781" xlink:href="#DejaVuSans-32"/>
     <use x="411.962891" xlink:href="#DejaVuSans-97"/>
     <use x="473.242188" xlink:href="#DejaVuSans-110"/>
     <use x="536.621094" xlink:href="#DejaVuSans-100"/>
     <use x="600.097656" xlink:href="#DejaVuSans-32"/>
     <use x="631.884766" xlink:href="#DejaVuSans-100"/>
     <use x="695.361328" xlink:href="#DejaVuSans-105"/>
     <use x="723.144531" xlink:href="#DejaVuSans-115"/>
     <use x="775.244141" xlink:href="#DejaVuSans-116"/>
     <use x="814.453125" xlink:href="#DejaVuSans-114"/>
     <use x="855.566406" xlink:href="#DejaVuSans-105"/>
     <use x="883.349609" xlink:href="#DejaVuSans-98"/>
     <use x="946.826172" xlink:href="#DejaVuSans-117"/>
     <use x="1010.205078" xlink:href="#DejaVuSans-116"/>
     <use x="1049.414062" xlink:href="#DejaVuSans-105"/>
     <use x="1077.197266" xlink:href="#DejaVuSans-111"/>
     <use x="1138.378906" xlink:href="#DejaVuSans-110"/>
     <use x="1201.757812" xlink:href="#DejaVuSans-32"/>
     <use x="1233.544922" xlink:href="#DejaVuSans-111"/>
     <use x="1294.726562" xlink:href="#DejaVuSans-102"/>
     <use x="1329.931641" xlink:href="#DejaVuSans-32"/>
     <use x="1361.71875" xlink:href="#DejaVuSans-112"/>
     <use x="1425.195312" xlink:href="#DejaVuSans-114"/>
     <use x="1466.308594" xlink:href="#DejaVuSans-105"/>
     <use x="1494.091797" xlink:href="#DejaVuSans-99"/>
     <use x="1549.072266" xlink:href="#DejaVuSans-101"/>
     <use x="1610.595703" xlink:href="#DejaVuSans-115"/>
     <use x="1662.695312" xlink:href="#DejaVuSans-32"/>
     <use x="1694.482422" xlink:href="#DejaVuSans-102"/>
     <use x="1729.6875" xlink:href="#DejaVuSans-111"/>
     <use x="1790.869141" xlink:href="#DejaVuSans-114"/>
     <use x="1831.982422" xlink:href="#DejaVuSans-32"/>
     <use x="1863.769531" xlink:href="#DejaVuSans-101"/>
     <use x="1925.292969" xlink:href="#DejaVuSans-97"/>
     <use x="1986.572266" xlink:href="#DejaVuSans-99"/>
     <use x="2041.552734" xlink:href="#DejaVuSans-104"/>
     <use x="2104.931641" xlink:href="#DejaVuSans-32"/>
     <use x="2136.71875" xlink:href="#DejaVuSans-110"/>
     <use x="2200.097656" xlink:href="#DejaVuSans-101"/>
     <use x="2261.621094" xlink:href="#DejaVuSans-105"/>
     <use x="2289.404297" xlink:href="#DejaVuSans-103"/>
     <use x="2352.880859" xlink:href="#DejaVuSans-104"/>
     <use x="2416.259766" xlink:href="#DejaVuSans-98"/>
     <use x="2479.736328" xlink:href="#DejaVuSans-111"/>
     <use x="2540.917969" xlink:href="#DejaVuSans-114"/>
     <use x="2580.28125" xlink:href="#DejaVuSans-104"/>
     <use x="2643.660156" xlink:href="#DejaVuSans-111"/>
     <use x="2704.841797" xlink:href="#DejaVuSans-111"/>
     <use x="2766.023438" xlink:href="#DejaVuSans-100"/>
    </g>
   </g>
  </g>
 </g>
 <defs>
  <clipPath id="pf21fe6fe39">
   <rect height="217.44" width="502.2" x="46.965625" y="22.318125"/>
  </clipPath>
 </defs>
</svg>
