<?xml version="1.0" encoding="utf-8" standalone="no"?>
<!DOCTYPE svg PUBLIC "-//W3C//DTD SVG 1.1//EN"
  "http://www.w3.org/Graphics/SVG/1.1/DTD/svg11.dtd">
<!-- Created with matplotlib (https://matplotlib.org/) -->
<svg height="263.63625pt" version="1.1" viewBox="0 0 567.923438 263.63625" width="567.923438pt" xmlns="http://www.w3.org/2000/svg" xmlns:xlink="http://www.w3.org/1999/xlink">
 <metadata>
  <rdf:RDF xmlns:cc="http://creativecommons.org/ns#" xmlns:dc="http://purl.org/dc/elements/1.1/" xmlns:rdf="http://www.w3.org/1999/02/22-rdf-syntax-ns#">
   <cc:Work>
    <dc:type rdf:resource="http://purl.org/dc/dcmitype/StillImage"/>
    <dc:date>2020-09-25T11:15:30.319078</dc:date>
    <dc:format>image/svg+xml</dc:format>
    <dc:creator>
     <cc:Agent>
      <dc:title>Matplotlib v3.3.0, https://matplotlib.org/</dc:title>
     </cc:Agent>
    </dc:creator>
   </cc:Work>
  </rdf:RDF>
 </metadata>
 <defs>
  <style type="text/css">*{stroke-linecap:butt;stroke-linejoin:round;}</style>
 </defs>
 <g id="figure_1">
  <g id="patch_1">
   <path d="M 0 263.63625 
L 567.923438 263.63625 
L 567.923438 0 
L 0 0 
z
" style="fill:none;"/>
  </g>
  <g id="axes_1">
   <g id="patch_2">
    <path d="M 58.523438 239.758125 
L 560.723438 239.758125 
L 560.723438 22.318125 
L 58.523438 22.318125 
z
" style="fill:#ffffff;"/>
   </g>
   <g id="PolyCollection_1">
    <path clip-path="url(#pcac8e9a101)" d="M 113.479984 185.041499 
L 99.948709 185.041499 
L 99.709112 184.146074 
L 99.474062 183.250649 
L 99.243883 182.355225 
L 99.018796 181.4598 
L 98.798917 180.564375 
L 98.584248 179.668951 
L 98.374681 178.773526 
L 98.169996 177.878101 
L 97.969862 176.982676 
L 97.773839 176.087252 
L 97.581381 175.191827 
L 97.391841 174.296402 
L 97.204474 173.400978 
L 97.018444 172.505553 
L 96.83283 171.610128 
L 96.64663 170.714703 
L 96.458774 169.819279 
L 96.268124 168.923854 
L 96.073491 168.028429 
L 95.87364 167.133004 
L 95.667302 166.23758 
L 95.453182 165.342155 
L 95.22998 164.44673 
L 94.996398 163.551306 
L 94.75116 162.655881 
L 94.493028 161.760456 
L 94.220822 160.865031 
L 93.933441 159.969607 
L 93.629885 159.074182 
L 93.309282 158.178757 
L 92.970908 157.283332 
L 92.614217 156.387908 
L 92.238868 155.492483 
L 91.844746 154.597058 
L 91.431992 153.701634 
L 91.001025 152.806209 
L 90.552563 151.910784 
L 90.087641 151.015359 
L 89.607624 150.119935 
L 89.11422 149.22451 
L 88.609479 148.329085 
L 88.095794 147.43366 
L 87.57589 146.538236 
L 87.05281 145.642811 
L 86.52989 144.747386 
L 86.010731 143.851962 
L 85.499156 142.956537 
L 84.999173 142.061112 
L 84.514919 141.165687 
L 84.050604 140.270263 
L 83.610455 139.374838 
L 83.198649 138.479413 
L 82.81925 137.583989 
L 82.47614 136.688564 
L 82.172958 135.793139 
L 81.913036 134.897714 
L 81.699343 134.00229 
L 81.534428 133.106865 
L 81.42038 132.21144 
L 81.358788 131.316015 
L 81.35071 130.420591 
L 81.39666 129.525166 
L 81.496594 128.629741 
L 81.649913 127.734317 
L 81.855478 126.838892 
L 82.111631 125.943467 
L 82.416227 125.048042 
L 82.766673 124.152618 
L 83.159982 123.257193 
L 83.592823 122.361768 
L 84.061581 121.466343 
L 84.562427 120.570919 
L 85.091378 119.675494 
L 85.644364 118.780069 
L 86.217295 117.884645 
L 86.806125 116.98922 
L 87.40691 116.093795 
L 88.015858 115.19837 
L 88.629384 114.302946 
L 89.244148 113.407521 
L 89.857088 112.512096 
L 90.465444 111.616671 
L 91.066782 110.721247 
L 91.658999 109.825822 
L 92.240324 108.930397 
L 92.80932 108.034973 
L 93.364865 107.139548 
L 93.906136 106.244123 
L 94.432593 105.348698 
L 94.943942 104.453274 
L 95.440116 103.557849 
L 95.921233 102.662424 
L 96.387574 101.766999 
L 96.83954 100.871575 
L 97.277626 99.97615 
L 97.702389 99.080725 
L 98.114417 98.185301 
L 98.514305 97.289876 
L 98.902632 96.394451 
L 114.526061 96.394451 
L 114.526061 96.394451 
L 114.914388 97.289876 
L 115.314276 98.185301 
L 115.726304 99.080725 
L 116.151067 99.97615 
L 116.589153 100.871575 
L 117.041119 101.766999 
L 117.50746 102.662424 
L 117.988578 103.557849 
L 118.484751 104.453274 
L 118.9961 105.348698 
L 119.522557 106.244123 
L 120.063829 107.139548 
L 120.619373 108.034973 
L 121.188369 108.930397 
L 121.769695 109.825822 
L 122.361911 110.721247 
L 122.963249 111.616671 
L 123.571605 112.512096 
L 124.184545 113.407521 
L 124.799309 114.302946 
L 125.412835 115.19837 
L 126.021784 116.093795 
L 126.622568 116.98922 
L 127.211398 117.884645 
L 127.78433 118.780069 
L 128.337315 119.675494 
L 128.866266 120.570919 
L 129.367112 121.466343 
L 129.835871 122.361768 
L 130.268711 123.257193 
L 130.66202 124.152618 
L 131.012466 125.048042 
L 131.317062 125.943467 
L 131.573215 126.838892 
L 131.77878 127.734317 
L 131.9321 128.629741 
L 132.032033 129.525166 
L 132.077983 130.420591 
L 132.069906 131.316015 
L 132.008313 132.21144 
L 131.894265 133.106865 
L 131.729351 134.00229 
L 131.515657 134.897714 
L 131.255735 135.793139 
L 130.952553 136.688564 
L 130.609443 137.583989 
L 130.230044 138.479413 
L 129.818238 139.374838 
L 129.378089 140.270263 
L 128.913775 141.165687 
L 128.42952 142.061112 
L 127.929537 142.956537 
L 127.417962 143.851962 
L 126.898803 144.747386 
L 126.375883 145.642811 
L 125.852803 146.538236 
L 125.332899 147.43366 
L 124.819214 148.329085 
L 124.314473 149.22451 
L 123.821069 150.119935 
L 123.341052 151.015359 
L 122.87613 151.910784 
L 122.427668 152.806209 
L 121.996702 153.701634 
L 121.583948 154.597058 
L 121.189826 155.492483 
L 120.814476 156.387908 
L 120.457786 157.283332 
L 120.119412 158.178757 
L 119.798808 159.074182 
L 119.495253 159.969607 
L 119.207871 160.865031 
L 118.935665 161.760456 
L 118.677533 162.655881 
L 118.432295 163.551306 
L 118.198713 164.44673 
L 117.975511 165.342155 
L 117.761392 166.23758 
L 117.555053 167.133004 
L 117.355202 168.028429 
L 117.160569 168.923854 
L 116.96992 169.819279 
L 116.782063 170.714703 
L 116.595863 171.610128 
L 116.410249 172.505553 
L 116.224219 173.400978 
L 116.036852 174.296402 
L 115.847312 175.191827 
L 115.654854 176.087252 
L 115.458831 176.982676 
L 115.258697 177.878101 
L 115.054012 178.773526 
L 114.844445 179.668951 
L 114.629776 180.564375 
L 114.409897 181.4598 
L 114.184811 182.355225 
L 113.954632 183.250649 
L 113.719581 184.146074 
L 113.479984 185.041499 
z
" style="fill:#1f77b4;fill-opacity:0.3;"/>
   </g>
   <g id="PolyCollection_2">
    <path clip-path="url(#pcac8e9a101)" d="M 210.991201 210.514789 
L 205.346583 210.514789 
L 205.351112 209.022414 
L 205.370358 207.530039 
L 205.403664 206.037665 
L 205.450058 204.54529 
L 205.508267 203.052916 
L 205.576727 201.560541 
L 205.653602 200.068167 
L 205.736801 198.575792 
L 205.824008 197.083418 
L 205.912697 195.591043 
L 206.000164 194.098669 
L 206.083549 192.606294 
L 206.159858 191.113919 
L 206.225987 189.621545 
L 206.278741 188.12917 
L 206.314854 186.636796 
L 206.331006 185.144421 
L 206.323844 183.652047 
L 206.29 182.159672 
L 206.226114 180.667298 
L 206.128856 179.174923 
L 205.994957 177.682549 
L 205.821244 176.190174 
L 205.604678 174.6978 
L 205.342402 173.205425 
L 205.031797 171.71305 
L 204.670539 170.220676 
L 204.256664 168.728301 
L 203.788642 167.235927 
L 203.265447 165.743552 
L 202.686628 164.251178 
L 202.052385 162.758803 
L 201.363631 161.266429 
L 200.622051 159.774054 
L 199.830146 158.28168 
L 198.991271 156.789305 
L 198.109643 155.29693 
L 197.190343 153.804556 
L 196.239288 152.312181 
L 195.263184 150.819807 
L 194.269459 149.327432 
L 193.266171 147.835058 
L 192.261895 146.342683 
L 191.265598 144.850309 
L 190.286491 143.357934 
L 189.333876 141.86556 
L 188.416983 140.373185 
L 187.544805 138.880811 
L 186.72594 137.388436 
L 185.968432 135.896061 
L 185.279633 134.403687 
L 184.666073 132.911312 
L 184.133359 131.418938 
L 183.686086 129.926563 
L 183.327777 128.434189 
L 183.060851 126.941814 
L 182.886611 125.44944 
L 182.805256 123.957065 
L 182.815918 122.464691 
L 182.916719 120.972316 
L 183.104839 119.479941 
L 183.376602 117.987567 
L 183.727573 116.495192 
L 184.152659 115.002818 
L 184.646211 113.510443 
L 185.20213 112.018069 
L 185.813969 110.525694 
L 186.47503 109.03332 
L 187.178461 107.540945 
L 187.917337 106.048571 
L 188.684743 104.556196 
L 189.473844 103.063822 
L 190.277958 101.571447 
L 191.090611 100.079072 
L 191.905599 98.586698 
L 192.717037 97.094323 
L 193.51941 95.601949 
L 194.307617 94.109574 
L 195.077012 92.6172 
L 195.823444 91.124825 
L 196.543283 89.632451 
L 197.233457 88.140076 
L 197.891463 86.647702 
L 198.515384 85.155327 
L 199.103893 83.662952 
L 199.656247 82.170578 
L 200.17227 80.678203 
L 200.652326 79.185829 
L 201.097286 77.693454 
L 201.508477 76.20108 
L 201.887625 74.708705 
L 202.236796 73.216331 
L 202.558323 71.723956 
L 202.854732 70.231582 
L 203.128667 68.739207 
L 203.382818 67.246833 
L 203.619844 65.754458 
L 203.842312 64.262083 
L 204.052632 62.769709 
L 212.285152 62.769709 
L 212.285152 62.769709 
L 212.495472 64.262083 
L 212.71794 65.754458 
L 212.954966 67.246833 
L 213.209117 68.739207 
L 213.483052 70.231582 
L 213.779461 71.723956 
L 214.100988 73.216331 
L 214.450159 74.708705 
L 214.829308 76.20108 
L 215.240498 77.693454 
L 215.685458 79.185829 
L 216.165515 80.678203 
L 216.681537 82.170578 
L 217.233891 83.662952 
L 217.8224 85.155327 
L 218.446321 86.647702 
L 219.104327 88.140076 
L 219.794501 89.632451 
L 220.514341 91.124825 
L 221.260772 92.6172 
L 222.030167 94.109574 
L 222.818374 95.601949 
L 223.620747 97.094323 
L 224.432185 98.586698 
L 225.247173 100.079072 
L 226.059826 101.571447 
L 226.86394 103.063822 
L 227.653041 104.556196 
L 228.420447 106.048571 
L 229.159323 107.540945 
L 229.862754 109.03332 
L 230.523816 110.525694 
L 231.135654 112.018069 
L 231.691573 113.510443 
L 232.185125 115.002818 
L 232.610211 116.495192 
L 232.961182 117.987567 
L 233.232945 119.479941 
L 233.421065 120.972316 
L 233.521866 122.464691 
L 233.532528 123.957065 
L 233.451173 125.44944 
L 233.276933 126.941814 
L 233.010007 128.434189 
L 232.651698 129.926563 
L 232.204425 131.418938 
L 231.671711 132.911312 
L 231.058151 134.403687 
L 230.369352 135.896061 
L 229.611844 137.388436 
L 228.792979 138.880811 
L 227.920801 140.373185 
L 227.003908 141.86556 
L 226.051293 143.357934 
L 225.072186 144.850309 
L 224.075889 146.342683 
L 223.071614 147.835058 
L 222.068325 149.327432 
L 221.0746 150.819807 
L 220.098496 152.312181 
L 219.147441 153.804556 
L 218.228141 155.29693 
L 217.346513 156.789305 
L 216.507638 158.28168 
L 215.715734 159.774054 
L 214.974153 161.266429 
L 214.285399 162.758803 
L 213.651156 164.251178 
L 213.072338 165.743552 
L 212.549142 167.235927 
L 212.08112 168.728301 
L 211.667245 170.220676 
L 211.305987 171.71305 
L 210.995382 173.205425 
L 210.733107 174.6978 
L 210.51654 176.190174 
L 210.342827 177.682549 
L 210.208928 179.174923 
L 210.11167 180.667298 
L 210.047784 182.159672 
L 210.01394 183.652047 
L 210.006778 185.144421 
L 210.02293 186.636796 
L 210.059043 188.12917 
L 210.111797 189.621545 
L 210.177926 191.113919 
L 210.254235 192.606294 
L 210.33762 194.098669 
L 210.425088 195.591043 
L 210.513776 197.083418 
L 210.600983 198.575792 
L 210.684182 200.068167 
L 210.761057 201.560541 
L 210.829518 203.052916 
L 210.887727 204.54529 
L 210.934121 206.037665 
L 210.967426 207.530039 
L 210.986673 209.022414 
L 210.991201 210.514789 
z
" style="fill:#1f77b4;fill-opacity:0.3;"/>
   </g>
   <g id="PolyCollection_3">
    <path clip-path="url(#pcac8e9a101)" d="M 311.116133 157.530346 
L 308.130742 157.530346 
L 307.926414 156.264401 
L 307.683944 154.998456 
L 307.395695 153.73251 
L 307.053719 152.466565 
L 306.650119 151.20062 
L 306.177466 149.934674 
L 305.629248 148.668729 
L 305.000329 147.402784 
L 304.287382 146.136838 
L 303.489265 144.870893 
L 302.607312 143.604948 
L 301.645508 142.339003 
L 300.610535 141.073057 
L 299.511674 139.807112 
L 298.360567 138.541167 
L 297.170855 137.275221 
L 295.957704 136.009276 
L 294.737263 134.743331 
L 293.526084 133.477385 
L 292.340543 132.21144 
L 291.19631 130.945495 
L 290.107887 129.67955 
L 289.08825 128.413604 
L 288.148613 127.147659 
L 287.298299 125.881714 
L 286.544732 124.615768 
L 285.893514 123.349823 
L 285.348567 122.083878 
L 284.912314 120.817932 
L 284.585863 119.551987 
L 284.369167 118.286042 
L 284.261155 117.020097 
L 284.259801 115.754151 
L 284.362158 114.488206 
L 284.564343 113.222261 
L 284.861513 111.956315 
L 285.24783 110.69037 
L 285.71646 109.424425 
L 286.259618 108.158479 
L 286.868663 106.892534 
L 287.534269 105.626589 
L 288.24665 104.360644 
L 288.995843 103.094698 
L 289.772011 101.828753 
L 290.565755 100.562808 
L 291.368399 99.296862 
L 292.172226 98.030917 
L 292.970641 96.764972 
L 293.758255 95.499026 
L 294.53088 94.233081 
L 295.285437 92.967136 
L 296.019812 91.701191 
L 296.732655 90.435245 
L 297.423158 89.1693 
L 298.090849 87.903355 
L 298.735396 86.637409 
L 299.356461 85.371464 
L 299.953609 84.105519 
L 300.526255 82.839573 
L 301.073679 81.573628 
L 301.59506 80.307683 
L 302.089544 79.041738 
L 302.556318 77.775792 
L 302.99468 76.509847 
L 303.404095 75.243902 
L 303.784235 73.977956 
L 304.13499 72.712011 
L 304.456475 71.446066 
L 304.74902 70.18012 
L 305.013149 68.914175 
L 305.249579 67.64823 
L 305.459209 66.382284 
L 305.643129 65.116339 
L 305.802629 63.850394 
L 305.939215 62.584449 
L 306.054616 61.318503 
L 306.150782 60.052558 
L 306.229868 58.786613 
L 306.294197 57.520667 
L 306.346201 56.254722 
L 306.388352 54.988777 
L 306.423082 53.722831 
L 306.452703 52.456886 
L 306.479342 51.190941 
L 306.504885 49.924996 
L 306.530961 48.65905 
L 306.558934 47.393105 
L 306.589937 46.12716 
L 306.624915 44.861214 
L 306.66468 43.595269 
L 306.709972 42.329324 
L 306.761501 41.063378 
L 306.819975 39.797433 
L 306.886104 38.531488 
L 306.960569 37.265543 
L 307.043977 35.999597 
L 307.136789 34.733652 
L 307.239245 33.467707 
L 307.351289 32.201761 
L 311.895586 32.201761 
L 311.895586 32.201761 
L 312.00763 33.467707 
L 312.110086 34.733652 
L 312.202898 35.999597 
L 312.286306 37.265543 
L 312.360771 38.531488 
L 312.4269 39.797433 
L 312.485374 41.063378 
L 312.536903 42.329324 
L 312.582195 43.595269 
L 312.62196 44.861214 
L 312.656938 46.12716 
L 312.687941 47.393105 
L 312.715914 48.65905 
L 312.74199 49.924996 
L 312.767533 51.190941 
L 312.794172 52.456886 
L 312.823793 53.722831 
L 312.858523 54.988777 
L 312.900674 56.254722 
L 312.952678 57.520667 
L 313.017007 58.786613 
L 313.096093 60.052558 
L 313.192259 61.318503 
L 313.30766 62.584449 
L 313.444246 63.850394 
L 313.603746 65.116339 
L 313.787666 66.382284 
L 313.997296 67.64823 
L 314.233726 68.914175 
L 314.497855 70.18012 
L 314.7904 71.446066 
L 315.111885 72.712011 
L 315.46264 73.977956 
L 315.84278 75.243902 
L 316.252195 76.509847 
L 316.690557 77.775792 
L 317.157331 79.041738 
L 317.651815 80.307683 
L 318.173196 81.573628 
L 318.72062 82.839573 
L 319.293266 84.105519 
L 319.890414 85.371464 
L 320.511479 86.637409 
L 321.156026 87.903355 
L 321.823717 89.1693 
L 322.51422 90.435245 
L 323.227063 91.701191 
L 323.961438 92.967136 
L 324.715995 94.233081 
L 325.48862 95.499026 
L 326.276234 96.764972 
L 327.074649 98.030917 
L 327.878476 99.296862 
L 328.68112 100.562808 
L 329.474864 101.828753 
L 330.251032 103.094698 
L 331.000225 104.360644 
L 331.712606 105.626589 
L 332.378212 106.892534 
L 332.987257 108.158479 
L 333.530415 109.424425 
L 333.999045 110.69037 
L 334.385362 111.956315 
L 334.682532 113.222261 
L 334.884717 114.488206 
L 334.987074 115.754151 
L 334.98572 117.020097 
L 334.877708 118.286042 
L 334.661012 119.551987 
L 334.334561 120.817932 
L 333.898308 122.083878 
L 333.353361 123.349823 
L 332.702143 124.615768 
L 331.948576 125.881714 
L 331.098262 127.147659 
L 330.158625 128.413604 
L 329.138988 129.67955 
L 328.050565 130.945495 
L 326.906332 132.21144 
L 325.720791 133.477385 
L 324.509612 134.743331 
L 323.289171 136.009276 
L 322.07602 137.275221 
L 320.886308 138.541167 
L 319.735201 139.807112 
L 318.63634 141.073057 
L 317.601367 142.339003 
L 316.639563 143.604948 
L 315.75761 144.870893 
L 314.959493 146.136838 
L 314.246546 147.402784 
L 313.617627 148.668729 
L 313.069409 149.934674 
L 312.596756 151.20062 
L 312.193156 152.466565 
L 311.85118 153.73251 
L 311.562931 154.998456 
L 311.320461 156.264401 
L 311.116133 157.530346 
z
" style="fill:#1f77b4;fill-opacity:0.3;"/>
   </g>
   <g id="PolyCollection_4">
    <path clip-path="url(#pcac8e9a101)" d="M 411.911153 154.473551 
L 410.244812 154.473551 
L 410.105576 153.238483 
L 409.944875 152.003414 
L 409.75994 150.768346 
L 409.548458 149.533277 
L 409.308909 148.298208 
L 409.040889 147.06314 
L 408.745345 145.828071 
L 408.424665 144.593003 
L 408.082594 143.357934 
L 407.72391 142.122866 
L 407.353896 140.887797 
L 406.977592 139.652728 
L 406.59894 138.41766 
L 406.219874 137.182591 
L 405.83952 135.947523 
L 405.453608 134.712454 
L 405.054236 133.477385 
L 404.630066 132.242317 
L 404.167002 131.007248 
L 403.649307 129.77218 
L 403.061105 128.537111 
L 402.388097 127.302043 
L 401.619312 126.066974 
L 400.74871 124.831905 
L 399.776412 123.596837 
L 398.709414 122.361768 
L 397.561678 121.1267 
L 396.353547 119.891631 
L 395.11054 118.656562 
L 393.86161 117.421494 
L 392.637066 116.186425 
L 391.466341 114.951357 
L 390.375866 113.716288 
L 389.387255 112.481219 
L 388.51602 111.246151 
L 387.770928 110.011082 
L 387.154086 108.776014 
L 386.661704 107.540945 
L 386.285444 106.305877 
L 386.014152 105.070808 
L 385.835718 103.835739 
L 385.738831 102.600671 
L 385.714347 101.365602 
L 385.756114 100.130534 
L 385.861152 98.895465 
L 386.029195 97.660396 
L 386.261724 96.425328 
L 386.560692 95.190259 
L 386.92718 93.955191 
L 387.360245 92.720122 
L 387.85615 91.485054 
L 388.408092 90.249985 
L 389.006451 89.014916 
L 389.639483 87.779848 
L 390.294304 86.544779 
L 390.957988 85.309711 
L 391.618587 84.074642 
L 392.265924 82.839573 
L 392.892076 81.604505 
L 393.491505 80.369436 
L 394.060892 79.134368 
L 394.598734 77.899299 
L 395.104826 76.66423 
L 395.579733 75.429162 
L 396.024353 74.194093 
L 396.439636 72.959025 
L 396.826497 71.723956 
L 397.185918 70.488888 
L 397.519207 69.253819 
L 397.828339 68.01875 
L 398.116302 66.783682 
L 398.38738 65.548613 
L 398.647273 64.313545 
L 398.903036 63.078476 
L 399.162784 61.843407 
L 399.435199 60.608339 
L 399.728867 59.37327 
L 400.051509 58.138202 
L 400.409216 56.903133 
L 400.805763 55.668065 
L 401.2421 54.432996 
L 401.716107 53.197927 
L 402.222647 51.962859 
L 402.753934 50.72779 
L 403.300192 49.492722 
L 403.850512 48.257653 
L 404.393838 47.022584 
L 404.919926 45.787516 
L 405.420203 44.552447 
L 405.88839 43.317379 
L 406.32085 42.08231 
L 406.716629 40.847241 
L 407.077202 39.612173 
L 407.40599 38.377104 
L 407.707711 37.142036 
L 407.98767 35.906967 
L 408.251066 34.671899 
L 408.502397 33.43683 
L 408.745035 32.201761 
L 413.410931 32.201761 
L 413.410931 32.201761 
L 413.653569 33.43683 
L 413.9049 34.671899 
L 414.168295 35.906967 
L 414.448255 37.142036 
L 414.749976 38.377104 
L 415.078764 39.612173 
L 415.439337 40.847241 
L 415.835115 42.08231 
L 416.267576 43.317379 
L 416.735763 44.552447 
L 417.23604 45.787516 
L 417.762128 47.022584 
L 418.305453 48.257653 
L 418.855774 49.492722 
L 419.402032 50.72779 
L 419.933319 51.962859 
L 420.439859 53.197927 
L 420.913865 54.432996 
L 421.350203 55.668065 
L 421.74675 56.903133 
L 422.104457 58.138202 
L 422.427099 59.37327 
L 422.720766 60.608339 
L 422.993182 61.843407 
L 423.25293 63.078476 
L 423.508693 64.313545 
L 423.768586 65.548613 
L 424.039664 66.783682 
L 424.327627 68.01875 
L 424.636759 69.253819 
L 424.970048 70.488888 
L 425.329469 71.723956 
L 425.71633 72.959025 
L 426.131612 74.194093 
L 426.576233 75.429162 
L 427.05114 76.66423 
L 427.557232 77.899299 
L 428.095074 79.134368 
L 428.664461 80.369436 
L 429.26389 81.604505 
L 429.890042 82.839573 
L 430.537379 84.074642 
L 431.197978 85.309711 
L 431.861662 86.544779 
L 432.516483 87.779848 
L 433.149515 89.014916 
L 433.747874 90.249985 
L 434.299816 91.485054 
L 434.795721 92.720122 
L 435.228786 93.955191 
L 435.595274 95.190259 
L 435.894241 96.425328 
L 436.126771 97.660396 
L 436.294814 98.895465 
L 436.399852 100.130534 
L 436.441619 101.365602 
L 436.417135 102.600671 
L 436.320248 103.835739 
L 436.141814 105.070808 
L 435.870522 106.305877 
L 435.494262 107.540945 
L 435.00188 108.776014 
L 434.385037 110.011082 
L 433.639946 111.246151 
L 432.768711 112.481219 
L 431.7801 113.716288 
L 430.689624 114.951357 
L 429.5189 116.186425 
L 428.294356 117.421494 
L 427.045426 118.656562 
L 425.802419 119.891631 
L 424.594288 121.1267 
L 423.446552 122.361768 
L 422.379554 123.596837 
L 421.407255 124.831905 
L 420.536654 126.066974 
L 419.767869 127.302043 
L 419.09486 128.537111 
L 418.506659 129.77218 
L 417.988964 131.007248 
L 417.525899 132.242317 
L 417.10173 133.477385 
L 416.702358 134.712454 
L 416.316446 135.947523 
L 415.936092 137.182591 
L 415.557026 138.41766 
L 415.178374 139.652728 
L 414.80207 140.887797 
L 414.432055 142.122866 
L 414.073372 143.357934 
L 413.7313 144.593003 
L 413.410621 145.828071 
L 413.115077 147.06314 
L 412.847057 148.298208 
L 412.607508 149.533277 
L 412.396026 150.768346 
L 412.211091 152.003414 
L 412.05039 153.238483 
L 411.911153 154.473551 
z
" style="fill:#1f77b4;fill-opacity:0.3;"/>
   </g>
   <g id="PolyCollection_5">
    <path clip-path="url(#pcac8e9a101)" d="M 512.612059 229.874489 
L 512.452998 229.874489 
L 512.458136 227.877794 
L 512.471642 225.8811 
L 512.488927 223.884406 
L 512.505209 221.887712 
L 512.517551 219.891018 
L 512.525344 217.894323 
L 512.529513 215.897629 
L 512.531421 213.900935 
L 512.532173 211.904241 
L 512.532428 209.907546 
L 512.532504 207.910852 
L 512.532523 205.914158 
L 512.532527 203.917464 
L 512.532528 201.92077 
L 512.532528 199.924075 
L 512.532528 197.927381 
L 512.532528 195.930687 
L 512.532528 193.933993 
L 512.532528 191.937299 
L 512.532528 189.940604 
L 512.532528 187.94391 
L 512.532528 185.947216 
L 512.532528 183.950522 
L 512.532528 181.953827 
L 512.532528 179.957133 
L 512.532528 177.960439 
L 512.532528 175.963745 
L 512.532528 173.967051 
L 512.532527 171.970356 
L 512.532523 169.973662 
L 512.532501 167.976968 
L 512.532407 165.980274 
L 512.532058 163.98358 
L 512.530934 161.986885 
L 512.527788 159.990191 
L 512.520138 157.993497 
L 512.50398 155.996803 
L 512.474239 154.000108 
L 512.426063 152.003414 
L 512.355811 150.00672 
L 512.259661 148.010026 
L 512.12952 146.013332 
L 511.950694 144.016637 
L 511.708704 142.019943 
L 511.406704 140.023249 
L 511.081345 138.026555 
L 510.797301 136.029861 
L 510.612951 134.033166 
L 510.535929 132.036472 
L 510.501695 130.039778 
L 510.39353 128.043084 
L 510.091011 126.046389 
L 509.515668 124.049695 
L 508.650075 122.053001 
L 507.52683 120.056307 
L 506.198436 118.059613 
L 504.703698 116.062918 
L 503.046628 114.066224 
L 501.201151 112.06953 
L 499.144385 110.072836 
L 496.90331 108.076142 
L 494.585644 106.079447 
L 492.36921 104.082753 
L 490.447959 102.086059 
L 488.962708 100.089365 
L 487.957877 98.09267 
L 487.388789 96.095976 
L 487.168892 94.099282 
L 487.221712 92.102588 
L 487.507686 90.105894 
L 488.020948 88.109199 
L 488.769004 86.112505 
L 489.748646 84.115811 
L 490.927336 82.119117 
L 492.240396 80.122423 
L 493.609871 78.125728 
L 494.973117 76.129034 
L 496.296875 74.13234 
L 497.566934 72.135646 
L 498.770255 70.138951 
L 499.890451 68.142257 
L 500.914948 66.145563 
L 501.836902 64.148869 
L 502.648328 62.152175 
L 503.340578 60.15548 
L 503.922476 58.158786 
L 504.43948 56.162092 
L 504.965103 54.165398 
L 505.559655 52.168704 
L 506.228396 50.172009 
L 506.91736 48.175315 
L 507.548082 46.178621 
L 508.053959 44.181927 
L 508.389145 42.185232 
L 508.525619 40.188538 
L 508.473227 38.191844 
L 508.318645 36.19515 
L 508.230401 34.198456 
L 508.390486 32.201761 
L 516.674571 32.201761 
L 516.674571 32.201761 
L 516.834656 34.198456 
L 516.746412 36.19515 
L 516.59183 38.191844 
L 516.539438 40.188538 
L 516.675912 42.185232 
L 517.011098 44.181927 
L 517.516975 46.178621 
L 518.147697 48.175315 
L 518.836661 50.172009 
L 519.505402 52.168704 
L 520.099954 54.165398 
L 520.625577 56.162092 
L 521.142581 58.158786 
L 521.724479 60.15548 
L 522.416729 62.152175 
L 523.228154 64.148869 
L 524.150109 66.145563 
L 525.174606 68.142257 
L 526.294802 70.138951 
L 527.498123 72.135646 
L 528.768182 74.13234 
L 530.091939 76.129034 
L 531.455186 78.125728 
L 532.824661 80.122423 
L 534.137721 82.119117 
L 535.316411 84.115811 
L 536.296053 86.112505 
L 537.044109 88.109199 
L 537.557371 90.105894 
L 537.843345 92.102588 
L 537.896165 94.099282 
L 537.676268 96.095976 
L 537.10718 98.09267 
L 536.102349 100.089365 
L 534.617097 102.086059 
L 532.695847 104.082753 
L 530.479413 106.079447 
L 528.161747 108.076142 
L 525.920672 110.072836 
L 523.863906 112.06953 
L 522.018429 114.066224 
L 520.361358 116.062918 
L 518.866621 118.059613 
L 517.538227 120.056307 
L 516.414982 122.053001 
L 515.549388 124.049695 
L 514.974046 126.046389 
L 514.671526 128.043084 
L 514.563362 130.039778 
L 514.529128 132.036472 
L 514.452106 134.033166 
L 514.267756 136.029861 
L 513.983711 138.026555 
L 513.658353 140.023249 
L 513.356352 142.019943 
L 513.114363 144.016637 
L 512.935537 146.013332 
L 512.805395 148.010026 
L 512.709246 150.00672 
L 512.638994 152.003414 
L 512.590818 154.000108 
L 512.561077 155.996803 
L 512.544919 157.993497 
L 512.537269 159.990191 
L 512.534122 161.986885 
L 512.532999 163.98358 
L 512.53265 165.980274 
L 512.532556 167.976968 
L 512.532534 169.973662 
L 512.532529 171.970356 
L 512.532529 173.967051 
L 512.532528 175.963745 
L 512.532528 177.960439 
L 512.532528 179.957133 
L 512.532528 181.953827 
L 512.532528 183.950522 
L 512.532528 185.947216 
L 512.532528 187.94391 
L 512.532528 189.940604 
L 512.532528 191.937299 
L 512.532528 193.933993 
L 512.532528 195.930687 
L 512.532528 197.927381 
L 512.532528 199.924075 
L 512.532529 201.92077 
L 512.532529 203.917464 
L 512.532534 205.914158 
L 512.532553 207.910852 
L 512.532628 209.907546 
L 512.532884 211.904241 
L 512.533636 213.900935 
L 512.535544 215.897629 
L 512.539713 217.894323 
L 512.547506 219.891018 
L 512.559848 221.887712 
L 512.57613 223.884406 
L 512.593415 225.8811 
L 512.606921 227.877794 
L 512.612059 229.874489 
z
" style="fill:#1f77b4;fill-opacity:0.3;"/>
   </g>
   <g id="matplotlib.axis_1">
    <g id="xtick_1">
     <g id="line2d_1">
      <defs>
       <path d="M 0 0 
L 0 3.5 
" id="m7ade341055" style="stroke:#000000;stroke-width:0.8;"/>
      </defs>
      <g>
       <use style="stroke:#000000;stroke-width:0.8;" x="106.714347" xlink:href="#m7ade341055" y="239.758125"/>
      </g>
     </g>
     <g id="text_1">
      <!-- 1 -->
      <g transform="translate(103.533097 254.356563)scale(0.1 -0.1)">
       <defs>
        <path d="M 12.40625 8.296875 
L 28.515625 8.296875 
L 28.515625 63.921875 
L 10.984375 60.40625 
L 10.984375 69.390625 
L 28.421875 72.90625 
L 38.28125 72.90625 
L 38.28125 8.296875 
L 54.390625 8.296875 
L 54.390625 0 
L 12.40625 0 
z
" id="DejaVuSans-49"/>
       </defs>
       <use xlink:href="#DejaVuSans-49"/>
      </g>
     </g>
    </g>
    <g id="xtick_2">
     <g id="line2d_2">
      <g>
       <use style="stroke:#000000;stroke-width:0.8;" x="208.168892" xlink:href="#m7ade341055" y="239.758125"/>
      </g>
     </g>
     <g id="text_2">
      <!-- 2 -->
      <g transform="translate(204.987642 254.356563)scale(0.1 -0.1)">
       <defs>
        <path d="M 19.1875 8.296875 
L 53.609375 8.296875 
L 53.609375 0 
L 7.328125 0 
L 7.328125 8.296875 
Q 12.9375 14.109375 22.625 23.890625 
Q 32.328125 33.6875 34.8125 36.53125 
Q 39.546875 41.84375 41.421875 45.53125 
Q 43.3125 49.21875 43.3125 52.78125 
Q 43.3125 58.59375 39.234375 62.25 
Q 35.15625 65.921875 28.609375 65.921875 
Q 23.96875 65.921875 18.8125 64.3125 
Q 13.671875 62.703125 7.8125 59.421875 
L 7.8125 69.390625 
Q 13.765625 71.78125 18.9375 73 
Q 24.125 74.21875 28.421875 74.21875 
Q 39.75 74.21875 46.484375 68.546875 
Q 53.21875 62.890625 53.21875 53.421875 
Q 53.21875 48.921875 51.53125 44.890625 
Q 49.859375 40.875 45.40625 35.40625 
Q 44.1875 33.984375 37.640625 27.21875 
Q 31.109375 20.453125 19.1875 8.296875 
z
" id="DejaVuSans-50"/>
       </defs>
       <use xlink:href="#DejaVuSans-50"/>
      </g>
     </g>
    </g>
    <g id="xtick_3">
     <g id="line2d_3">
      <g>
       <use style="stroke:#000000;stroke-width:0.8;" x="309.623438" xlink:href="#m7ade341055" y="239.758125"/>
      </g>
     </g>
     <g id="text_3">
      <!-- 3 -->
      <g transform="translate(306.442188 254.356563)scale(0.1 -0.1)">
       <defs>
        <path d="M 40.578125 39.3125 
Q 47.65625 37.796875 51.625 33 
Q 55.609375 28.21875 55.609375 21.1875 
Q 55.609375 10.40625 48.1875 4.484375 
Q 40.765625 -1.421875 27.09375 -1.421875 
Q 22.515625 -1.421875 17.65625 -0.515625 
Q 12.796875 0.390625 7.625 2.203125 
L 7.625 11.71875 
Q 11.71875 9.328125 16.59375 8.109375 
Q 21.484375 6.890625 26.8125 6.890625 
Q 36.078125 6.890625 40.9375 10.546875 
Q 45.796875 14.203125 45.796875 21.1875 
Q 45.796875 27.640625 41.28125 31.265625 
Q 36.765625 34.90625 28.71875 34.90625 
L 20.21875 34.90625 
L 20.21875 43.015625 
L 29.109375 43.015625 
Q 36.375 43.015625 40.234375 45.921875 
Q 44.09375 48.828125 44.09375 54.296875 
Q 44.09375 59.90625 40.109375 62.90625 
Q 36.140625 65.921875 28.71875 65.921875 
Q 24.65625 65.921875 20.015625 65.03125 
Q 15.375 64.15625 9.8125 62.3125 
L 9.8125 71.09375 
Q 15.4375 72.65625 20.34375 73.4375 
Q 25.25 74.21875 29.59375 74.21875 
Q 40.828125 74.21875 47.359375 69.109375 
Q 53.90625 64.015625 53.90625 55.328125 
Q 53.90625 49.265625 50.4375 45.09375 
Q 46.96875 40.921875 40.578125 39.3125 
z
" id="DejaVuSans-51"/>
       </defs>
       <use xlink:href="#DejaVuSans-51"/>
      </g>
     </g>
    </g>
    <g id="xtick_4">
     <g id="line2d_4">
      <g>
       <use style="stroke:#000000;stroke-width:0.8;" x="411.077983" xlink:href="#m7ade341055" y="239.758125"/>
      </g>
     </g>
     <g id="text_4">
      <!-- 4 -->
      <g transform="translate(407.896733 254.356563)scale(0.1 -0.1)">
       <defs>
        <path d="M 37.796875 64.3125 
L 12.890625 25.390625 
L 37.796875 25.390625 
z
M 35.203125 72.90625 
L 47.609375 72.90625 
L 47.609375 25.390625 
L 58.015625 25.390625 
L 58.015625 17.1875 
L 47.609375 17.1875 
L 47.609375 0 
L 37.796875 0 
L 37.796875 17.1875 
L 4.890625 17.1875 
L 4.890625 26.703125 
z
" id="DejaVuSans-52"/>
       </defs>
       <use xlink:href="#DejaVuSans-52"/>
      </g>
     </g>
    </g>
    <g id="xtick_5">
     <g id="line2d_5">
      <g>
       <use style="stroke:#000000;stroke-width:0.8;" x="512.532528" xlink:href="#m7ade341055" y="239.758125"/>
      </g>
     </g>
     <g id="text_5">
      <!-- 5 -->
      <g transform="translate(509.351278 254.356563)scale(0.1 -0.1)">
       <defs>
        <path d="M 10.796875 72.90625 
L 49.515625 72.90625 
L 49.515625 64.59375 
L 19.828125 64.59375 
L 19.828125 46.734375 
Q 21.96875 47.46875 24.109375 47.828125 
Q 26.265625 48.1875 28.421875 48.1875 
Q 40.625 48.1875 47.75 41.5 
Q 54.890625 34.8125 54.890625 23.390625 
Q 54.890625 11.625 47.5625 5.09375 
Q 40.234375 -1.421875 26.90625 -1.421875 
Q 22.3125 -1.421875 17.546875 -0.640625 
Q 12.796875 0.140625 7.71875 1.703125 
L 7.71875 11.625 
Q 12.109375 9.234375 16.796875 8.0625 
Q 21.484375 6.890625 26.703125 6.890625 
Q 35.15625 6.890625 40.078125 11.328125 
Q 45.015625 15.765625 45.015625 23.390625 
Q 45.015625 31 40.078125 35.4375 
Q 35.15625 39.890625 26.703125 39.890625 
Q 22.75 39.890625 18.8125 39.015625 
Q 14.890625 38.140625 10.796875 36.28125 
z
" id="DejaVuSans-53"/>
       </defs>
       <use xlink:href="#DejaVuSans-53"/>
      </g>
     </g>
    </g>
   </g>
   <g id="matplotlib.axis_2">
    <g id="ytick_1">
     <g id="line2d_6">
      <defs>
       <path d="M 0 0 
L -3.5 0 
" id="mdfded1e626" style="stroke:#000000;stroke-width:0.8;"/>
      </defs>
      <g>
       <use style="stroke:#000000;stroke-width:0.8;" x="58.523438" xlink:href="#mdfded1e626" y="235.988078"/>
      </g>
     </g>
     <g id="text_6">
      <!-- −1.00 -->
      <g transform="translate(20.878125 239.787297)scale(0.1 -0.1)">
       <defs>
        <path d="M 10.59375 35.5 
L 73.1875 35.5 
L 73.1875 27.203125 
L 10.59375 27.203125 
z
" id="DejaVuSans-8722"/>
        <path d="M 10.6875 12.40625 
L 21 12.40625 
L 21 0 
L 10.6875 0 
z
" id="DejaVuSans-46"/>
        <path d="M 31.78125 66.40625 
Q 24.171875 66.40625 20.328125 58.90625 
Q 16.5 51.421875 16.5 36.375 
Q 16.5 21.390625 20.328125 13.890625 
Q 24.171875 6.390625 31.78125 6.390625 
Q 39.453125 6.390625 43.28125 13.890625 
Q 47.125 21.390625 47.125 36.375 
Q 47.125 51.421875 43.28125 58.90625 
Q 39.453125 66.40625 31.78125 66.40625 
z
M 31.78125 74.21875 
Q 44.046875 74.21875 50.515625 64.515625 
Q 56.984375 54.828125 56.984375 36.375 
Q 56.984375 17.96875 50.515625 8.265625 
Q 44.046875 -1.421875 31.78125 -1.421875 
Q 19.53125 -1.421875 13.0625 8.265625 
Q 6.59375 17.96875 6.59375 36.375 
Q 6.59375 54.828125 13.0625 64.515625 
Q 19.53125 74.21875 31.78125 74.21875 
z
" id="DejaVuSans-48"/>
       </defs>
       <use xlink:href="#DejaVuSans-8722"/>
       <use x="83.789062" xlink:href="#DejaVuSans-49"/>
       <use x="147.412109" xlink:href="#DejaVuSans-46"/>
       <use x="179.199219" xlink:href="#DejaVuSans-48"/>
       <use x="242.822266" xlink:href="#DejaVuSans-48"/>
      </g>
     </g>
    </g>
    <g id="ytick_2">
     <g id="line2d_7">
      <g>
       <use style="stroke:#000000;stroke-width:0.8;" x="58.523438" xlink:href="#mdfded1e626" y="210.514789"/>
      </g>
     </g>
     <g id="text_7">
      <!-- −0.75 -->
      <g transform="translate(20.878125 214.314007)scale(0.1 -0.1)">
       <defs>
        <path d="M 8.203125 72.90625 
L 55.078125 72.90625 
L 55.078125 68.703125 
L 28.609375 0 
L 18.3125 0 
L 43.21875 64.59375 
L 8.203125 64.59375 
z
" id="DejaVuSans-55"/>
       </defs>
       <use xlink:href="#DejaVuSans-8722"/>
       <use x="83.789062" xlink:href="#DejaVuSans-48"/>
       <use x="147.412109" xlink:href="#DejaVuSans-46"/>
       <use x="179.199219" xlink:href="#DejaVuSans-55"/>
       <use x="242.822266" xlink:href="#DejaVuSans-53"/>
      </g>
     </g>
    </g>
    <g id="ytick_3">
     <g id="line2d_8">
      <g>
       <use style="stroke:#000000;stroke-width:0.8;" x="58.523438" xlink:href="#mdfded1e626" y="185.041499"/>
      </g>
     </g>
     <g id="text_8">
      <!-- −0.50 -->
      <g transform="translate(20.878125 188.840718)scale(0.1 -0.1)">
       <use xlink:href="#DejaVuSans-8722"/>
       <use x="83.789062" xlink:href="#DejaVuSans-48"/>
       <use x="147.412109" xlink:href="#DejaVuSans-46"/>
       <use x="179.199219" xlink:href="#DejaVuSans-53"/>
       <use x="242.822266" xlink:href="#DejaVuSans-48"/>
      </g>
     </g>
    </g>
    <g id="ytick_4">
     <g id="line2d_9">
      <g>
       <use style="stroke:#000000;stroke-width:0.8;" x="58.523438" xlink:href="#mdfded1e626" y="159.568209"/>
      </g>
     </g>
     <g id="text_9">
      <!-- −0.25 -->
      <g transform="translate(20.878125 163.367428)scale(0.1 -0.1)">
       <use xlink:href="#DejaVuSans-8722"/>
       <use x="83.789062" xlink:href="#DejaVuSans-48"/>
       <use x="147.412109" xlink:href="#DejaVuSans-46"/>
       <use x="179.199219" xlink:href="#DejaVuSans-50"/>
       <use x="242.822266" xlink:href="#DejaVuSans-53"/>
      </g>
     </g>
    </g>
    <g id="ytick_5">
     <g id="line2d_10">
      <g>
       <use style="stroke:#000000;stroke-width:0.8;" x="58.523438" xlink:href="#mdfded1e626" y="134.09492"/>
      </g>
     </g>
     <g id="text_10">
      <!-- 0.00 -->
      <g transform="translate(29.257812 137.894139)scale(0.1 -0.1)">
       <use xlink:href="#DejaVuSans-48"/>
       <use x="63.623047" xlink:href="#DejaVuSans-46"/>
       <use x="95.410156" xlink:href="#DejaVuSans-48"/>
       <use x="159.033203" xlink:href="#DejaVuSans-48"/>
      </g>
     </g>
    </g>
    <g id="ytick_6">
     <g id="line2d_11">
      <g>
       <use style="stroke:#000000;stroke-width:0.8;" x="58.523438" xlink:href="#mdfded1e626" y="108.62163"/>
      </g>
     </g>
     <g id="text_11">
      <!-- 0.25 -->
      <g transform="translate(29.257812 112.420849)scale(0.1 -0.1)">
       <use xlink:href="#DejaVuSans-48"/>
       <use x="63.623047" xlink:href="#DejaVuSans-46"/>
       <use x="95.410156" xlink:href="#DejaVuSans-50"/>
       <use x="159.033203" xlink:href="#DejaVuSans-53"/>
      </g>
     </g>
    </g>
    <g id="ytick_7">
     <g id="line2d_12">
      <g>
       <use style="stroke:#000000;stroke-width:0.8;" x="58.523438" xlink:href="#mdfded1e626" y="83.148341"/>
      </g>
     </g>
     <g id="text_12">
      <!-- 0.50 -->
      <g transform="translate(29.257812 86.947559)scale(0.1 -0.1)">
       <use xlink:href="#DejaVuSans-48"/>
       <use x="63.623047" xlink:href="#DejaVuSans-46"/>
       <use x="95.410156" xlink:href="#DejaVuSans-53"/>
       <use x="159.033203" xlink:href="#DejaVuSans-48"/>
      </g>
     </g>
    </g>
    <g id="ytick_8">
     <g id="line2d_13">
      <g>
       <use style="stroke:#000000;stroke-width:0.8;" x="58.523438" xlink:href="#mdfded1e626" y="57.675051"/>
      </g>
     </g>
     <g id="text_13">
      <!-- 0.75 -->
      <g transform="translate(29.257812 61.47427)scale(0.1 -0.1)">
       <use xlink:href="#DejaVuSans-48"/>
       <use x="63.623047" xlink:href="#DejaVuSans-46"/>
       <use x="95.410156" xlink:href="#DejaVuSans-55"/>
       <use x="159.033203" xlink:href="#DejaVuSans-53"/>
      </g>
     </g>
    </g>
    <g id="ytick_9">
     <g id="line2d_14">
      <g>
       <use style="stroke:#000000;stroke-width:0.8;" x="58.523438" xlink:href="#mdfded1e626" y="32.201761"/>
      </g>
     </g>
     <g id="text_14">
      <!-- 1.00 -->
      <g transform="translate(29.257812 36.00098)scale(0.1 -0.1)">
       <use xlink:href="#DejaVuSans-49"/>
       <use x="63.623047" xlink:href="#DejaVuSans-46"/>
       <use x="95.410156" xlink:href="#DejaVuSans-48"/>
       <use x="159.033203" xlink:href="#DejaVuSans-48"/>
      </g>
     </g>
    </g>
    <g id="text_15">
     <!-- Polarity -->
     <g transform="translate(14.798437 149.748281)rotate(-90)scale(0.1 -0.1)">
      <defs>
       <path d="M 19.671875 64.796875 
L 19.671875 37.40625 
L 32.078125 37.40625 
Q 38.96875 37.40625 42.71875 40.96875 
Q 46.484375 44.53125 46.484375 51.125 
Q 46.484375 57.671875 42.71875 61.234375 
Q 38.96875 64.796875 32.078125 64.796875 
z
M 9.8125 72.90625 
L 32.078125 72.90625 
Q 44.34375 72.90625 50.609375 67.359375 
Q 56.890625 61.8125 56.890625 51.125 
Q 56.890625 40.328125 50.609375 34.8125 
Q 44.34375 29.296875 32.078125 29.296875 
L 19.671875 29.296875 
L 19.671875 0 
L 9.8125 0 
z
" id="DejaVuSans-80"/>
       <path d="M 30.609375 48.390625 
Q 23.390625 48.390625 19.1875 42.75 
Q 14.984375 37.109375 14.984375 27.296875 
Q 14.984375 17.484375 19.15625 11.84375 
Q 23.34375 6.203125 30.609375 6.203125 
Q 37.796875 6.203125 41.984375 11.859375 
Q 46.1875 17.53125 46.1875 27.296875 
Q 46.1875 37.015625 41.984375 42.703125 
Q 37.796875 48.390625 30.609375 48.390625 
z
M 30.609375 56 
Q 42.328125 56 49.015625 48.375 
Q 55.71875 40.765625 55.71875 27.296875 
Q 55.71875 13.875 49.015625 6.21875 
Q 42.328125 -1.421875 30.609375 -1.421875 
Q 18.84375 -1.421875 12.171875 6.21875 
Q 5.515625 13.875 5.515625 27.296875 
Q 5.515625 40.765625 12.171875 48.375 
Q 18.84375 56 30.609375 56 
z
" id="DejaVuSans-111"/>
       <path d="M 9.421875 75.984375 
L 18.40625 75.984375 
L 18.40625 0 
L 9.421875 0 
z
" id="DejaVuSans-108"/>
       <path d="M 34.28125 27.484375 
Q 23.390625 27.484375 19.1875 25 
Q 14.984375 22.515625 14.984375 16.5 
Q 14.984375 11.71875 18.140625 8.90625 
Q 21.296875 6.109375 26.703125 6.109375 
Q 34.1875 6.109375 38.703125 11.40625 
Q 43.21875 16.703125 43.21875 25.484375 
L 43.21875 27.484375 
z
M 52.203125 31.203125 
L 52.203125 0 
L 43.21875 0 
L 43.21875 8.296875 
Q 40.140625 3.328125 35.546875 0.953125 
Q 30.953125 -1.421875 24.3125 -1.421875 
Q 15.921875 -1.421875 10.953125 3.296875 
Q 6 8.015625 6 15.921875 
Q 6 25.140625 12.171875 29.828125 
Q 18.359375 34.515625 30.609375 34.515625 
L 43.21875 34.515625 
L 43.21875 35.40625 
Q 43.21875 41.609375 39.140625 45 
Q 35.0625 48.390625 27.6875 48.390625 
Q 23 48.390625 18.546875 47.265625 
Q 14.109375 46.140625 10.015625 43.890625 
L 10.015625 52.203125 
Q 14.9375 54.109375 19.578125 55.046875 
Q 24.21875 56 28.609375 56 
Q 40.484375 56 46.34375 49.84375 
Q 52.203125 43.703125 52.203125 31.203125 
z
" id="DejaVuSans-97"/>
       <path d="M 41.109375 46.296875 
Q 39.59375 47.171875 37.8125 47.578125 
Q 36.03125 48 33.890625 48 
Q 26.265625 48 22.1875 43.046875 
Q 18.109375 38.09375 18.109375 28.8125 
L 18.109375 0 
L 9.078125 0 
L 9.078125 54.6875 
L 18.109375 54.6875 
L 18.109375 46.1875 
Q 20.953125 51.171875 25.484375 53.578125 
Q 30.03125 56 36.53125 56 
Q 37.453125 56 38.578125 55.875 
Q 39.703125 55.765625 41.0625 55.515625 
z
" id="DejaVuSans-114"/>
       <path d="M 9.421875 54.6875 
L 18.40625 54.6875 
L 18.40625 0 
L 9.421875 0 
z
M 9.421875 75.984375 
L 18.40625 75.984375 
L 18.40625 64.59375 
L 9.421875 64.59375 
z
" id="DejaVuSans-105"/>
       <path d="M 18.3125 70.21875 
L 18.3125 54.6875 
L 36.8125 54.6875 
L 36.8125 47.703125 
L 18.3125 47.703125 
L 18.3125 18.015625 
Q 18.3125 11.328125 20.140625 9.421875 
Q 21.96875 7.515625 27.59375 7.515625 
L 36.8125 7.515625 
L 36.8125 0 
L 27.59375 0 
Q 17.1875 0 13.234375 3.875 
Q 9.28125 7.765625 9.28125 18.015625 
L 9.28125 47.703125 
L 2.6875 47.703125 
L 2.6875 54.6875 
L 9.28125 54.6875 
L 9.28125 70.21875 
z
" id="DejaVuSans-116"/>
       <path d="M 32.171875 -5.078125 
Q 28.375 -14.84375 24.75 -17.8125 
Q 21.140625 -20.796875 15.09375 -20.796875 
L 7.90625 -20.796875 
L 7.90625 -13.28125 
L 13.1875 -13.28125 
Q 16.890625 -13.28125 18.9375 -11.515625 
Q 21 -9.765625 23.484375 -3.21875 
L 25.09375 0.875 
L 2.984375 54.6875 
L 12.5 54.6875 
L 29.59375 11.921875 
L 46.6875 54.6875 
L 56.203125 54.6875 
z
" id="DejaVuSans-121"/>
      </defs>
      <use xlink:href="#DejaVuSans-80"/>
      <use x="56.677734" xlink:href="#DejaVuSans-111"/>
      <use x="117.859375" xlink:href="#DejaVuSans-108"/>
      <use x="145.642578" xlink:href="#DejaVuSans-97"/>
      <use x="206.921875" xlink:href="#DejaVuSans-114"/>
      <use x="248.035156" xlink:href="#DejaVuSans-105"/>
      <use x="275.818359" xlink:href="#DejaVuSans-116"/>
      <use x="315.027344" xlink:href="#DejaVuSans-121"/>
     </g>
    </g>
   </g>
   <g id="LineCollection_1">
    <path clip-path="url(#pcac8e9a101)" d="M 94.032528 96.394451 
L 119.396165 96.394451 
" style="fill:none;stroke:#1f77b4;stroke-width:1.5;"/>
    <path clip-path="url(#pcac8e9a101)" d="M 195.487074 62.769709 
L 220.85071 62.769709 
" style="fill:none;stroke:#1f77b4;stroke-width:1.5;"/>
    <path clip-path="url(#pcac8e9a101)" d="M 296.941619 32.201761 
L 322.305256 32.201761 
" style="fill:none;stroke:#1f77b4;stroke-width:1.5;"/>
    <path clip-path="url(#pcac8e9a101)" d="M 398.396165 32.201761 
L 423.759801 32.201761 
" style="fill:none;stroke:#1f77b4;stroke-width:1.5;"/>
    <path clip-path="url(#pcac8e9a101)" d="M 499.85071 32.201761 
L 525.214347 32.201761 
" style="fill:none;stroke:#1f77b4;stroke-width:1.5;"/>
   </g>
   <g id="LineCollection_2">
    <path clip-path="url(#pcac8e9a101)" d="M 94.032528 185.041499 
L 119.396165 185.041499 
" style="fill:none;stroke:#1f77b4;stroke-width:1.5;"/>
    <path clip-path="url(#pcac8e9a101)" d="M 195.487074 210.514789 
L 220.85071 210.514789 
" style="fill:none;stroke:#1f77b4;stroke-width:1.5;"/>
    <path clip-path="url(#pcac8e9a101)" d="M 296.941619 157.530346 
L 322.305256 157.530346 
" style="fill:none;stroke:#1f77b4;stroke-width:1.5;"/>
    <path clip-path="url(#pcac8e9a101)" d="M 398.396165 154.473551 
L 423.759801 154.473551 
" style="fill:none;stroke:#1f77b4;stroke-width:1.5;"/>
    <path clip-path="url(#pcac8e9a101)" d="M 499.85071 229.874489 
L 525.214347 229.874489 
" style="fill:none;stroke:#1f77b4;stroke-width:1.5;"/>
   </g>
   <g id="LineCollection_3">
    <path clip-path="url(#pcac8e9a101)" d="M 106.714347 185.041499 
L 106.714347 96.394451 
" style="fill:none;stroke:#1f77b4;stroke-width:1.5;"/>
    <path clip-path="url(#pcac8e9a101)" d="M 208.168892 210.514789 
L 208.168892 62.769709 
" style="fill:none;stroke:#1f77b4;stroke-width:1.5;"/>
    <path clip-path="url(#pcac8e9a101)" d="M 309.623438 157.530346 
L 309.623438 32.201761 
" style="fill:none;stroke:#1f77b4;stroke-width:1.5;"/>
    <path clip-path="url(#pcac8e9a101)" d="M 411.077983 154.473551 
L 411.077983 32.201761 
" style="fill:none;stroke:#1f77b4;stroke-width:1.5;"/>
    <path clip-path="url(#pcac8e9a101)" d="M 512.532528 229.874489 
L 512.532528 32.201761 
" style="fill:none;stroke:#1f77b4;stroke-width:1.5;"/>
   </g>
   <g id="patch_3">
    <path d="M 58.523438 239.758125 
L 58.523438 22.318125 
" style="fill:none;stroke:#000000;stroke-linecap:square;stroke-linejoin:miter;stroke-width:0.8;"/>
   </g>
   <g id="patch_4">
    <path d="M 560.723438 239.758125 
L 560.723438 22.318125 
" style="fill:none;stroke:#000000;stroke-linecap:square;stroke-linejoin:miter;stroke-width:0.8;"/>
   </g>
   <g id="patch_5">
    <path d="M 58.523438 239.758125 
L 560.723438 239.758125 
" style="fill:none;stroke:#000000;stroke-linecap:square;stroke-linejoin:miter;stroke-width:0.8;"/>
   </g>
   <g id="patch_6">
    <path d="M 58.523438 22.318125 
L 560.723438 22.318125 
" style="fill:none;stroke:#000000;stroke-linecap:square;stroke-linejoin:miter;stroke-width:0.8;"/>
   </g>
   <g id="text_16">
    <!-- Density plot Rating and Polarity -->
    <g transform="translate(214.604063 16.318125)scale(0.12 -0.12)">
     <defs>
      <path d="M 19.671875 64.796875 
L 19.671875 8.109375 
L 31.59375 8.109375 
Q 46.6875 8.109375 53.6875 14.9375 
Q 60.6875 21.78125 60.6875 36.53125 
Q 60.6875 51.171875 53.6875 57.984375 
Q 46.6875 64.796875 31.59375 64.796875 
z
M 9.8125 72.90625 
L 30.078125 72.90625 
Q 51.265625 72.90625 61.171875 64.09375 
Q 71.09375 55.28125 71.09375 36.53125 
Q 71.09375 17.671875 61.125 8.828125 
Q 51.171875 0 30.078125 0 
L 9.8125 0 
z
" id="DejaVuSans-68"/>
      <path d="M 56.203125 29.59375 
L 56.203125 25.203125 
L 14.890625 25.203125 
Q 15.484375 15.921875 20.484375 11.0625 
Q 25.484375 6.203125 34.421875 6.203125 
Q 39.59375 6.203125 44.453125 7.46875 
Q 49.3125 8.734375 54.109375 11.28125 
L 54.109375 2.78125 
Q 49.265625 0.734375 44.1875 -0.34375 
Q 39.109375 -1.421875 33.890625 -1.421875 
Q 20.796875 -1.421875 13.15625 6.1875 
Q 5.515625 13.8125 5.515625 26.8125 
Q 5.515625 40.234375 12.765625 48.109375 
Q 20.015625 56 32.328125 56 
Q 43.359375 56 49.78125 48.890625 
Q 56.203125 41.796875 56.203125 29.59375 
z
M 47.21875 32.234375 
Q 47.125 39.59375 43.09375 43.984375 
Q 39.0625 48.390625 32.421875 48.390625 
Q 24.90625 48.390625 20.390625 44.140625 
Q 15.875 39.890625 15.1875 32.171875 
z
" id="DejaVuSans-101"/>
      <path d="M 54.890625 33.015625 
L 54.890625 0 
L 45.90625 0 
L 45.90625 32.71875 
Q 45.90625 40.484375 42.875 44.328125 
Q 39.84375 48.1875 33.796875 48.1875 
Q 26.515625 48.1875 22.3125 43.546875 
Q 18.109375 38.921875 18.109375 30.90625 
L 18.109375 0 
L 9.078125 0 
L 9.078125 54.6875 
L 18.109375 54.6875 
L 18.109375 46.1875 
Q 21.34375 51.125 25.703125 53.5625 
Q 30.078125 56 35.796875 56 
Q 45.21875 56 50.046875 50.171875 
Q 54.890625 44.34375 54.890625 33.015625 
z
" id="DejaVuSans-110"/>
      <path d="M 44.28125 53.078125 
L 44.28125 44.578125 
Q 40.484375 46.53125 36.375 47.5 
Q 32.28125 48.484375 27.875 48.484375 
Q 21.1875 48.484375 17.84375 46.4375 
Q 14.5 44.390625 14.5 40.28125 
Q 14.5 37.15625 16.890625 35.375 
Q 19.28125 33.59375 26.515625 31.984375 
L 29.59375 31.296875 
Q 39.15625 29.25 43.1875 25.515625 
Q 47.21875 21.78125 47.21875 15.09375 
Q 47.21875 7.46875 41.1875 3.015625 
Q 35.15625 -1.421875 24.609375 -1.421875 
Q 20.21875 -1.421875 15.453125 -0.5625 
Q 10.6875 0.296875 5.421875 2 
L 5.421875 11.28125 
Q 10.40625 8.6875 15.234375 7.390625 
Q 20.0625 6.109375 24.8125 6.109375 
Q 31.15625 6.109375 34.5625 8.28125 
Q 37.984375 10.453125 37.984375 14.40625 
Q 37.984375 18.0625 35.515625 20.015625 
Q 33.0625 21.96875 24.703125 23.78125 
L 21.578125 24.515625 
Q 13.234375 26.265625 9.515625 29.90625 
Q 5.8125 33.546875 5.8125 39.890625 
Q 5.8125 47.609375 11.28125 51.796875 
Q 16.75 56 26.8125 56 
Q 31.78125 56 36.171875 55.265625 
Q 40.578125 54.546875 44.28125 53.078125 
z
" id="DejaVuSans-115"/>
      <path id="DejaVuSans-32"/>
      <path d="M 18.109375 8.203125 
L 18.109375 -20.796875 
L 9.078125 -20.796875 
L 9.078125 54.6875 
L 18.109375 54.6875 
L 18.109375 46.390625 
Q 20.953125 51.265625 25.265625 53.625 
Q 29.59375 56 35.59375 56 
Q 45.5625 56 51.78125 48.09375 
Q 58.015625 40.1875 58.015625 27.296875 
Q 58.015625 14.40625 51.78125 6.484375 
Q 45.5625 -1.421875 35.59375 -1.421875 
Q 29.59375 -1.421875 25.265625 0.953125 
Q 20.953125 3.328125 18.109375 8.203125 
z
M 48.6875 27.296875 
Q 48.6875 37.203125 44.609375 42.84375 
Q 40.53125 48.484375 33.40625 48.484375 
Q 26.265625 48.484375 22.1875 42.84375 
Q 18.109375 37.203125 18.109375 27.296875 
Q 18.109375 17.390625 22.1875 11.75 
Q 26.265625 6.109375 33.40625 6.109375 
Q 40.53125 6.109375 44.609375 11.75 
Q 48.6875 17.390625 48.6875 27.296875 
z
" id="DejaVuSans-112"/>
      <path d="M 44.390625 34.1875 
Q 47.5625 33.109375 50.5625 29.59375 
Q 53.5625 26.078125 56.59375 19.921875 
L 66.609375 0 
L 56 0 
L 46.6875 18.703125 
Q 43.0625 26.03125 39.671875 28.421875 
Q 36.28125 30.8125 30.421875 30.8125 
L 19.671875 30.8125 
L 19.671875 0 
L 9.8125 0 
L 9.8125 72.90625 
L 32.078125 72.90625 
Q 44.578125 72.90625 50.734375 67.671875 
Q 56.890625 62.453125 56.890625 51.90625 
Q 56.890625 45.015625 53.6875 40.46875 
Q 50.484375 35.9375 44.390625 34.1875 
z
M 19.671875 64.796875 
L 19.671875 38.921875 
L 32.078125 38.921875 
Q 39.203125 38.921875 42.84375 42.21875 
Q 46.484375 45.515625 46.484375 51.90625 
Q 46.484375 58.296875 42.84375 61.546875 
Q 39.203125 64.796875 32.078125 64.796875 
z
" id="DejaVuSans-82"/>
      <path d="M 45.40625 27.984375 
Q 45.40625 37.75 41.375 43.109375 
Q 37.359375 48.484375 30.078125 48.484375 
Q 22.859375 48.484375 18.828125 43.109375 
Q 14.796875 37.75 14.796875 27.984375 
Q 14.796875 18.265625 18.828125 12.890625 
Q 22.859375 7.515625 30.078125 7.515625 
Q 37.359375 7.515625 41.375 12.890625 
Q 45.40625 18.265625 45.40625 27.984375 
z
M 54.390625 6.78125 
Q 54.390625 -7.171875 48.1875 -13.984375 
Q 42 -20.796875 29.203125 -20.796875 
Q 24.46875 -20.796875 20.265625 -20.09375 
Q 16.0625 -19.390625 12.109375 -17.921875 
L 12.109375 -9.1875 
Q 16.0625 -11.328125 19.921875 -12.34375 
Q 23.78125 -13.375 27.78125 -13.375 
Q 36.625 -13.375 41.015625 -8.765625 
Q 45.40625 -4.15625 45.40625 5.171875 
L 45.40625 9.625 
Q 42.625 4.78125 38.28125 2.390625 
Q 33.9375 0 27.875 0 
Q 17.828125 0 11.671875 7.65625 
Q 5.515625 15.328125 5.515625 27.984375 
Q 5.515625 40.671875 11.671875 48.328125 
Q 17.828125 56 27.875 56 
Q 33.9375 56 38.28125 53.609375 
Q 42.625 51.21875 45.40625 46.390625 
L 45.40625 54.6875 
L 54.390625 54.6875 
z
" id="DejaVuSans-103"/>
      <path d="M 45.40625 46.390625 
L 45.40625 75.984375 
L 54.390625 75.984375 
L 54.390625 0 
L 45.40625 0 
L 45.40625 8.203125 
Q 42.578125 3.328125 38.25 0.953125 
Q 33.9375 -1.421875 27.875 -1.421875 
Q 17.96875 -1.421875 11.734375 6.484375 
Q 5.515625 14.40625 5.515625 27.296875 
Q 5.515625 40.1875 11.734375 48.09375 
Q 17.96875 56 27.875 56 
Q 33.9375 56 38.25 53.625 
Q 42.578125 51.265625 45.40625 46.390625 
z
M 14.796875 27.296875 
Q 14.796875 17.390625 18.875 11.75 
Q 22.953125 6.109375 30.078125 6.109375 
Q 37.203125 6.109375 41.296875 11.75 
Q 45.40625 17.390625 45.40625 27.296875 
Q 45.40625 37.203125 41.296875 42.84375 
Q 37.203125 48.484375 30.078125 48.484375 
Q 22.953125 48.484375 18.875 42.84375 
Q 14.796875 37.203125 14.796875 27.296875 
z
" id="DejaVuSans-100"/>
     </defs>
     <use xlink:href="#DejaVuSans-68"/>
     <use x="77.001953" xlink:href="#DejaVuSans-101"/>
     <use x="138.525391" xlink:href="#DejaVuSans-110"/>
     <use x="201.904297" xlink:href="#DejaVuSans-115"/>
     <use x="254.003906" xlink:href="#DejaVuSans-105"/>
     <use x="281.787109" xlink:href="#DejaVuSans-116"/>
     <use x="320.996094" xlink:href="#DejaVuSans-121"/>
     <use x="380.175781" xlink:href="#DejaVuSans-32"/>
     <use x="411.962891" xlink:href="#DejaVuSans-112"/>
     <use x="475.439453" xlink:href="#DejaVuSans-108"/>
     <use x="503.222656" xlink:href="#DejaVuSans-111"/>
     <use x="564.404297" xlink:href="#DejaVuSans-116"/>
     <use x="603.613281" xlink:href="#DejaVuSans-32"/>
     <use x="635.400391" xlink:href="#DejaVuSans-82"/>
     <use x="702.632812" xlink:href="#DejaVuSans-97"/>
     <use x="763.912109" xlink:href="#DejaVuSans-116"/>
     <use x="803.121094" xlink:href="#DejaVuSans-105"/>
     <use x="830.904297" xlink:href="#DejaVuSans-110"/>
     <use x="894.283203" xlink:href="#DejaVuSans-103"/>
     <use x="957.759766" xlink:href="#DejaVuSans-32"/>
     <use x="989.546875" xlink:href="#DejaVuSans-97"/>
     <use x="1050.826172" xlink:href="#DejaVuSans-110"/>
     <use x="1114.205078" xlink:href="#DejaVuSans-100"/>
     <use x="1177.681641" xlink:href="#DejaVuSans-32"/>
     <use x="1209.46875" xlink:href="#DejaVuSans-80"/>
     <use x="1266.146484" xlink:href="#DejaVuSans-111"/>
     <use x="1327.328125" xlink:href="#DejaVuSans-108"/>
     <use x="1355.111328" xlink:href="#DejaVuSans-97"/>
     <use x="1416.390625" xlink:href="#DejaVuSans-114"/>
     <use x="1457.503906" xlink:href="#DejaVuSans-105"/>
     <use x="1485.287109" xlink:href="#DejaVuSans-116"/>
     <use x="1524.496094" xlink:href="#DejaVuSans-121"/>
    </g>
   </g>
  </g>
 </g>
 <defs>
  <clipPath id="pcac8e9a101">
   <rect height="217.44" width="502.2" x="58.523438" y="22.318125"/>
  </clipPath>
 </defs>
</svg>
