<?xml version="1.0" encoding="utf-8" standalone="no"?>
<!DOCTYPE svg PUBLIC "-//W3C//DTD SVG 1.1//EN"
  "http://www.w3.org/Graphics/SVG/1.1/DTD/svg11.dtd">
<!-- Created with matplotlib (https://matplotlib.org/) -->
<svg height="263.63625pt" version="1.1" viewBox="0 0 556.365625 263.63625" width="556.365625pt" xmlns="http://www.w3.org/2000/svg" xmlns:xlink="http://www.w3.org/1999/xlink">
 <metadata>
  <rdf:RDF xmlns:cc="http://creativecommons.org/ns#" xmlns:dc="http://purl.org/dc/elements/1.1/" xmlns:rdf="http://www.w3.org/1999/02/22-rdf-syntax-ns#">
   <cc:Work>
    <dc:type rdf:resource="http://purl.org/dc/dcmitype/StillImage"/>
    <dc:date>2020-09-17T12:42:57.015146</dc:date>
    <dc:format>image/svg+xml</dc:format>
    <dc:creator>
     <cc:Agent>
      <dc:title>Matplotlib v3.3.0, https://matplotlib.org/</dc:title>
     </cc:Agent>
    </dc:creator>
   </cc:Work>
  </rdf:RDF>
 </metadata>
 <defs>
  <style type="text/css">*{stroke-linecap:butt;stroke-linejoin:round;}</style>
 </defs>
 <g id="figure_1">
  <g id="patch_1">
   <path d="M 0 263.63625 
L 556.365625 263.63625 
L 556.365625 0 
L 0 0 
z
" style="fill:none;"/>
  </g>
  <g id="axes_1">
   <g id="patch_2">
    <path d="M 46.965625 239.758125 
L 549.165625 239.758125 
L 549.165625 22.318125 
L 46.965625 22.318125 
z
" style="fill:#ffffff;"/>
   </g>
   <g id="PolyCollection_1">
    <path clip-path="url(#pe658b776ff)" d="M 98.289054 186.685489 
L 92.024015 186.685489 
L 91.613755 185.292837 
L 91.162813 183.900185 
L 90.665981 182.507533 
L 90.117766 181.11488 
L 89.512882 179.722228 
L 88.846863 178.329576 
L 88.116756 176.936924 
L 87.321828 175.544271 
L 86.464209 174.151619 
L 85.549375 172.758967 
L 84.586409 171.366314 
L 83.587943 169.973662 
L 82.569783 168.58101 
L 81.550176 167.188358 
L 80.548796 165.795705 
L 79.585493 164.403053 
L 78.678949 163.010401 
L 77.845339 161.617749 
L 77.097156 160.225096 
L 76.4423 158.832444 
L 75.883524 157.439792 
L 75.418295 156.04714 
L 75.039061 154.654487 
L 74.733899 153.261835 
L 74.487463 151.869183 
L 74.282152 150.47653 
L 74.099383 149.083878 
L 73.920887 147.691226 
L 73.729947 146.298574 
L 73.512512 144.905921 
L 73.258152 143.513269 
L 72.960826 142.120617 
L 72.619449 140.727965 
L 72.238224 139.335312 
L 71.826732 137.94266 
L 71.399734 136.550008 
L 70.976662 135.157356 
L 70.580768 133.764703 
L 70.237935 132.372051 
L 69.975172 130.979399 
L 69.818865 129.586746 
L 69.792898 128.194094 
L 69.916795 126.801442 
L 70.204053 125.40879 
L 70.660838 124.016137 
L 71.285209 122.623485 
L 72.06696 121.230833 
L 72.988131 119.838181 
L 74.024156 118.445528 
L 75.14554 117.052876 
L 76.319913 115.660224 
L 77.51425 114.267571 
L 78.697048 112.874919 
L 79.840261 111.482267 
L 80.920829 110.089615 
L 81.921697 108.696962 
L 82.832264 107.30431 
L 83.648286 105.911658 
L 84.371302 104.519006 
L 85.007671 103.126353 
L 85.567376 101.733701 
L 86.062707 100.341049 
L 86.506967 98.948397 
L 86.913317 97.555744 
L 87.293811 96.163092 
L 87.658711 94.77044 
L 88.016062 93.377787 
L 88.371533 91.985135 
L 88.728486 90.592483 
L 89.088214 89.199831 
L 89.450292 87.807178 
L 89.812984 86.414526 
L 90.173649 85.021874 
L 90.529108 83.629222 
L 90.875946 82.236569 
L 91.210749 80.843917 
L 91.530256 79.451265 
L 91.831469 78.058613 
L 92.11171 76.66596 
L 92.368671 75.273308 
L 92.600449 73.880656 
L 92.805593 72.488003 
L 92.983163 71.095351 
L 93.132791 69.702699 
L 93.254747 68.310047 
L 93.349996 66.917394 
L 93.420225 65.524742 
L 93.467843 64.13209 
L 93.495946 62.739438 
L 93.508224 61.346785 
L 93.508842 59.954133 
L 93.50227 58.561481 
L 93.493087 57.168829 
L 93.485763 55.776176 
L 93.484442 54.383524 
L 93.492726 52.990872 
L 93.513487 51.598219 
L 93.548723 50.205567 
L 93.599465 48.812915 
L 96.713603 48.812915 
L 96.713603 48.812915 
L 96.764345 50.205567 
L 96.799582 51.598219 
L 96.820342 52.990872 
L 96.828626 54.383524 
L 96.827305 55.776176 
L 96.819982 57.168829 
L 96.810798 58.561481 
L 96.804226 59.954133 
L 96.804844 61.346785 
L 96.817123 62.739438 
L 96.845225 64.13209 
L 96.892843 65.524742 
L 96.963072 66.917394 
L 97.058321 68.310047 
L 97.180277 69.702699 
L 97.329905 71.095351 
L 97.507475 72.488003 
L 97.712619 73.880656 
L 97.944397 75.273308 
L 98.201358 76.66596 
L 98.4816 78.058613 
L 98.782812 79.451265 
L 99.102319 80.843917 
L 99.437122 82.236569 
L 99.783961 83.629222 
L 100.139419 85.021874 
L 100.500084 86.414526 
L 100.862776 87.807178 
L 101.224854 89.199831 
L 101.584582 90.592483 
L 101.941535 91.985135 
L 102.297006 93.377787 
L 102.654357 94.77044 
L 103.019257 96.163092 
L 103.399752 97.555744 
L 103.806101 98.948397 
L 104.250362 100.341049 
L 104.745692 101.733701 
L 105.305397 103.126353 
L 105.941767 104.519006 
L 106.664782 105.911658 
L 107.480805 107.30431 
L 108.391371 108.696962 
L 109.392239 110.089615 
L 110.472807 111.482267 
L 111.61602 112.874919 
L 112.798818 114.267571 
L 113.993155 115.660224 
L 115.167529 117.052876 
L 116.288912 118.445528 
L 117.324937 119.838181 
L 118.246108 121.230833 
L 119.027859 122.623485 
L 119.652231 124.016137 
L 120.109016 125.40879 
L 120.396273 126.801442 
L 120.52017 128.194094 
L 120.494204 129.586746 
L 120.337896 130.979399 
L 120.075133 132.372051 
L 119.7323 133.764703 
L 119.336406 135.157356 
L 118.913334 136.550008 
L 118.486336 137.94266 
L 118.074844 139.335312 
L 117.69362 140.727965 
L 117.352242 142.120617 
L 117.054917 143.513269 
L 116.800556 144.905921 
L 116.583121 146.298574 
L 116.392181 147.691226 
L 116.213685 149.083878 
L 116.030916 150.47653 
L 115.825605 151.869183 
L 115.57917 153.261835 
L 115.274007 154.654487 
L 114.894774 156.04714 
L 114.429544 157.439792 
L 113.870769 158.832444 
L 113.215912 160.225096 
L 112.467729 161.617749 
L 111.63412 163.010401 
L 110.727575 164.403053 
L 109.764272 165.795705 
L 108.762892 167.188358 
L 107.743285 168.58101 
L 106.725125 169.973662 
L 105.726659 171.366314 
L 104.763693 172.758967 
L 103.848859 174.151619 
L 102.99124 175.544271 
L 102.196312 176.936924 
L 101.466205 178.329576 
L 100.800186 179.722228 
L 100.195303 181.11488 
L 99.647088 182.507533 
L 99.150255 183.900185 
L 98.699313 185.292837 
L 98.289054 186.685489 
z
" style="fill:#1f77b4;fill-opacity:0.3;"/>
   </g>
   <g id="PolyCollection_2">
    <path clip-path="url(#pe658b776ff)" d="M 197.593447 229.874489 
L 195.628712 229.874489 
L 195.542049 227.877794 
L 195.43728 225.8811 
L 195.303182 223.884406 
L 195.12632 221.887712 
L 194.89158 219.891018 
L 194.582891 217.894323 
L 194.18411 215.897629 
L 193.680002 213.900935 
L 193.057278 211.904241 
L 192.305632 209.907546 
L 191.418742 207.910852 
L 190.395152 205.914158 
L 189.238999 203.917464 
L 187.960482 201.92077 
L 186.576008 199.924075 
L 185.107931 197.927381 
L 183.583826 195.930687 
L 182.035287 193.933993 
L 180.496319 191.937299 
L 179.001413 189.940604 
L 177.58352 187.94391 
L 176.272119 185.947216 
L 175.091622 183.950522 
L 174.06028 181.953827 
L 173.189717 179.957133 
L 172.485075 177.960439 
L 171.94569 175.963745 
L 171.566112 173.967051 
L 171.33725 171.970356 
L 171.247443 169.973662 
L 171.283294 167.976968 
L 171.430194 165.980274 
L 171.672565 163.98358 
L 171.993929 161.986885 
L 172.376943 159.990191 
L 172.803568 157.993497 
L 173.255489 155.996803 
L 173.714853 154.000108 
L 174.165298 152.003414 
L 174.593193 150.00672 
L 174.988933 148.010026 
L 175.348099 146.013332 
L 175.672304 144.016637 
L 175.969544 142.019943 
L 176.253919 140.023249 
L 176.544668 138.026555 
L 176.864512 136.029861 
L 177.237417 134.033166 
L 177.685975 132.036472 
L 178.228666 130.039778 
L 178.877368 128.043084 
L 179.635441 126.046389 
L 180.49672 124.049695 
L 181.445602 122.053001 
L 182.45832 120.056307 
L 183.505253 118.059613 
L 184.554009 116.062918 
L 185.572847 114.066224 
L 186.533972 112.06953 
L 187.416219 110.072836 
L 188.206795 108.076142 
L 188.901861 106.079447 
L 189.505952 104.082753 
L 190.030416 102.086059 
L 190.491168 100.089365 
L 190.906157 98.09267 
L 191.292918 96.095976 
L 191.666547 94.099282 
L 192.038292 92.102588 
L 192.41487 90.105894 
L 192.798469 88.109199 
L 193.187307 86.112505 
L 193.57658 84.115811 
L 193.959587 82.119117 
L 194.328861 80.122423 
L 194.677162 78.125728 
L 194.998229 76.129034 
L 195.28727 74.13234 
L 195.541181 72.135646 
L 195.758524 70.138951 
L 195.939342 68.142257 
L 196.084858 66.145563 
L 196.197126 64.148869 
L 196.278704 62.152175 
L 196.332373 60.15548 
L 196.36095 58.158786 
L 196.367191 56.162092 
L 196.353796 54.165398 
L 196.323482 52.168704 
L 196.279098 50.172009 
L 196.223749 48.175315 
L 196.160881 46.178621 
L 196.094297 44.181927 
L 196.028083 42.185232 
L 195.966439 40.188538 
L 195.913424 38.191844 
L 195.872659 36.19515 
L 195.847014 34.198456 
L 195.83835 32.201761 
L 197.383809 32.201761 
L 197.383809 32.201761 
L 197.375145 34.198456 
L 197.3495 36.19515 
L 197.308735 38.191844 
L 197.255721 40.188538 
L 197.194076 42.185232 
L 197.127863 44.181927 
L 197.061278 46.178621 
L 196.99841 48.175315 
L 196.943062 50.172009 
L 196.898678 52.168704 
L 196.868363 54.165398 
L 196.854968 56.162092 
L 196.861209 58.158786 
L 196.889786 60.15548 
L 196.943455 62.152175 
L 197.025033 64.148869 
L 197.137301 66.145563 
L 197.282817 68.142257 
L 197.463635 70.138951 
L 197.680978 72.135646 
L 197.934889 74.13234 
L 198.223931 76.129034 
L 198.544997 78.125728 
L 198.893298 80.122423 
L 199.262573 82.119117 
L 199.645579 84.115811 
L 200.034852 86.112505 
L 200.42369 88.109199 
L 200.807289 90.105894 
L 201.183867 92.102588 
L 201.555612 94.099282 
L 201.929241 96.095976 
L 202.316002 98.09267 
L 202.730991 100.089365 
L 203.191743 102.086059 
L 203.716207 104.082753 
L 204.320298 106.079447 
L 205.015364 108.076142 
L 205.80594 110.072836 
L 206.688187 112.06953 
L 207.649312 114.066224 
L 208.66815 116.062918 
L 209.716906 118.059613 
L 210.763839 120.056307 
L 211.776557 122.053001 
L 212.725439 124.049695 
L 213.586718 126.046389 
L 214.344792 128.043084 
L 214.993493 130.039778 
L 215.536184 132.036472 
L 215.984742 134.033166 
L 216.357647 136.029861 
L 216.677491 138.026555 
L 216.96824 140.023249 
L 217.252615 142.019943 
L 217.549855 144.016637 
L 217.87406 146.013332 
L 218.233226 148.010026 
L 218.628966 150.00672 
L 219.056861 152.003414 
L 219.507306 154.000108 
L 219.96667 155.996803 
L 220.418591 157.993497 
L 220.845216 159.990191 
L 221.22823 161.986885 
L 221.549594 163.98358 
L 221.791965 165.980274 
L 221.938865 167.976968 
L 221.974716 169.973662 
L 221.884909 171.970356 
L 221.656047 173.967051 
L 221.276469 175.963745 
L 220.737084 177.960439 
L 220.032443 179.957133 
L 219.161879 181.953827 
L 218.130537 183.950522 
L 216.95004 185.947216 
L 215.638639 187.94391 
L 214.220746 189.940604 
L 212.72584 191.937299 
L 211.186872 193.933993 
L 209.638333 195.930687 
L 208.114228 197.927381 
L 206.646151 199.924075 
L 205.261678 201.92077 
L 203.98316 203.917464 
L 202.827007 205.914158 
L 201.803417 207.910852 
L 200.916527 209.907546 
L 200.164882 211.904241 
L 199.542157 213.900935 
L 199.038049 215.897629 
L 198.639268 217.894323 
L 198.33058 219.891018 
L 198.095839 221.887712 
L 197.918977 223.884406 
L 197.784879 225.8811 
L 197.68011 227.877794 
L 197.593447 229.874489 
z
" style="fill:#1f77b4;fill-opacity:0.3;"/>
   </g>
   <g id="PolyCollection_3">
    <path clip-path="url(#pe658b776ff)" d="M 308.436656 224.891143 
L 287.694594 224.891143 
L 286.952088 224.018638 
L 286.200265 223.146133 
L 285.441891 222.273627 
L 284.679673 221.401122 
L 283.916271 220.528617 
L 283.154312 219.656112 
L 282.396417 218.783607 
L 281.645239 217.911102 
L 280.903489 217.038597 
L 280.173979 216.166092 
L 279.459647 215.293587 
L 278.763572 214.421082 
L 278.088987 213.548577 
L 277.439265 212.676072 
L 276.817897 211.803567 
L 276.228445 210.931062 
L 275.674485 210.058557 
L 275.159529 209.186052 
L 274.68694 208.313547 
L 274.259837 207.441042 
L 273.880992 206.568537 
L 273.552742 205.696032 
L 273.27689 204.823527 
L 273.05464 203.951022 
L 272.886531 203.078517 
L 272.772409 202.206012 
L 272.711412 201.333507 
L 272.701989 200.461002 
L 272.74194 199.588497 
L 272.828492 198.715992 
L 272.958381 197.843486 
L 273.127968 196.970981 
L 273.333356 196.098476 
L 273.570523 195.225971 
L 273.835451 194.353466 
L 274.12425 193.480961 
L 274.433273 192.608456 
L 274.759215 191.735951 
L 275.099189 190.863446 
L 275.450783 189.990941 
L 275.812086 189.118436 
L 276.181698 188.245931 
L 276.558701 187.373426 
L 276.94262 186.500921 
L 277.333351 185.628416 
L 277.731084 184.755911 
L 278.136199 183.883406 
L 278.549165 183.010901 
L 278.97043 182.138396 
L 279.400317 181.265891 
L 279.838926 180.393386 
L 280.286051 179.520881 
L 280.741122 178.648376 
L 281.203159 177.775871 
L 281.670767 176.903366 
L 282.142154 176.030861 
L 282.615177 175.158356 
L 283.087418 174.285851 
L 283.556291 173.413346 
L 284.019157 172.54084 
L 284.473461 171.668335 
L 284.916865 170.79583 
L 285.347384 169.923325 
L 285.763503 169.05082 
L 286.164264 168.178315 
L 286.549336 167.30581 
L 286.919036 166.433305 
L 287.274316 165.5608 
L 287.616707 164.688295 
L 287.948229 163.81579 
L 288.271265 162.943285 
L 288.58841 162.07078 
L 288.90231 161.198275 
L 289.21549 160.32577 
L 289.530199 159.453265 
L 289.84826 158.58076 
L 290.170961 157.708255 
L 290.498974 156.83575 
L 290.832311 155.963245 
L 291.170331 155.09074 
L 291.511778 154.218235 
L 291.854865 153.34573 
L 292.197379 152.473225 
L 292.536819 151.60072 
L 292.870537 150.728215 
L 293.195892 149.85571 
L 293.510389 148.983205 
L 293.811807 148.110699 
L 294.098303 147.238194 
L 294.368492 146.365689 
L 294.62149 145.493184 
L 294.856927 144.620679 
L 295.074935 143.748174 
L 295.2761 142.875669 
L 295.461398 142.003164 
L 295.632112 141.130659 
L 295.789737 140.258154 
L 295.935888 139.385649 
L 296.072205 138.513144 
L 300.059045 138.513144 
L 300.059045 138.513144 
L 300.195362 139.385649 
L 300.341513 140.258154 
L 300.499138 141.130659 
L 300.669852 142.003164 
L 300.85515 142.875669 
L 301.056315 143.748174 
L 301.274323 144.620679 
L 301.50976 145.493184 
L 301.762758 146.365689 
L 302.032947 147.238194 
L 302.319443 148.110699 
L 302.620861 148.983205 
L 302.935358 149.85571 
L 303.260713 150.728215 
L 303.594431 151.60072 
L 303.933871 152.473225 
L 304.276385 153.34573 
L 304.619472 154.218235 
L 304.960919 155.09074 
L 305.298939 155.963245 
L 305.632276 156.83575 
L 305.960289 157.708255 
L 306.28299 158.58076 
L 306.601051 159.453265 
L 306.91576 160.32577 
L 307.22894 161.198275 
L 307.54284 162.07078 
L 307.859985 162.943285 
L 308.183021 163.81579 
L 308.514543 164.688295 
L 308.856934 165.5608 
L 309.212214 166.433305 
L 309.581914 167.30581 
L 309.966986 168.178315 
L 310.367747 169.05082 
L 310.783866 169.923325 
L 311.214385 170.79583 
L 311.657789 171.668335 
L 312.112093 172.54084 
L 312.574959 173.413346 
L 313.043832 174.285851 
L 313.516073 175.158356 
L 313.989096 176.030861 
L 314.460483 176.903366 
L 314.928091 177.775871 
L 315.390128 178.648376 
L 315.845199 179.520881 
L 316.292324 180.393386 
L 316.730933 181.265891 
L 317.16082 182.138396 
L 317.582085 183.010901 
L 317.995051 183.883406 
L 318.400166 184.755911 
L 318.797899 185.628416 
L 319.18863 186.500921 
L 319.572549 187.373426 
L 319.949552 188.245931 
L 320.319164 189.118436 
L 320.680467 189.990941 
L 321.032061 190.863446 
L 321.372035 191.735951 
L 321.697977 192.608456 
L 322.007 193.480961 
L 322.295799 194.353466 
L 322.560727 195.225971 
L 322.797894 196.098476 
L 323.003282 196.970981 
L 323.172869 197.843486 
L 323.302758 198.715992 
L 323.38931 199.588497 
L 323.429261 200.461002 
L 323.419838 201.333507 
L 323.358841 202.206012 
L 323.244719 203.078517 
L 323.07661 203.951022 
L 322.85436 204.823527 
L 322.578508 205.696032 
L 322.250258 206.568537 
L 321.871413 207.441042 
L 321.44431 208.313547 
L 320.971721 209.186052 
L 320.456765 210.058557 
L 319.902805 210.931062 
L 319.313353 211.803567 
L 318.691985 212.676072 
L 318.042263 213.548577 
L 317.367678 214.421082 
L 316.671603 215.293587 
L 315.957271 216.166092 
L 315.227761 217.038597 
L 314.486011 217.911102 
L 313.734833 218.783607 
L 312.976938 219.656112 
L 312.214979 220.528617 
L 311.451577 221.401122 
L 310.689359 222.273627 
L 309.930985 223.146133 
L 309.179162 224.018638 
L 308.436656 224.891143 
z
" style="fill:#1f77b4;fill-opacity:0.3;"/>
   </g>
   <g id="PolyCollection_4">
    <path clip-path="url(#pe658b776ff)" d="M 402.868902 216.585566 
L 396.171439 216.585566 
L 396.095245 215.645945 
L 396.020191 214.706324 
L 395.944551 213.766703 
L 395.866339 212.827083 
L 395.783341 211.887462 
L 395.693143 210.947841 
L 395.593178 210.00822 
L 395.480764 209.068599 
L 395.353162 208.128979 
L 395.207626 207.189358 
L 395.041465 206.249737 
L 394.852102 205.310116 
L 394.63713 204.370495 
L 394.394373 203.430874 
L 394.12194 202.491254 
L 393.818273 201.551633 
L 393.482196 200.612012 
L 393.112946 199.672391 
L 392.710205 198.73277 
L 392.274117 197.79315 
L 391.8053 196.853529 
L 391.304843 195.913908 
L 390.774293 194.974287 
L 390.215632 194.034666 
L 389.631247 193.095046 
L 389.023885 192.155425 
L 388.396606 191.215804 
L 387.75272 190.276183 
L 387.095731 189.336562 
L 386.429264 188.396942 
L 385.757004 187.457321 
L 385.082621 186.5177 
L 384.409712 185.578079 
L 383.741737 184.638458 
L 383.081965 183.698838 
L 382.433431 182.759217 
L 381.798899 181.819596 
L 381.180837 180.879975 
L 380.581407 179.940354 
L 380.00246 179.000734 
L 379.445551 178.061113 
L 378.911958 177.121492 
L 378.402715 176.181871 
L 377.918654 175.24225 
L 377.460449 174.302629 
L 377.02867 173.363009 
L 376.623834 172.423388 
L 376.246457 171.483767 
L 375.897102 170.544146 
L 375.576421 169.604525 
L 375.285192 168.664905 
L 375.024336 167.725284 
L 374.794934 166.785663 
L 374.598226 165.846042 
L 374.43559 164.906421 
L 374.308525 163.966801 
L 374.218602 163.02718 
L 374.167417 162.087559 
L 374.156534 161.147938 
L 374.187413 160.208317 
L 374.261344 159.268697 
L 374.379373 158.329076 
L 374.542235 157.389455 
L 374.750287 156.449834 
L 375.003454 155.510213 
L 375.301182 154.570593 
L 375.642406 153.630972 
L 376.025528 152.691351 
L 376.448422 151.75173 
L 376.908441 150.812109 
L 377.402451 149.872488 
L 377.926877 148.932868 
L 378.477762 147.993247 
L 379.050841 147.053626 
L 379.641629 146.114005 
L 380.245504 145.174384 
L 380.857811 144.234764 
L 381.473957 143.295143 
L 382.089505 142.355522 
L 382.70027 141.415901 
L 383.302399 140.47628 
L 383.892449 139.53666 
L 384.467443 138.597039 
L 385.024923 137.657418 
L 385.56298 136.717797 
L 386.080265 135.778176 
L 386.575998 134.838556 
L 387.04994 133.898935 
L 387.502372 132.959314 
L 387.934042 132.019693 
L 388.346112 131.080072 
L 388.740093 130.140452 
L 389.117767 129.200831 
L 389.481112 128.26121 
L 389.832226 127.321589 
L 390.17324 126.381968 
L 390.506251 125.442348 
L 390.833246 124.502727 
L 391.156045 123.563106 
L 407.884296 123.563106 
L 407.884296 123.563106 
L 408.207095 124.502727 
L 408.53409 125.442348 
L 408.867101 126.381968 
L 409.208115 127.321589 
L 409.559228 128.26121 
L 409.922574 129.200831 
L 410.300248 130.140452 
L 410.694229 131.080072 
L 411.106299 132.019693 
L 411.537969 132.959314 
L 411.990401 133.898935 
L 412.464343 134.838556 
L 412.960075 135.778176 
L 413.477361 136.717797 
L 414.015418 137.657418 
L 414.572898 138.597039 
L 415.147892 139.53666 
L 415.737942 140.47628 
L 416.340071 141.415901 
L 416.950836 142.355522 
L 417.566384 143.295143 
L 418.18253 144.234764 
L 418.794837 145.174384 
L 419.398712 146.114005 
L 419.989499 147.053626 
L 420.562579 147.993247 
L 421.113464 148.932868 
L 421.637889 149.872488 
L 422.1319 150.812109 
L 422.591919 151.75173 
L 423.014813 152.691351 
L 423.397935 153.630972 
L 423.739158 154.570593 
L 424.036887 155.510213 
L 424.290054 156.449834 
L 424.498106 157.389455 
L 424.660968 158.329076 
L 424.778997 159.268697 
L 424.852928 160.208317 
L 424.883807 161.147938 
L 424.872924 162.087559 
L 424.821739 163.02718 
L 424.731816 163.966801 
L 424.604751 164.906421 
L 424.442115 165.846042 
L 424.245407 166.785663 
L 424.016005 167.725284 
L 423.755149 168.664905 
L 423.463919 169.604525 
L 423.143239 170.544146 
L 422.793884 171.483767 
L 422.416507 172.423388 
L 422.011671 173.363009 
L 421.579892 174.302629 
L 421.121687 175.24225 
L 420.637626 176.181871 
L 420.128383 177.121492 
L 419.59479 178.061113 
L 419.037881 179.000734 
L 418.458934 179.940354 
L 417.859504 180.879975 
L 417.241442 181.819596 
L 416.60691 182.759217 
L 415.958376 183.698838 
L 415.298604 184.638458 
L 414.630629 185.578079 
L 413.95772 186.5177 
L 413.283337 187.457321 
L 412.611077 188.396942 
L 411.94461 189.336562 
L 411.287621 190.276183 
L 410.643735 191.215804 
L 410.016456 192.155425 
L 409.409094 193.095046 
L 408.824709 194.034666 
L 408.266048 194.974287 
L 407.735497 195.913908 
L 407.23504 196.853529 
L 406.766224 197.79315 
L 406.330136 198.73277 
L 405.927395 199.672391 
L 405.558145 200.612012 
L 405.222067 201.551633 
L 404.918401 202.491254 
L 404.645968 203.430874 
L 404.403211 204.370495 
L 404.188239 205.310116 
L 403.998876 206.249737 
L 403.832715 207.189358 
L 403.687179 208.128979 
L 403.559577 209.068599 
L 403.447163 210.00822 
L 403.347197 210.947841 
L 403.257 211.887462 
L 403.174002 212.827083 
L 403.09579 213.766703 
L 403.02015 214.706324 
L 402.945096 215.645945 
L 402.868902 216.585566 
z
" style="fill:#1f77b4;fill-opacity:0.3;"/>
   </g>
   <g id="PolyCollection_5">
    <path clip-path="url(#pe658b776ff)" d="M 518.917356 199.974412 
L 483.032076 199.974412 
L 482.366113 198.715992 
L 481.715628 197.457571 
L 481.08372 196.19915 
L 480.473453 194.940729 
L 479.887833 193.682309 
L 479.329784 192.423888 
L 478.802114 191.165467 
L 478.3075 189.907046 
L 477.848456 188.648626 
L 477.42731 187.390205 
L 477.046189 186.131784 
L 476.706988 184.873364 
L 476.411362 183.614943 
L 476.160705 182.356522 
L 475.956137 181.098101 
L 475.798495 179.839681 
L 475.688322 178.58126 
L 475.625867 177.322839 
L 475.61108 176.064418 
L 475.643611 174.805998 
L 475.722819 173.547577 
L 475.847779 172.289156 
L 476.017286 171.030736 
L 476.229877 169.772315 
L 476.48384 168.513894 
L 476.777234 167.255473 
L 477.107912 165.997053 
L 477.47354 164.738632 
L 477.871623 163.480211 
L 478.299529 162.221791 
L 478.754517 160.96337 
L 479.233761 159.704949 
L 479.734383 158.446528 
L 480.253473 157.188108 
L 480.788122 155.929687 
L 481.335444 154.671266 
L 481.892601 153.412845 
L 482.456831 152.154425 
L 483.025461 150.896004 
L 483.595937 149.637583 
L 484.165833 148.379163 
L 484.732868 147.120742 
L 485.294922 145.862321 
L 485.850042 144.6039 
L 486.396449 143.34548 
L 486.932545 142.087059 
L 487.456912 140.828638 
L 487.968312 139.570218 
L 488.465687 138.311797 
L 488.948146 137.053376 
L 489.414966 135.794955 
L 489.865577 134.536535 
L 490.299553 133.278114 
L 490.716601 132.019693 
L 491.11655 130.761272 
L 491.499331 129.502852 
L 491.864974 128.244431 
L 492.213584 126.98601 
L 492.545337 125.72759 
L 492.860462 124.469169 
L 493.159234 123.210748 
L 493.441959 121.952327 
L 493.708972 120.693907 
L 493.960622 119.435486 
L 494.197272 118.177065 
L 494.419292 116.918644 
L 494.627056 115.660224 
L 494.820942 114.401803 
L 495.00133 113.143382 
L 495.168607 111.884962 
L 495.323163 110.626541 
L 495.4654 109.36812 
L 495.595735 108.109699 
L 495.7146 106.851279 
L 495.822451 105.592858 
L 495.919769 104.334437 
L 496.007067 103.076017 
L 496.084891 101.817596 
L 496.153824 100.559175 
L 496.214489 99.300754 
L 496.267545 98.042334 
L 496.313692 96.783913 
L 496.35367 95.525492 
L 496.388249 94.267071 
L 496.418233 93.008651 
L 496.44445 91.75023 
L 496.467749 90.491809 
L 496.488987 89.233389 
L 496.509029 87.974968 
L 496.528731 86.716547 
L 496.548936 85.458126 
L 496.570462 84.199706 
L 496.594094 82.941285 
L 496.620571 81.682864 
L 496.650583 80.424443 
L 496.684754 79.166023 
L 496.723643 77.907602 
L 496.767731 76.649181 
L 496.817418 75.390761 
L 505.132014 75.390761 
L 505.132014 75.390761 
L 505.181701 76.649181 
L 505.225789 77.907602 
L 505.264678 79.166023 
L 505.298849 80.424443 
L 505.328861 81.682864 
L 505.355338 82.941285 
L 505.37897 84.199706 
L 505.400496 85.458126 
L 505.420701 86.716547 
L 505.440403 87.974968 
L 505.460445 89.233389 
L 505.481683 90.491809 
L 505.504981 91.75023 
L 505.531199 93.008651 
L 505.561183 94.267071 
L 505.595762 95.525492 
L 505.635739 96.783913 
L 505.681887 98.042334 
L 505.734943 99.300754 
L 505.795607 100.559175 
L 505.864541 101.817596 
L 505.942365 103.076017 
L 506.029663 104.334437 
L 506.126981 105.592858 
L 506.234832 106.851279 
L 506.353697 108.109699 
L 506.484031 109.36812 
L 506.626269 110.626541 
L 506.780825 111.884962 
L 506.948101 113.143382 
L 507.12849 114.401803 
L 507.322375 115.660224 
L 507.530139 116.918644 
L 507.752159 118.177065 
L 507.988809 119.435486 
L 508.24046 120.693907 
L 508.507472 121.952327 
L 508.790198 123.210748 
L 509.08897 124.469169 
L 509.404095 125.72759 
L 509.735848 126.98601 
L 510.084458 128.244431 
L 510.4501 129.502852 
L 510.832882 130.761272 
L 511.232831 132.019693 
L 511.649879 133.278114 
L 512.083855 134.536535 
L 512.534466 135.794955 
L 513.001286 137.053376 
L 513.483745 138.311797 
L 513.981119 139.570218 
L 514.49252 140.828638 
L 515.016887 142.087059 
L 515.552983 143.34548 
L 516.09939 144.6039 
L 516.654509 145.862321 
L 517.216563 147.120742 
L 517.783599 148.379163 
L 518.353494 149.637583 
L 518.92397 150.896004 
L 519.492601 152.154425 
L 520.056831 153.412845 
L 520.613988 154.671266 
L 521.16131 155.929687 
L 521.695959 157.188108 
L 522.215049 158.446528 
L 522.715671 159.704949 
L 523.194915 160.96337 
L 523.649903 162.221791 
L 524.077809 163.480211 
L 524.475891 164.738632 
L 524.84152 165.997053 
L 525.172198 167.255473 
L 525.465592 168.513894 
L 525.719555 169.772315 
L 525.932146 171.030736 
L 526.101653 172.289156 
L 526.226613 173.547577 
L 526.305821 174.805998 
L 526.338352 176.064418 
L 526.323564 177.322839 
L 526.26111 178.58126 
L 526.150937 179.839681 
L 525.993295 181.098101 
L 525.788727 182.356522 
L 525.53807 183.614943 
L 525.242444 184.873364 
L 524.903243 186.131784 
L 524.522121 187.390205 
L 524.100976 188.648626 
L 523.641931 189.907046 
L 523.147318 191.165467 
L 522.619648 192.423888 
L 522.061599 193.682309 
L 521.475979 194.940729 
L 520.865712 196.19915 
L 520.233804 197.457571 
L 519.583319 198.715992 
L 518.917356 199.974412 
z
" style="fill:#1f77b4;fill-opacity:0.3;"/>
   </g>
   <g id="matplotlib.axis_1">
    <g id="xtick_1">
     <g id="line2d_1">
      <defs>
       <path d="M 0 0 
L 0 3.5 
" id="m521c19d39b" style="stroke:#000000;stroke-width:0.8;"/>
      </defs>
      <g>
       <use style="stroke:#000000;stroke-width:0.8;" x="95.156534" xlink:href="#m521c19d39b" y="239.758125"/>
      </g>
     </g>
     <g id="text_1">
      <!-- Entire condominium -->
      <g transform="translate(44.803409 254.356563)scale(0.1 -0.1)">
       <defs>
        <path d="M 9.8125 72.90625 
L 55.90625 72.90625 
L 55.90625 64.59375 
L 19.671875 64.59375 
L 19.671875 43.015625 
L 54.390625 43.015625 
L 54.390625 34.71875 
L 19.671875 34.71875 
L 19.671875 8.296875 
L 56.78125 8.296875 
L 56.78125 0 
L 9.8125 0 
z
" id="DejaVuSans-69"/>
        <path d="M 54.890625 33.015625 
L 54.890625 0 
L 45.90625 0 
L 45.90625 32.71875 
Q 45.90625 40.484375 42.875 44.328125 
Q 39.84375 48.1875 33.796875 48.1875 
Q 26.515625 48.1875 22.3125 43.546875 
Q 18.109375 38.921875 18.109375 30.90625 
L 18.109375 0 
L 9.078125 0 
L 9.078125 54.6875 
L 18.109375 54.6875 
L 18.109375 46.1875 
Q 21.34375 51.125 25.703125 53.5625 
Q 30.078125 56 35.796875 56 
Q 45.21875 56 50.046875 50.171875 
Q 54.890625 44.34375 54.890625 33.015625 
z
" id="DejaVuSans-110"/>
        <path d="M 18.3125 70.21875 
L 18.3125 54.6875 
L 36.8125 54.6875 
L 36.8125 47.703125 
L 18.3125 47.703125 
L 18.3125 18.015625 
Q 18.3125 11.328125 20.140625 9.421875 
Q 21.96875 7.515625 27.59375 7.515625 
L 36.8125 7.515625 
L 36.8125 0 
L 27.59375 0 
Q 17.1875 0 13.234375 3.875 
Q 9.28125 7.765625 9.28125 18.015625 
L 9.28125 47.703125 
L 2.6875 47.703125 
L 2.6875 54.6875 
L 9.28125 54.6875 
L 9.28125 70.21875 
z
" id="DejaVuSans-116"/>
        <path d="M 9.421875 54.6875 
L 18.40625 54.6875 
L 18.40625 0 
L 9.421875 0 
z
M 9.421875 75.984375 
L 18.40625 75.984375 
L 18.40625 64.59375 
L 9.421875 64.59375 
z
" id="DejaVuSans-105"/>
        <path d="M 41.109375 46.296875 
Q 39.59375 47.171875 37.8125 47.578125 
Q 36.03125 48 33.890625 48 
Q 26.265625 48 22.1875 43.046875 
Q 18.109375 38.09375 18.109375 28.8125 
L 18.109375 0 
L 9.078125 0 
L 9.078125 54.6875 
L 18.109375 54.6875 
L 18.109375 46.1875 
Q 20.953125 51.171875 25.484375 53.578125 
Q 30.03125 56 36.53125 56 
Q 37.453125 56 38.578125 55.875 
Q 39.703125 55.765625 41.0625 55.515625 
z
" id="DejaVuSans-114"/>
        <path d="M 56.203125 29.59375 
L 56.203125 25.203125 
L 14.890625 25.203125 
Q 15.484375 15.921875 20.484375 11.0625 
Q 25.484375 6.203125 34.421875 6.203125 
Q 39.59375 6.203125 44.453125 7.46875 
Q 49.3125 8.734375 54.109375 11.28125 
L 54.109375 2.78125 
Q 49.265625 0.734375 44.1875 -0.34375 
Q 39.109375 -1.421875 33.890625 -1.421875 
Q 20.796875 -1.421875 13.15625 6.1875 
Q 5.515625 13.8125 5.515625 26.8125 
Q 5.515625 40.234375 12.765625 48.109375 
Q 20.015625 56 32.328125 56 
Q 43.359375 56 49.78125 48.890625 
Q 56.203125 41.796875 56.203125 29.59375 
z
M 47.21875 32.234375 
Q 47.125 39.59375 43.09375 43.984375 
Q 39.0625 48.390625 32.421875 48.390625 
Q 24.90625 48.390625 20.390625 44.140625 
Q 15.875 39.890625 15.1875 32.171875 
z
" id="DejaVuSans-101"/>
        <path id="DejaVuSans-32"/>
        <path d="M 48.78125 52.59375 
L 48.78125 44.1875 
Q 44.96875 46.296875 41.140625 47.34375 
Q 37.3125 48.390625 33.40625 48.390625 
Q 24.65625 48.390625 19.8125 42.84375 
Q 14.984375 37.3125 14.984375 27.296875 
Q 14.984375 17.28125 19.8125 11.734375 
Q 24.65625 6.203125 33.40625 6.203125 
Q 37.3125 6.203125 41.140625 7.25 
Q 44.96875 8.296875 48.78125 10.40625 
L 48.78125 2.09375 
Q 45.015625 0.34375 40.984375 -0.53125 
Q 36.96875 -1.421875 32.421875 -1.421875 
Q 20.0625 -1.421875 12.78125 6.34375 
Q 5.515625 14.109375 5.515625 27.296875 
Q 5.515625 40.671875 12.859375 48.328125 
Q 20.21875 56 33.015625 56 
Q 37.15625 56 41.109375 55.140625 
Q 45.0625 54.296875 48.78125 52.59375 
z
" id="DejaVuSans-99"/>
        <path d="M 30.609375 48.390625 
Q 23.390625 48.390625 19.1875 42.75 
Q 14.984375 37.109375 14.984375 27.296875 
Q 14.984375 17.484375 19.15625 11.84375 
Q 23.34375 6.203125 30.609375 6.203125 
Q 37.796875 6.203125 41.984375 11.859375 
Q 46.1875 17.53125 46.1875 27.296875 
Q 46.1875 37.015625 41.984375 42.703125 
Q 37.796875 48.390625 30.609375 48.390625 
z
M 30.609375 56 
Q 42.328125 56 49.015625 48.375 
Q 55.71875 40.765625 55.71875 27.296875 
Q 55.71875 13.875 49.015625 6.21875 
Q 42.328125 -1.421875 30.609375 -1.421875 
Q 18.84375 -1.421875 12.171875 6.21875 
Q 5.515625 13.875 5.515625 27.296875 
Q 5.515625 40.765625 12.171875 48.375 
Q 18.84375 56 30.609375 56 
z
" id="DejaVuSans-111"/>
        <path d="M 45.40625 46.390625 
L 45.40625 75.984375 
L 54.390625 75.984375 
L 54.390625 0 
L 45.40625 0 
L 45.40625 8.203125 
Q 42.578125 3.328125 38.25 0.953125 
Q 33.9375 -1.421875 27.875 -1.421875 
Q 17.96875 -1.421875 11.734375 6.484375 
Q 5.515625 14.40625 5.515625 27.296875 
Q 5.515625 40.1875 11.734375 48.09375 
Q 17.96875 56 27.875 56 
Q 33.9375 56 38.25 53.625 
Q 42.578125 51.265625 45.40625 46.390625 
z
M 14.796875 27.296875 
Q 14.796875 17.390625 18.875 11.75 
Q 22.953125 6.109375 30.078125 6.109375 
Q 37.203125 6.109375 41.296875 11.75 
Q 45.40625 17.390625 45.40625 27.296875 
Q 45.40625 37.203125 41.296875 42.84375 
Q 37.203125 48.484375 30.078125 48.484375 
Q 22.953125 48.484375 18.875 42.84375 
Q 14.796875 37.203125 14.796875 27.296875 
z
" id="DejaVuSans-100"/>
        <path d="M 52 44.1875 
Q 55.375 50.25 60.0625 53.125 
Q 64.75 56 71.09375 56 
Q 79.640625 56 84.28125 50.015625 
Q 88.921875 44.046875 88.921875 33.015625 
L 88.921875 0 
L 79.890625 0 
L 79.890625 32.71875 
Q 79.890625 40.578125 77.09375 44.375 
Q 74.3125 48.1875 68.609375 48.1875 
Q 61.625 48.1875 57.5625 43.546875 
Q 53.515625 38.921875 53.515625 30.90625 
L 53.515625 0 
L 44.484375 0 
L 44.484375 32.71875 
Q 44.484375 40.625 41.703125 44.40625 
Q 38.921875 48.1875 33.109375 48.1875 
Q 26.21875 48.1875 22.15625 43.53125 
Q 18.109375 38.875 18.109375 30.90625 
L 18.109375 0 
L 9.078125 0 
L 9.078125 54.6875 
L 18.109375 54.6875 
L 18.109375 46.1875 
Q 21.1875 51.21875 25.484375 53.609375 
Q 29.78125 56 35.6875 56 
Q 41.65625 56 45.828125 52.96875 
Q 50 49.953125 52 44.1875 
z
" id="DejaVuSans-109"/>
        <path d="M 8.5 21.578125 
L 8.5 54.6875 
L 17.484375 54.6875 
L 17.484375 21.921875 
Q 17.484375 14.15625 20.5 10.265625 
Q 23.53125 6.390625 29.59375 6.390625 
Q 36.859375 6.390625 41.078125 11.03125 
Q 45.3125 15.671875 45.3125 23.6875 
L 45.3125 54.6875 
L 54.296875 54.6875 
L 54.296875 0 
L 45.3125 0 
L 45.3125 8.40625 
Q 42.046875 3.421875 37.71875 1 
Q 33.40625 -1.421875 27.6875 -1.421875 
Q 18.265625 -1.421875 13.375 4.4375 
Q 8.5 10.296875 8.5 21.578125 
z
M 31.109375 56 
z
" id="DejaVuSans-117"/>
       </defs>
       <use xlink:href="#DejaVuSans-69"/>
       <use x="63.183594" xlink:href="#DejaVuSans-110"/>
       <use x="126.5625" xlink:href="#DejaVuSans-116"/>
       <use x="165.771484" xlink:href="#DejaVuSans-105"/>
       <use x="193.554688" xlink:href="#DejaVuSans-114"/>
       <use x="232.417969" xlink:href="#DejaVuSans-101"/>
       <use x="293.941406" xlink:href="#DejaVuSans-32"/>
       <use x="325.728516" xlink:href="#DejaVuSans-99"/>
       <use x="380.708984" xlink:href="#DejaVuSans-111"/>
       <use x="441.890625" xlink:href="#DejaVuSans-110"/>
       <use x="505.269531" xlink:href="#DejaVuSans-100"/>
       <use x="568.746094" xlink:href="#DejaVuSans-111"/>
       <use x="629.927734" xlink:href="#DejaVuSans-109"/>
       <use x="727.339844" xlink:href="#DejaVuSans-105"/>
       <use x="755.123047" xlink:href="#DejaVuSans-110"/>
       <use x="818.501953" xlink:href="#DejaVuSans-105"/>
       <use x="846.285156" xlink:href="#DejaVuSans-117"/>
       <use x="909.664062" xlink:href="#DejaVuSans-109"/>
      </g>
     </g>
    </g>
    <g id="xtick_2">
     <g id="line2d_2">
      <g>
       <use style="stroke:#000000;stroke-width:0.8;" x="196.61108" xlink:href="#m521c19d39b" y="239.758125"/>
      </g>
     </g>
     <g id="text_2">
      <!-- Entire apartment -->
      <g transform="translate(153.931392 254.356563)scale(0.1 -0.1)">
       <defs>
        <path d="M 34.28125 27.484375 
Q 23.390625 27.484375 19.1875 25 
Q 14.984375 22.515625 14.984375 16.5 
Q 14.984375 11.71875 18.140625 8.90625 
Q 21.296875 6.109375 26.703125 6.109375 
Q 34.1875 6.109375 38.703125 11.40625 
Q 43.21875 16.703125 43.21875 25.484375 
L 43.21875 27.484375 
z
M 52.203125 31.203125 
L 52.203125 0 
L 43.21875 0 
L 43.21875 8.296875 
Q 40.140625 3.328125 35.546875 0.953125 
Q 30.953125 -1.421875 24.3125 -1.421875 
Q 15.921875 -1.421875 10.953125 3.296875 
Q 6 8.015625 6 15.921875 
Q 6 25.140625 12.171875 29.828125 
Q 18.359375 34.515625 30.609375 34.515625 
L 43.21875 34.515625 
L 43.21875 35.40625 
Q 43.21875 41.609375 39.140625 45 
Q 35.0625 48.390625 27.6875 48.390625 
Q 23 48.390625 18.546875 47.265625 
Q 14.109375 46.140625 10.015625 43.890625 
L 10.015625 52.203125 
Q 14.9375 54.109375 19.578125 55.046875 
Q 24.21875 56 28.609375 56 
Q 40.484375 56 46.34375 49.84375 
Q 52.203125 43.703125 52.203125 31.203125 
z
" id="DejaVuSans-97"/>
        <path d="M 18.109375 8.203125 
L 18.109375 -20.796875 
L 9.078125 -20.796875 
L 9.078125 54.6875 
L 18.109375 54.6875 
L 18.109375 46.390625 
Q 20.953125 51.265625 25.265625 53.625 
Q 29.59375 56 35.59375 56 
Q 45.5625 56 51.78125 48.09375 
Q 58.015625 40.1875 58.015625 27.296875 
Q 58.015625 14.40625 51.78125 6.484375 
Q 45.5625 -1.421875 35.59375 -1.421875 
Q 29.59375 -1.421875 25.265625 0.953125 
Q 20.953125 3.328125 18.109375 8.203125 
z
M 48.6875 27.296875 
Q 48.6875 37.203125 44.609375 42.84375 
Q 40.53125 48.484375 33.40625 48.484375 
Q 26.265625 48.484375 22.1875 42.84375 
Q 18.109375 37.203125 18.109375 27.296875 
Q 18.109375 17.390625 22.1875 11.75 
Q 26.265625 6.109375 33.40625 6.109375 
Q 40.53125 6.109375 44.609375 11.75 
Q 48.6875 17.390625 48.6875 27.296875 
z
" id="DejaVuSans-112"/>
       </defs>
       <use xlink:href="#DejaVuSans-69"/>
       <use x="63.183594" xlink:href="#DejaVuSans-110"/>
       <use x="126.5625" xlink:href="#DejaVuSans-116"/>
       <use x="165.771484" xlink:href="#DejaVuSans-105"/>
       <use x="193.554688" xlink:href="#DejaVuSans-114"/>
       <use x="232.417969" xlink:href="#DejaVuSans-101"/>
       <use x="293.941406" xlink:href="#DejaVuSans-32"/>
       <use x="325.728516" xlink:href="#DejaVuSans-97"/>
       <use x="387.007812" xlink:href="#DejaVuSans-112"/>
       <use x="450.484375" xlink:href="#DejaVuSans-97"/>
       <use x="511.763672" xlink:href="#DejaVuSans-114"/>
       <use x="552.876953" xlink:href="#DejaVuSans-116"/>
       <use x="592.085938" xlink:href="#DejaVuSans-109"/>
       <use x="689.498047" xlink:href="#DejaVuSans-101"/>
       <use x="751.021484" xlink:href="#DejaVuSans-110"/>
       <use x="814.400391" xlink:href="#DejaVuSans-116"/>
      </g>
     </g>
    </g>
    <g id="xtick_3">
     <g id="line2d_3">
      <g>
       <use style="stroke:#000000;stroke-width:0.8;" x="298.065625" xlink:href="#m521c19d39b" y="239.758125"/>
      </g>
     </g>
     <g id="text_3">
      <!-- Private room -->
      <g transform="translate(266.1125 254.356563)scale(0.1 -0.1)">
       <defs>
        <path d="M 19.671875 64.796875 
L 19.671875 37.40625 
L 32.078125 37.40625 
Q 38.96875 37.40625 42.71875 40.96875 
Q 46.484375 44.53125 46.484375 51.125 
Q 46.484375 57.671875 42.71875 61.234375 
Q 38.96875 64.796875 32.078125 64.796875 
z
M 9.8125 72.90625 
L 32.078125 72.90625 
Q 44.34375 72.90625 50.609375 67.359375 
Q 56.890625 61.8125 56.890625 51.125 
Q 56.890625 40.328125 50.609375 34.8125 
Q 44.34375 29.296875 32.078125 29.296875 
L 19.671875 29.296875 
L 19.671875 0 
L 9.8125 0 
z
" id="DejaVuSans-80"/>
        <path d="M 2.984375 54.6875 
L 12.5 54.6875 
L 29.59375 8.796875 
L 46.6875 54.6875 
L 56.203125 54.6875 
L 35.6875 0 
L 23.484375 0 
z
" id="DejaVuSans-118"/>
       </defs>
       <use xlink:href="#DejaVuSans-80"/>
       <use x="58.552734" xlink:href="#DejaVuSans-114"/>
       <use x="99.666016" xlink:href="#DejaVuSans-105"/>
       <use x="127.449219" xlink:href="#DejaVuSans-118"/>
       <use x="186.628906" xlink:href="#DejaVuSans-97"/>
       <use x="247.908203" xlink:href="#DejaVuSans-116"/>
       <use x="287.117188" xlink:href="#DejaVuSans-101"/>
       <use x="348.640625" xlink:href="#DejaVuSans-32"/>
       <use x="380.427734" xlink:href="#DejaVuSans-114"/>
       <use x="419.291016" xlink:href="#DejaVuSans-111"/>
       <use x="480.472656" xlink:href="#DejaVuSans-111"/>
       <use x="541.654297" xlink:href="#DejaVuSans-109"/>
      </g>
     </g>
    </g>
    <g id="xtick_4">
     <g id="line2d_4">
      <g>
       <use style="stroke:#000000;stroke-width:0.8;" x="399.52017" xlink:href="#m521c19d39b" y="239.758125"/>
      </g>
     </g>
     <g id="text_4">
      <!-- Entire guest suite -->
      <g transform="translate(355.461577 254.356563)scale(0.1 -0.1)">
       <defs>
        <path d="M 45.40625 27.984375 
Q 45.40625 37.75 41.375 43.109375 
Q 37.359375 48.484375 30.078125 48.484375 
Q 22.859375 48.484375 18.828125 43.109375 
Q 14.796875 37.75 14.796875 27.984375 
Q 14.796875 18.265625 18.828125 12.890625 
Q 22.859375 7.515625 30.078125 7.515625 
Q 37.359375 7.515625 41.375 12.890625 
Q 45.40625 18.265625 45.40625 27.984375 
z
M 54.390625 6.78125 
Q 54.390625 -7.171875 48.1875 -13.984375 
Q 42 -20.796875 29.203125 -20.796875 
Q 24.46875 -20.796875 20.265625 -20.09375 
Q 16.0625 -19.390625 12.109375 -17.921875 
L 12.109375 -9.1875 
Q 16.0625 -11.328125 19.921875 -12.34375 
Q 23.78125 -13.375 27.78125 -13.375 
Q 36.625 -13.375 41.015625 -8.765625 
Q 45.40625 -4.15625 45.40625 5.171875 
L 45.40625 9.625 
Q 42.625 4.78125 38.28125 2.390625 
Q 33.9375 0 27.875 0 
Q 17.828125 0 11.671875 7.65625 
Q 5.515625 15.328125 5.515625 27.984375 
Q 5.515625 40.671875 11.671875 48.328125 
Q 17.828125 56 27.875 56 
Q 33.9375 56 38.28125 53.609375 
Q 42.625 51.21875 45.40625 46.390625 
L 45.40625 54.6875 
L 54.390625 54.6875 
z
" id="DejaVuSans-103"/>
        <path d="M 44.28125 53.078125 
L 44.28125 44.578125 
Q 40.484375 46.53125 36.375 47.5 
Q 32.28125 48.484375 27.875 48.484375 
Q 21.1875 48.484375 17.84375 46.4375 
Q 14.5 44.390625 14.5 40.28125 
Q 14.5 37.15625 16.890625 35.375 
Q 19.28125 33.59375 26.515625 31.984375 
L 29.59375 31.296875 
Q 39.15625 29.25 43.1875 25.515625 
Q 47.21875 21.78125 47.21875 15.09375 
Q 47.21875 7.46875 41.1875 3.015625 
Q 35.15625 -1.421875 24.609375 -1.421875 
Q 20.21875 -1.421875 15.453125 -0.5625 
Q 10.6875 0.296875 5.421875 2 
L 5.421875 11.28125 
Q 10.40625 8.6875 15.234375 7.390625 
Q 20.0625 6.109375 24.8125 6.109375 
Q 31.15625 6.109375 34.5625 8.28125 
Q 37.984375 10.453125 37.984375 14.40625 
Q 37.984375 18.0625 35.515625 20.015625 
Q 33.0625 21.96875 24.703125 23.78125 
L 21.578125 24.515625 
Q 13.234375 26.265625 9.515625 29.90625 
Q 5.8125 33.546875 5.8125 39.890625 
Q 5.8125 47.609375 11.28125 51.796875 
Q 16.75 56 26.8125 56 
Q 31.78125 56 36.171875 55.265625 
Q 40.578125 54.546875 44.28125 53.078125 
z
" id="DejaVuSans-115"/>
       </defs>
       <use xlink:href="#DejaVuSans-69"/>
       <use x="63.183594" xlink:href="#DejaVuSans-110"/>
       <use x="126.5625" xlink:href="#DejaVuSans-116"/>
       <use x="165.771484" xlink:href="#DejaVuSans-105"/>
       <use x="193.554688" xlink:href="#DejaVuSans-114"/>
       <use x="232.417969" xlink:href="#DejaVuSans-101"/>
       <use x="293.941406" xlink:href="#DejaVuSans-32"/>
       <use x="325.728516" xlink:href="#DejaVuSans-103"/>
       <use x="389.205078" xlink:href="#DejaVuSans-117"/>
       <use x="452.583984" xlink:href="#DejaVuSans-101"/>
       <use x="514.107422" xlink:href="#DejaVuSans-115"/>
       <use x="566.207031" xlink:href="#DejaVuSans-116"/>
       <use x="605.416016" xlink:href="#DejaVuSans-32"/>
       <use x="637.203125" xlink:href="#DejaVuSans-115"/>
       <use x="689.302734" xlink:href="#DejaVuSans-117"/>
       <use x="752.681641" xlink:href="#DejaVuSans-105"/>
       <use x="780.464844" xlink:href="#DejaVuSans-116"/>
       <use x="819.673828" xlink:href="#DejaVuSans-101"/>
      </g>
     </g>
    </g>
    <g id="xtick_5">
     <g id="line2d_5">
      <g>
       <use style="stroke:#000000;stroke-width:0.8;" x="500.974716" xlink:href="#m521c19d39b" y="239.758125"/>
      </g>
     </g>
     <g id="text_5">
      <!-- Entire house -->
      <g transform="translate(469.610653 254.356563)scale(0.1 -0.1)">
       <defs>
        <path d="M 54.890625 33.015625 
L 54.890625 0 
L 45.90625 0 
L 45.90625 32.71875 
Q 45.90625 40.484375 42.875 44.328125 
Q 39.84375 48.1875 33.796875 48.1875 
Q 26.515625 48.1875 22.3125 43.546875 
Q 18.109375 38.921875 18.109375 30.90625 
L 18.109375 0 
L 9.078125 0 
L 9.078125 75.984375 
L 18.109375 75.984375 
L 18.109375 46.1875 
Q 21.34375 51.125 25.703125 53.5625 
Q 30.078125 56 35.796875 56 
Q 45.21875 56 50.046875 50.171875 
Q 54.890625 44.34375 54.890625 33.015625 
z
" id="DejaVuSans-104"/>
       </defs>
       <use xlink:href="#DejaVuSans-69"/>
       <use x="63.183594" xlink:href="#DejaVuSans-110"/>
       <use x="126.5625" xlink:href="#DejaVuSans-116"/>
       <use x="165.771484" xlink:href="#DejaVuSans-105"/>
       <use x="193.554688" xlink:href="#DejaVuSans-114"/>
       <use x="232.417969" xlink:href="#DejaVuSans-101"/>
       <use x="293.941406" xlink:href="#DejaVuSans-32"/>
       <use x="325.728516" xlink:href="#DejaVuSans-104"/>
       <use x="389.107422" xlink:href="#DejaVuSans-111"/>
       <use x="450.289062" xlink:href="#DejaVuSans-117"/>
       <use x="513.667969" xlink:href="#DejaVuSans-115"/>
       <use x="565.767578" xlink:href="#DejaVuSans-101"/>
      </g>
     </g>
    </g>
   </g>
   <g id="matplotlib.axis_2">
    <g id="ytick_1">
     <g id="line2d_6">
      <defs>
       <path d="M 0 0 
L -3.5 0 
" id="m7fbeda709a" style="stroke:#000000;stroke-width:0.8;"/>
      </defs>
      <g>
       <use style="stroke:#000000;stroke-width:0.8;" x="46.965625" xlink:href="#m7fbeda709a" y="214.92445"/>
      </g>
     </g>
     <g id="text_6">
      <!-- 20 -->
      <g transform="translate(27.240625 218.723669)scale(0.1 -0.1)">
       <defs>
        <path d="M 19.1875 8.296875 
L 53.609375 8.296875 
L 53.609375 0 
L 7.328125 0 
L 7.328125 8.296875 
Q 12.9375 14.109375 22.625 23.890625 
Q 32.328125 33.6875 34.8125 36.53125 
Q 39.546875 41.84375 41.421875 45.53125 
Q 43.3125 49.21875 43.3125 52.78125 
Q 43.3125 58.59375 39.234375 62.25 
Q 35.15625 65.921875 28.609375 65.921875 
Q 23.96875 65.921875 18.8125 64.3125 
Q 13.671875 62.703125 7.8125 59.421875 
L 7.8125 69.390625 
Q 13.765625 71.78125 18.9375 73 
Q 24.125 74.21875 28.421875 74.21875 
Q 39.75 74.21875 46.484375 68.546875 
Q 53.21875 62.890625 53.21875 53.421875 
Q 53.21875 48.921875 51.53125 44.890625 
Q 49.859375 40.875 45.40625 35.40625 
Q 44.1875 33.984375 37.640625 27.21875 
Q 31.109375 20.453125 19.1875 8.296875 
z
" id="DejaVuSans-50"/>
        <path d="M 31.78125 66.40625 
Q 24.171875 66.40625 20.328125 58.90625 
Q 16.5 51.421875 16.5 36.375 
Q 16.5 21.390625 20.328125 13.890625 
Q 24.171875 6.390625 31.78125 6.390625 
Q 39.453125 6.390625 43.28125 13.890625 
Q 47.125 21.390625 47.125 36.375 
Q 47.125 51.421875 43.28125 58.90625 
Q 39.453125 66.40625 31.78125 66.40625 
z
M 31.78125 74.21875 
Q 44.046875 74.21875 50.515625 64.515625 
Q 56.984375 54.828125 56.984375 36.375 
Q 56.984375 17.96875 50.515625 8.265625 
Q 44.046875 -1.421875 31.78125 -1.421875 
Q 19.53125 -1.421875 13.0625 8.265625 
Q 6.59375 17.96875 6.59375 36.375 
Q 6.59375 54.828125 13.0625 64.515625 
Q 19.53125 74.21875 31.78125 74.21875 
z
" id="DejaVuSans-48"/>
       </defs>
       <use xlink:href="#DejaVuSans-50"/>
       <use x="63.623047" xlink:href="#DejaVuSans-48"/>
      </g>
     </g>
    </g>
    <g id="ytick_2">
     <g id="line2d_7">
      <g>
       <use style="stroke:#000000;stroke-width:0.8;" x="46.965625" xlink:href="#m7fbeda709a" y="181.702143"/>
      </g>
     </g>
     <g id="text_7">
      <!-- 40 -->
      <g transform="translate(27.240625 185.501362)scale(0.1 -0.1)">
       <defs>
        <path d="M 37.796875 64.3125 
L 12.890625 25.390625 
L 37.796875 25.390625 
z
M 35.203125 72.90625 
L 47.609375 72.90625 
L 47.609375 25.390625 
L 58.015625 25.390625 
L 58.015625 17.1875 
L 47.609375 17.1875 
L 47.609375 0 
L 37.796875 0 
L 37.796875 17.1875 
L 4.890625 17.1875 
L 4.890625 26.703125 
z
" id="DejaVuSans-52"/>
       </defs>
       <use xlink:href="#DejaVuSans-52"/>
       <use x="63.623047" xlink:href="#DejaVuSans-48"/>
      </g>
     </g>
    </g>
    <g id="ytick_3">
     <g id="line2d_8">
      <g>
       <use style="stroke:#000000;stroke-width:0.8;" x="46.965625" xlink:href="#m7fbeda709a" y="148.479836"/>
      </g>
     </g>
     <g id="text_8">
      <!-- 60 -->
      <g transform="translate(27.240625 152.279055)scale(0.1 -0.1)">
       <defs>
        <path d="M 33.015625 40.375 
Q 26.375 40.375 22.484375 35.828125 
Q 18.609375 31.296875 18.609375 23.390625 
Q 18.609375 15.53125 22.484375 10.953125 
Q 26.375 6.390625 33.015625 6.390625 
Q 39.65625 6.390625 43.53125 10.953125 
Q 47.40625 15.53125 47.40625 23.390625 
Q 47.40625 31.296875 43.53125 35.828125 
Q 39.65625 40.375 33.015625 40.375 
z
M 52.59375 71.296875 
L 52.59375 62.3125 
Q 48.875 64.0625 45.09375 64.984375 
Q 41.3125 65.921875 37.59375 65.921875 
Q 27.828125 65.921875 22.671875 59.328125 
Q 17.53125 52.734375 16.796875 39.40625 
Q 19.671875 43.65625 24.015625 45.921875 
Q 28.375 48.1875 33.59375 48.1875 
Q 44.578125 48.1875 50.953125 41.515625 
Q 57.328125 34.859375 57.328125 23.390625 
Q 57.328125 12.15625 50.6875 5.359375 
Q 44.046875 -1.421875 33.015625 -1.421875 
Q 20.359375 -1.421875 13.671875 8.265625 
Q 6.984375 17.96875 6.984375 36.375 
Q 6.984375 53.65625 15.1875 63.9375 
Q 23.390625 74.21875 37.203125 74.21875 
Q 40.921875 74.21875 44.703125 73.484375 
Q 48.484375 72.75 52.59375 71.296875 
z
" id="DejaVuSans-54"/>
       </defs>
       <use xlink:href="#DejaVuSans-54"/>
       <use x="63.623047" xlink:href="#DejaVuSans-48"/>
      </g>
     </g>
    </g>
    <g id="ytick_4">
     <g id="line2d_9">
      <g>
       <use style="stroke:#000000;stroke-width:0.8;" x="46.965625" xlink:href="#m7fbeda709a" y="115.257529"/>
      </g>
     </g>
     <g id="text_9">
      <!-- 80 -->
      <g transform="translate(27.240625 119.056748)scale(0.1 -0.1)">
       <defs>
        <path d="M 31.78125 34.625 
Q 24.75 34.625 20.71875 30.859375 
Q 16.703125 27.09375 16.703125 20.515625 
Q 16.703125 13.921875 20.71875 10.15625 
Q 24.75 6.390625 31.78125 6.390625 
Q 38.8125 6.390625 42.859375 10.171875 
Q 46.921875 13.96875 46.921875 20.515625 
Q 46.921875 27.09375 42.890625 30.859375 
Q 38.875 34.625 31.78125 34.625 
z
M 21.921875 38.8125 
Q 15.578125 40.375 12.03125 44.71875 
Q 8.5 49.078125 8.5 55.328125 
Q 8.5 64.0625 14.71875 69.140625 
Q 20.953125 74.21875 31.78125 74.21875 
Q 42.671875 74.21875 48.875 69.140625 
Q 55.078125 64.0625 55.078125 55.328125 
Q 55.078125 49.078125 51.53125 44.71875 
Q 48 40.375 41.703125 38.8125 
Q 48.828125 37.15625 52.796875 32.3125 
Q 56.78125 27.484375 56.78125 20.515625 
Q 56.78125 9.90625 50.3125 4.234375 
Q 43.84375 -1.421875 31.78125 -1.421875 
Q 19.734375 -1.421875 13.25 4.234375 
Q 6.78125 9.90625 6.78125 20.515625 
Q 6.78125 27.484375 10.78125 32.3125 
Q 14.796875 37.15625 21.921875 38.8125 
z
M 18.3125 54.390625 
Q 18.3125 48.734375 21.84375 45.5625 
Q 25.390625 42.390625 31.78125 42.390625 
Q 38.140625 42.390625 41.71875 45.5625 
Q 45.3125 48.734375 45.3125 54.390625 
Q 45.3125 60.0625 41.71875 63.234375 
Q 38.140625 66.40625 31.78125 66.40625 
Q 25.390625 66.40625 21.84375 63.234375 
Q 18.3125 60.0625 18.3125 54.390625 
z
" id="DejaVuSans-56"/>
       </defs>
       <use xlink:href="#DejaVuSans-56"/>
       <use x="63.623047" xlink:href="#DejaVuSans-48"/>
      </g>
     </g>
    </g>
    <g id="ytick_5">
     <g id="line2d_10">
      <g>
       <use style="stroke:#000000;stroke-width:0.8;" x="46.965625" xlink:href="#m7fbeda709a" y="82.035222"/>
      </g>
     </g>
     <g id="text_10">
      <!-- 100 -->
      <g transform="translate(20.878125 85.834441)scale(0.1 -0.1)">
       <defs>
        <path d="M 12.40625 8.296875 
L 28.515625 8.296875 
L 28.515625 63.921875 
L 10.984375 60.40625 
L 10.984375 69.390625 
L 28.421875 72.90625 
L 38.28125 72.90625 
L 38.28125 8.296875 
L 54.390625 8.296875 
L 54.390625 0 
L 12.40625 0 
z
" id="DejaVuSans-49"/>
       </defs>
       <use xlink:href="#DejaVuSans-49"/>
       <use x="63.623047" xlink:href="#DejaVuSans-48"/>
       <use x="127.246094" xlink:href="#DejaVuSans-48"/>
      </g>
     </g>
    </g>
    <g id="ytick_6">
     <g id="line2d_11">
      <g>
       <use style="stroke:#000000;stroke-width:0.8;" x="46.965625" xlink:href="#m7fbeda709a" y="48.812915"/>
      </g>
     </g>
     <g id="text_11">
      <!-- 120 -->
      <g transform="translate(20.878125 52.612134)scale(0.1 -0.1)">
       <use xlink:href="#DejaVuSans-49"/>
       <use x="63.623047" xlink:href="#DejaVuSans-50"/>
       <use x="127.246094" xlink:href="#DejaVuSans-48"/>
      </g>
     </g>
    </g>
    <g id="text_12">
     <!-- Price rate -->
     <g transform="translate(14.798437 154.981094)rotate(-90)scale(0.1 -0.1)">
      <use xlink:href="#DejaVuSans-80"/>
      <use x="58.552734" xlink:href="#DejaVuSans-114"/>
      <use x="99.666016" xlink:href="#DejaVuSans-105"/>
      <use x="127.449219" xlink:href="#DejaVuSans-99"/>
      <use x="182.429688" xlink:href="#DejaVuSans-101"/>
      <use x="243.953125" xlink:href="#DejaVuSans-32"/>
      <use x="275.740234" xlink:href="#DejaVuSans-114"/>
      <use x="316.853516" xlink:href="#DejaVuSans-97"/>
      <use x="378.132812" xlink:href="#DejaVuSans-116"/>
      <use x="417.341797" xlink:href="#DejaVuSans-101"/>
     </g>
    </g>
   </g>
   <g id="LineCollection_1">
    <path clip-path="url(#pe658b776ff)" d="M 82.474716 48.812915 
L 107.838352 48.812915 
" style="fill:none;stroke:#1f77b4;stroke-width:1.5;"/>
    <path clip-path="url(#pe658b776ff)" d="M 183.929261 32.201761 
L 209.292898 32.201761 
" style="fill:none;stroke:#1f77b4;stroke-width:1.5;"/>
    <path clip-path="url(#pe658b776ff)" d="M 285.383807 138.513144 
L 310.747443 138.513144 
" style="fill:none;stroke:#1f77b4;stroke-width:1.5;"/>
    <path clip-path="url(#pe658b776ff)" d="M 386.838352 123.563106 
L 412.201989 123.563106 
" style="fill:none;stroke:#1f77b4;stroke-width:1.5;"/>
    <path clip-path="url(#pe658b776ff)" d="M 488.292898 75.390761 
L 513.656534 75.390761 
" style="fill:none;stroke:#1f77b4;stroke-width:1.5;"/>
   </g>
   <g id="LineCollection_2">
    <path clip-path="url(#pe658b776ff)" d="M 82.474716 186.685489 
L 107.838352 186.685489 
" style="fill:none;stroke:#1f77b4;stroke-width:1.5;"/>
    <path clip-path="url(#pe658b776ff)" d="M 183.929261 229.874489 
L 209.292898 229.874489 
" style="fill:none;stroke:#1f77b4;stroke-width:1.5;"/>
    <path clip-path="url(#pe658b776ff)" d="M 285.383807 224.891143 
L 310.747443 224.891143 
" style="fill:none;stroke:#1f77b4;stroke-width:1.5;"/>
    <path clip-path="url(#pe658b776ff)" d="M 386.838352 216.585566 
L 412.201989 216.585566 
" style="fill:none;stroke:#1f77b4;stroke-width:1.5;"/>
    <path clip-path="url(#pe658b776ff)" d="M 488.292898 199.974412 
L 513.656534 199.974412 
" style="fill:none;stroke:#1f77b4;stroke-width:1.5;"/>
   </g>
   <g id="LineCollection_3">
    <path clip-path="url(#pe658b776ff)" d="M 95.156534 186.685489 
L 95.156534 48.812915 
" style="fill:none;stroke:#1f77b4;stroke-width:1.5;"/>
    <path clip-path="url(#pe658b776ff)" d="M 196.61108 229.874489 
L 196.61108 32.201761 
" style="fill:none;stroke:#1f77b4;stroke-width:1.5;"/>
    <path clip-path="url(#pe658b776ff)" d="M 298.065625 224.891143 
L 298.065625 138.513144 
" style="fill:none;stroke:#1f77b4;stroke-width:1.5;"/>
    <path clip-path="url(#pe658b776ff)" d="M 399.52017 216.585566 
L 399.52017 123.563106 
" style="fill:none;stroke:#1f77b4;stroke-width:1.5;"/>
    <path clip-path="url(#pe658b776ff)" d="M 500.974716 199.974412 
L 500.974716 75.390761 
" style="fill:none;stroke:#1f77b4;stroke-width:1.5;"/>
   </g>
   <g id="patch_3">
    <path d="M 46.965625 239.758125 
L 46.965625 22.318125 
" style="fill:none;stroke:#000000;stroke-linecap:square;stroke-linejoin:miter;stroke-width:0.8;"/>
   </g>
   <g id="patch_4">
    <path d="M 549.165625 239.758125 
L 549.165625 22.318125 
" style="fill:none;stroke:#000000;stroke-linecap:square;stroke-linejoin:miter;stroke-width:0.8;"/>
   </g>
   <g id="patch_5">
    <path d="M 46.965625 239.758125 
L 549.165625 239.758125 
" style="fill:none;stroke:#000000;stroke-linecap:square;stroke-linejoin:miter;stroke-width:0.8;"/>
   </g>
   <g id="patch_6">
    <path d="M 46.965625 22.318125 
L 549.165625 22.318125 
" style="fill:none;stroke:#000000;stroke-linecap:square;stroke-linejoin:miter;stroke-width:0.8;"/>
   </g>
   <g id="text_13">
    <!-- Density and distribution of prices for each space type -->
    <g transform="translate(136.950625 16.318125)scale(0.12 -0.12)">
     <defs>
      <path d="M 19.671875 64.796875 
L 19.671875 8.109375 
L 31.59375 8.109375 
Q 46.6875 8.109375 53.6875 14.9375 
Q 60.6875 21.78125 60.6875 36.53125 
Q 60.6875 51.171875 53.6875 57.984375 
Q 46.6875 64.796875 31.59375 64.796875 
z
M 9.8125 72.90625 
L 30.078125 72.90625 
Q 51.265625 72.90625 61.171875 64.09375 
Q 71.09375 55.28125 71.09375 36.53125 
Q 71.09375 17.671875 61.125 8.828125 
Q 51.171875 0 30.078125 0 
L 9.8125 0 
z
" id="DejaVuSans-68"/>
      <path d="M 32.171875 -5.078125 
Q 28.375 -14.84375 24.75 -17.8125 
Q 21.140625 -20.796875 15.09375 -20.796875 
L 7.90625 -20.796875 
L 7.90625 -13.28125 
L 13.1875 -13.28125 
Q 16.890625 -13.28125 18.9375 -11.515625 
Q 21 -9.765625 23.484375 -3.21875 
L 25.09375 0.875 
L 2.984375 54.6875 
L 12.5 54.6875 
L 29.59375 11.921875 
L 46.6875 54.6875 
L 56.203125 54.6875 
z
" id="DejaVuSans-121"/>
      <path d="M 48.6875 27.296875 
Q 48.6875 37.203125 44.609375 42.84375 
Q 40.53125 48.484375 33.40625 48.484375 
Q 26.265625 48.484375 22.1875 42.84375 
Q 18.109375 37.203125 18.109375 27.296875 
Q 18.109375 17.390625 22.1875 11.75 
Q 26.265625 6.109375 33.40625 6.109375 
Q 40.53125 6.109375 44.609375 11.75 
Q 48.6875 17.390625 48.6875 27.296875 
z
M 18.109375 46.390625 
Q 20.953125 51.265625 25.265625 53.625 
Q 29.59375 56 35.59375 56 
Q 45.5625 56 51.78125 48.09375 
Q 58.015625 40.1875 58.015625 27.296875 
Q 58.015625 14.40625 51.78125 6.484375 
Q 45.5625 -1.421875 35.59375 -1.421875 
Q 29.59375 -1.421875 25.265625 0.953125 
Q 20.953125 3.328125 18.109375 8.203125 
L 18.109375 0 
L 9.078125 0 
L 9.078125 75.984375 
L 18.109375 75.984375 
z
" id="DejaVuSans-98"/>
      <path d="M 37.109375 75.984375 
L 37.109375 68.5 
L 28.515625 68.5 
Q 23.6875 68.5 21.796875 66.546875 
Q 19.921875 64.59375 19.921875 59.515625 
L 19.921875 54.6875 
L 34.71875 54.6875 
L 34.71875 47.703125 
L 19.921875 47.703125 
L 19.921875 0 
L 10.890625 0 
L 10.890625 47.703125 
L 2.296875 47.703125 
L 2.296875 54.6875 
L 10.890625 54.6875 
L 10.890625 58.5 
Q 10.890625 67.625 15.140625 71.796875 
Q 19.390625 75.984375 28.609375 75.984375 
z
" id="DejaVuSans-102"/>
     </defs>
     <use xlink:href="#DejaVuSans-68"/>
     <use x="77.001953" xlink:href="#DejaVuSans-101"/>
     <use x="138.525391" xlink:href="#DejaVuSans-110"/>
     <use x="201.904297" xlink:href="#DejaVuSans-115"/>
     <use x="254.003906" xlink:href="#DejaVuSans-105"/>
     <use x="281.787109" xlink:href="#DejaVuSans-116"/>
     <use x="320.996094" xlink:href="#DejaVuSans-121"/>
     <use x="380.175781" xlink:href="#DejaVuSans-32"/>
     <use x="411.962891" xlink:href="#DejaVuSans-97"/>
     <use x="473.242188" xlink:href="#DejaVuSans-110"/>
     <use x="536.621094" xlink:href="#DejaVuSans-100"/>
     <use x="600.097656" xlink:href="#DejaVuSans-32"/>
     <use x="631.884766" xlink:href="#DejaVuSans-100"/>
     <use x="695.361328" xlink:href="#DejaVuSans-105"/>
     <use x="723.144531" xlink:href="#DejaVuSans-115"/>
     <use x="775.244141" xlink:href="#DejaVuSans-116"/>
     <use x="814.453125" xlink:href="#DejaVuSans-114"/>
     <use x="855.566406" xlink:href="#DejaVuSans-105"/>
     <use x="883.349609" xlink:href="#DejaVuSans-98"/>
     <use x="946.826172" xlink:href="#DejaVuSans-117"/>
     <use x="1010.205078" xlink:href="#DejaVuSans-116"/>
     <use x="1049.414062" xlink:href="#DejaVuSans-105"/>
     <use x="1077.197266" xlink:href="#DejaVuSans-111"/>
     <use x="1138.378906" xlink:href="#DejaVuSans-110"/>
     <use x="1201.757812" xlink:href="#DejaVuSans-32"/>
     <use x="1233.544922" xlink:href="#DejaVuSans-111"/>
     <use x="1294.726562" xlink:href="#DejaVuSans-102"/>
     <use x="1329.931641" xlink:href="#DejaVuSans-32"/>
     <use x="1361.71875" xlink:href="#DejaVuSans-112"/>
     <use x="1425.195312" xlink:href="#DejaVuSans-114"/>
     <use x="1466.308594" xlink:href="#DejaVuSans-105"/>
     <use x="1494.091797" xlink:href="#DejaVuSans-99"/>
     <use x="1549.072266" xlink:href="#DejaVuSans-101"/>
     <use x="1610.595703" xlink:href="#DejaVuSans-115"/>
     <use x="1662.695312" xlink:href="#DejaVuSans-32"/>
     <use x="1694.482422" xlink:href="#DejaVuSans-102"/>
     <use x="1729.6875" xlink:href="#DejaVuSans-111"/>
     <use x="1790.869141" xlink:href="#DejaVuSans-114"/>
     <use x="1831.982422" xlink:href="#DejaVuSans-32"/>
     <use x="1863.769531" xlink:href="#DejaVuSans-101"/>
     <use x="1925.292969" xlink:href="#DejaVuSans-97"/>
     <use x="1986.572266" xlink:href="#DejaVuSans-99"/>
     <use x="2041.552734" xlink:href="#DejaVuSans-104"/>
     <use x="2104.931641" xlink:href="#DejaVuSans-32"/>
     <use x="2136.71875" xlink:href="#DejaVuSans-115"/>
     <use x="2188.818359" xlink:href="#DejaVuSans-112"/>
     <use x="2252.294922" xlink:href="#DejaVuSans-97"/>
     <use x="2313.574219" xlink:href="#DejaVuSans-99"/>
     <use x="2368.554688" xlink:href="#DejaVuSans-101"/>
     <use x="2430.078125" xlink:href="#DejaVuSans-32"/>
     <use x="2461.865234" xlink:href="#DejaVuSans-116"/>
     <use x="2501.074219" xlink:href="#DejaVuSans-121"/>
     <use x="2560.253906" xlink:href="#DejaVuSans-112"/>
     <use x="2623.730469" xlink:href="#DejaVuSans-101"/>
    </g>
   </g>
  </g>
 </g>
 <defs>
  <clipPath id="pe658b776ff">
   <rect height="217.44" width="502.2" x="46.965625" y="22.318125"/>
  </clipPath>
 </defs>
</svg>
